<?xml version="1.0" encoding="iso-8859-1"?>
<!-- Generator: Adobe Illustrator 19.0.0, SVG Export Plug-In . SVG Version: 6.00 Build 0)  -->
<svg version="1.1" id="Capa_1" xmlns="http://www.w3.org/2000/svg" xmlns:xlink="http://www.w3.org/1999/xlink" x="0px" y="0px"
	 viewBox="0 0 512.001 512.001" style="enable-background:new 0 0 512.001 512.001;" xml:space="preserve">
<g>
	<path style="fill:#5D6D7D;" d="M88.252,467.462H60.849c-4.399,0-7.965-3.566-7.965-7.965v-45.368h43.333v45.368
		C96.217,463.896,92.651,467.462,88.252,467.462z"/>
	<path style="fill:#5D6D7D;" d="M451.151,467.462h-27.404c-4.399,0-7.965-3.566-7.965-7.965v-45.368h43.333v45.368
		C459.116,463.896,455.55,467.462,451.151,467.462z"/>
</g>
<path style="fill:#E1EFFB;" d="M490.158,433.719H21.842c-7.921,0-14.342-6.421-14.342-14.342V58.88
	c0-7.921,6.421-14.342,14.342-14.342h468.316c7.921,0,14.342,6.421,14.342,14.342v360.497
	C504.5,427.298,498.079,433.719,490.158,433.719z"/>
<path style="fill:#BACED8;" d="M490.158,44.538h-34.325v389.181h34.325c7.921,0,14.342-6.421,14.342-14.342V58.88
	C504.5,50.959,498.079,44.538,490.158,44.538z"/>
<path style="fill:#24D9DE;" d="M41.044,351.904V82.171c0-2.258,1.831-4.089,4.089-4.089h421.735c2.258,0,4.089,1.831,4.089,4.089
	v269.732c0,2.258-1.831,4.089-4.089,4.089H45.133C42.875,355.992,41.044,354.161,41.044,351.904z"/>
<path style="fill:#11B9C1;" d="M466.868,78.082H421.79v277.91h45.078c2.258,0,4.089-1.831,4.089-4.089V82.171
	C470.956,79.913,469.126,78.082,466.868,78.082z"/>
<path style="fill:#F9644B;" d="M420.808,111.569c-12.198-3.674-19.754,4.325-23.483,8.345c-3.729-4.02-11.285-12.019-23.483-8.345
	c-17.75,5.346-17.64,32.998,12.242,52.489c3.53,2.303,9.121,5.491,10.947,6.542h0.589c1.826-1.051,7.417-4.239,10.947-6.542
	C438.449,144.568,438.558,116.916,420.808,111.569z"/>
<circle style="fill:#FFB123;" cx="446.71" cy="395.22" r="15.15"/>
<path d="M92,235.911h55.222l34.745,34.745c3.138,3.138,7.815,4.067,11.913,2.369c4.099-1.698,6.748-5.662,6.748-10.099v-57.428
	l28.447,28.191c2.061,2.043,4.793,3.168,7.696,3.168h35.25l33.894,33.893c2.097,2.096,4.879,3.207,7.718,3.207
	c1.411,0,2.835-0.274,4.195-0.838c4.1-1.698,6.748-5.662,6.748-10.099v-58.376l31.78,29.359c2.025,1.871,4.659,2.901,7.417,2.901
	H420c4.143,0,7.5-3.358,7.5-7.5s-3.357-7.5-7.5-7.5h-54.637l-37.44-34.588c-3.19-2.946-7.824-3.726-11.8-1.984
	c-3.979,1.741-6.549,5.672-6.549,10.014v57.852l-28.139-28.139c-2.065-2.065-4.811-3.202-7.729-3.202h-35.261l-34.192-33.885
	c-3.144-3.116-7.814-4.028-11.901-2.325c-4.085,1.703-6.725,5.664-6.725,10.089v57.367l-28.991-28.991
	c-2.064-2.064-4.81-3.202-7.729-3.202H92c-4.142,0-7.5,3.358-7.5,7.5S87.858,235.911,92,235.911z"/>
<path d="M299.917,387.717H167c-4.142,0-7.5,3.358-7.5,7.5s3.358,7.5,7.5,7.5h132.917c4.143,0,7.5-3.358,7.5-7.5
	S304.06,387.717,299.917,387.717z"/>
<path d="M354.333,387.717h-19.416c-4.143,0-7.5,3.358-7.5,7.5s3.357,7.5,7.5,7.5h19.416c4.143,0,7.5-3.358,7.5-7.5
	S358.476,387.717,354.333,387.717z"/>
<path d="M490.158,37.038H21.842C9.798,37.038,0,46.836,0,58.88v360.497c0,12.043,9.798,21.842,21.842,21.842h23.542v18.278
	c0,8.527,6.938,15.465,15.465,15.465h27.404c8.527,0,15.465-6.938,15.465-15.465v-18.278h304.566v18.278
	c0,8.527,6.938,15.465,15.465,15.465h27.403c8.527,0,15.465-6.938,15.465-15.465v-18.278h23.542
	c12.044,0,21.842-9.798,21.842-21.842V58.88C512,46.836,502.202,37.038,490.158,37.038z M88.717,459.497
	c0,0.256-0.208,0.465-0.465,0.465H60.849c-0.256,0-0.465-0.208-0.465-0.465v-18.278h28.333
	C88.717,441.219,88.717,459.497,88.717,459.497z M451.616,459.497c0,0.256-0.209,0.465-0.465,0.465h-27.403
	c-0.256,0-0.465-0.208-0.465-0.465v-18.278h28.333V459.497z M497,419.378c0,3.772-3.069,6.842-6.842,6.842H21.842
	c-3.772,0-6.842-3.069-6.842-6.842V58.88c0-3.772,3.069-6.842,6.842-6.842h468.316c3.772,0,6.842,3.069,6.842,6.842L497,419.378
	L497,419.378z"/>
<path d="M466.867,70.582H110.833c-4.142,0-7.5,3.358-7.5,7.5s3.358,7.5,7.5,7.5h352.623v262.91H48.544V85.582h27.289
	c4.142,0,7.5-3.358,7.5-7.5s-3.358-7.5-7.5-7.5h-30.7c-6.39,0-11.588,5.199-11.588,11.589v269.732
	c0,6.39,5.199,11.589,11.588,11.589h421.734c6.39,0,11.589-5.199,11.589-11.589V82.171
	C478.456,75.781,473.257,70.582,466.867,70.582z"/>
<path d="M381.986,170.34c3.438,2.242,8.613,5.215,10.823,6.485l0.48,0.275c1.138,0.655,2.428,1,3.74,1h0.59
	c1.313,0,2.603-0.345,3.74-1l0.48-0.275c2.21-1.27,7.386-4.243,10.823-6.485c22.911-14.943,29.173-33.499,27.395-45.88
	c-1.403-9.768-7.791-17.271-17.087-20.071c-11.597-3.494-20.164,0.799-25.646,5.181c-5.481-4.382-14.051-8.674-25.646-5.181
	c-9.296,2.8-15.684,10.303-17.087,20.071C352.813,136.841,359.075,155.396,381.986,170.34z M369.439,126.593
	c0.401-2.796,1.866-6.427,6.565-7.842c1.419-0.427,2.729-0.621,3.948-0.621c4.992,0,8.487,3.234,11.874,6.885
	c1.419,1.53,3.411,2.399,5.498,2.399s4.079-0.869,5.498-2.399c4.216-4.543,8.597-8.441,15.822-6.265
	c4.698,1.416,6.164,5.046,6.565,7.842c1.069,7.446-3.721,20.082-20.742,31.184c-2.027,1.323-4.852,2.999-7.144,4.333
	c-2.292-1.335-5.116-3.011-7.144-4.333C373.159,146.674,368.369,134.039,369.439,126.593z"/>
<path d="M446.715,372.568c-12.489,0-22.649,10.16-22.649,22.649s10.16,22.649,22.649,22.649c12.488,0,22.648-10.16,22.648-22.649
	S459.203,372.568,446.715,372.568z M446.715,402.866c-4.218,0-7.649-3.431-7.649-7.649s3.432-7.649,7.649-7.649
	s7.648,3.431,7.648,7.649S450.933,402.866,446.715,402.866z"/>
<g>
</g>
<g>
</g>
<g>
</g>
<g>
</g>
<g>
</g>
<g>
</g>
<g>
</g>
<g>
</g>
<g>
</g>
<g>
</g>
<g>
</g>
<g>
</g>
<g>
</g>
<g>
</g>
<g>
</g>
</svg>
