<svg xmlns="http://www.w3.org/2000/svg" height="666pt" version="1.1" viewBox="0 -23 666.2 666" width="666pt">
<g id="surface1">
<path d="M 539.800781 160.800781 C 531.699219 160.800781 523.601562 161.597656 515.699219 163.097656 C 499.699219 166.199219 484.398438 172.300781 470.800781 181.300781 C 484.5 172.398438 499.699219 166.199219 515.699219 163.097656 C 504.199219 62.300781 413.199219 -10.199219 312.300781 1.300781 C 245.199219 8.898438 187.699219 52.800781 162.601562 115.5 L 162.5 115.5 C 153.800781 137.199219 149.300781 160.300781 149.398438 183.699219 C 149.300781 160.300781 153.800781 137.199219 162.5 115.5 C 158.199219 115 153.800781 114.800781 149.398438 114.800781 C 66.898438 115 0.101562 181.898438 0.300781 264.398438 C 0.398438 342.199219 60.300781 406.898438 137.898438 413 C 141.699219 413.300781 145.5 413.5 149.398438 413.5 L 539.898438 413.5 C 609.699219 413.5 666.199219 356.898438 666.199219 287.199219 C 666.199219 217.5 609.601562 160.800781 539.800781 160.800781 Z M 539.800781 160.800781 " style=" stroke:none;fill-rule:nonzero;fill:rgb(34.117647%,64.313725%,100%);fill-opacity:1;" />
<path d="M 137.898438 413.398438 L 149.398438 413.398438 C 145.5 413.398438 141.699219 413.300781 137.898438 412.898438 Z M 137.898438 413.398438 " style=" stroke:none;fill-rule:nonzero;fill:rgb(87.843137%,87.843137%,88.627451%);fill-opacity:1;" />
<path d="M 643.199219 459.398438 L 23 459.398438 C 10.300781 459.398438 0 469.699219 0 482.398438 L 0 597.199219 C 0 609.898438 10.300781 620.199219 23 620.199219 L 643.199219 620.199219 C 655.898438 620.199219 666.199219 609.898438 666.199219 597.199219 L 666.199219 482.398438 C 666.101562 469.699219 655.898438 459.398438 643.199219 459.398438 Z M 80.398438 574.199219 C 61.398438 574.199219 45.898438 558.800781 45.898438 539.699219 C 45.898438 520.597656 61.300781 505.199219 80.398438 505.199219 C 99.5 505.199219 114.898438 520.597656 114.898438 539.699219 C 114.898438 558.800781 99.5 574.199219 80.398438 574.199219 Z M 160.800781 539.800781 Z M 160.800781 539.800781 " style=" stroke:none;fill-rule:nonzero;fill:rgb(87.843137%,87.843137%,88.627451%);fill-opacity:1;" />
<path d="M 114.898438 539.800781 C 114.898438 558.851562 99.453125 574.300781 80.398438 574.300781 C 61.347656 574.300781 45.898438 558.851562 45.898438 539.800781 C 45.898438 520.746094 61.347656 505.300781 80.398438 505.300781 C 99.453125 505.300781 114.898438 520.746094 114.898438 539.800781 Z M 114.898438 539.800781 " style=" stroke:none;fill-rule:nonzero;fill:rgb(34.117647%,64.313725%,100%);fill-opacity:1;" />
<path d="M 620.199219 551.300781 L 160.800781 551.300781 C 154.5 551.300781 149.300781 546.199219 149.300781 539.800781 C 149.300781 533.5 154.398438 528.300781 160.800781 528.300781 L 620.199219 528.300781 C 626.5 528.300781 631.699219 533.398438 631.699219 539.800781 C 631.699219 546.097656 626.601562 551.300781 620.199219 551.300781 Z M 620.199219 551.300781 " style=" stroke:none;fill-rule:nonzero;fill:rgb(34.117647%,64.313725%,100%);fill-opacity:1;" />
</g>
</svg>