<?xml version="1.0" encoding="iso-8859-1"?>
<!-- Generator: Adobe Illustrator 16.0.0, SVG Export Plug-In . SVG Version: 6.00 Build 0)  -->
<!DOCTYPE svg PUBLIC "-//W3C//DTD SVG 1.1//EN" "http://www.w3.org/Graphics/SVG/1.1/DTD/svg11.dtd">
<svg version="1.1" id="Capa_1" xmlns="http://www.w3.org/2000/svg" xmlns:xlink="http://www.w3.org/1999/xlink" x="0px" y="0px"
	 width="73.169px" height="73.169px" viewBox="0 0 73.169 73.169" style="enable-background:new 0 0 73.169 73.169;"
	 xml:space="preserve">
<g>
	<g id="Spot">
		<g>
			<path d="M36.584,0C16.412,0,0,16.412,0,36.585s16.412,36.584,36.584,36.584c20.173,0,36.585-16.411,36.585-36.584
				S56.757,0,36.584,0z M36.584,64.686c-15.494,0-28.1-12.605-28.1-28.101S21.09,8.484,36.584,8.484S64.686,21.09,64.686,36.585
				S52.078,64.686,36.584,64.686z M36.584,24.919c-6.205,0-11.232,5.032-11.232,11.237c0,6.197,5.027,11.229,11.232,11.229
				c6.201,0,11.232-5.031,11.232-11.229C47.816,29.951,42.785,24.919,36.584,24.919z"/>
		</g>
	</g>
</g>
<g>
</g>
<g>
</g>
<g>
</g>
<g>
</g>
<g>
</g>
<g>
</g>
<g>
</g>
<g>
</g>
<g>
</g>
<g>
</g>
<g>
</g>
<g>
</g>
<g>
</g>
<g>
</g>
<g>
</g>
</svg>
