<?xml version="1.0" encoding="iso-8859-1"?>
<!-- Generator: Adobe Illustrator 19.0.0, SVG Export Plug-In . SVG Version: 6.00 Build 0)  -->
<svg version="1.1" id="Capa_1" xmlns="http://www.w3.org/2000/svg" xmlns:xlink="http://www.w3.org/1999/xlink" x="0px" y="0px"
	 viewBox="0 0 512 512" style="enable-background:new 0 0 512 512;" xml:space="preserve">
<path style="fill:#289E48;" d="M242.506,387.022l-18.355,18.474V499.5c0,2.75,2.25,5,5,5h33.697c2.75,0,5-2.25,5-5v-86.972
	L242.506,387.022z"/>
<g style="opacity:0.1;">
	<path style="fill:#231F20;" d="M242,499.5V387.531l-17.849,17.964V499.5c0,2.75,2.25,5,5,5H247C244.25,504.5,242,502.25,242,499.5z
		"/>
</g>
<path style="fill:#CB7C52;" d="M266.684,52.679c-5.011,5.802-12.415,9.479-20.684,9.479c-8.268,0-15.673-3.677-20.684-9.478
	L213.644,88.5h64.713L266.684,52.679z"/>
<path style="opacity:0.1;fill:#231F20;enable-background:new    ;" d="M235.005,88.5l8.62-26.452
	c-7.305-0.629-13.783-4.129-18.309-9.368L213.644,88.5H235.005z"/>
<path style="fill:#289E48;" d="M351.537,146.624l-46.294-54.318C303.459,90.213,299.75,88.5,297,88.5H195
	c-2.75,0-6.459,1.713-8.243,3.806l-46.293,54.318H351.537z"/>
<path style="opacity:0.1;fill:#231F20;enable-background:new    ;" d="M170.856,146.624l46.293-54.318
	c1.784-2.093,5.493-3.806,8.243-3.806H195c-2.75,0-6.459,1.713-8.243,3.806l-46.293,54.318H170.856z"/>
<path style="fill:#FEDC34;" d="M145.709,170.775L180,312.724h17.188c2.75,0,6.406,1.756,8.126,3.902l8.915,11.132h63.545
	l8.914-11.132c1.72-2.147,5.376-3.902,8.126-3.902h17.189l34.289-141.948H145.709V170.775z"/>
<path style="opacity:0.1;fill:#231F20;enable-background:new    ;" d="M145.709,170.775L180,312.724h17.188
	c2.463,0,5.642,1.411,7.516,3.247l-35.075-145.195h-23.92V170.775z"/>
<path style="fill:#FFFFFF;" d="M246,201.514c-20.613,0-37.324,16.711-37.324,37.324c0,14.328,8.078,26.764,19.924,33.019
	c0.229-0.032,0.455-0.07,0.691-0.07h33.418c0.236,0,0.463,0.038,0.691,0.07c11.846-6.256,19.924-18.691,19.924-33.019
	C283.324,218.225,266.613,201.514,246,201.514z"/>
<path id="SVGCleanerId_0" style="fill:#74B9DF;" d="M267.709,286.794c0,2.75-2.25,5-5,5h-33.418c-2.75,0-5-2.25-5-5v-10.007
	c0-2.75,2.25-5,5-5h33.418c2.75,0,5,2.25,5,5V286.794z"/>
<g>
	<path id="SVGCleanerId_0_1_" style="fill:#74B9DF;" d="M267.709,286.794c0,2.75-2.25,5-5,5h-33.418c-2.75,0-5-2.25-5-5v-10.007
		c0-2.75,2.25-5,5-5h33.418c2.75,0,5,2.25,5,5V286.794z"/>
</g>
<circle style="fill:#FFBB4A;" cx="246" cy="238.84" r="14.533"/>
<path style="fill:#CB7C52;" d="M372.244,165.775c0,2.75-2.25,5-5,5H124.756c-2.75,0-5-2.25-5-5v-14.151c0-2.75,2.25-5,5-5h242.488
	c2.75,0,5,2.25,5,5L372.244,165.775L372.244,165.775z"/>
<g style="opacity:0.1;">
	<path style="fill:#231F20;" d="M147,165.775v-14.151c0-2.75,2.25-5,5-5h-27.244c-2.75,0-5,2.25-5,5v14.151c0,2.75,2.25,5,5,5H152
		C149.25,170.775,147,168.525,147,165.775z"/>
</g>
<circle style="fill:#289E48;" cx="246" cy="34.829" r="27.329"/>
<g style="opacity:0.1;">
	<path style="fill:#231F20;" d="M240,34.829c0-11.311,6.87-21.015,16.664-25.17C253.388,8.269,249.784,7.5,246,7.5
		c-15.094,0-27.329,12.234-27.329,27.329c0,15.094,12.235,27.328,27.329,27.328c3.784,0,7.388-0.77,10.664-2.159
		C246.87,55.843,240,46.139,240,34.829z"/>
</g>
<g>
	<path style="fill:#EF5A50;" d="M346.447,436.265l-53.454-53.798c-2.377-0.534-4.945-1.972-6.306-3.67l-10.435-13.031
		c-0.917,1.016-2.229,1.669-3.696,1.669h-14.683c1.295,0.97,1.429,2.685,0.279,3.84l-15.646,15.747l76.433,76.929
		c1.163,1.17,2.362,0.801,2.666-0.821l3.256-17.398c0.304-1.621,1.878-3.199,3.499-3.507l17.255-3.272
		C347.235,438.645,347.61,437.435,346.447,436.265z"/>
	<path style="fill:#EF5A50;" d="M257.873,367.435h-38.431c-1.47,0-2.782-0.654-3.699-1.672c0.002,0.002,0.003,0.003,0.004,0.005
		l-10.435,13.029c-1.719,2.146-5.375,3.902-8.125,3.902h-5.403l-46.231,46.531c-1.163,1.17-0.788,2.38,0.833,2.688l17.252,3.272
		c1.621,0.308,3.195,1.887,3.499,3.508l3.257,17.398c0.304,1.622,1.503,1.991,2.666,0.821l85.093-85.643
		C259.302,370.119,259.168,368.404,257.873,367.435z"/>
</g>
<g style="opacity:0.1;">
	<path style="fill:#231F20;" d="M219.442,367.435c-1.47,0-2.782-0.654-3.699-1.672c0.002,0.002,0.003,0.003,0.004,0.005
		l-10.435,13.029c-1.719,2.146-5.375,3.902-8.125,3.902h-5.403l-46.231,46.531c-1.163,1.17-0.788,2.38,0.833,2.688l17.252,3.272
		c0.094,0.017,0.186,0.054,0.278,0.08l67.398-67.835H219.442z"/>
</g>
<path style="fill:#C73627;" d="M214.442,362.435v-29.45c0-1.282,0.503-2.444,1.304-3.332l-10.433-13.026
	c-1.72-2.147-5.376-3.902-8.126-3.902h-46.041c-2.75,0-5,2.25-5,5v59.976c0,2.75,2.25,5,5,5h46.041c2.75,0,6.406-1.756,8.125-3.902
	l10.435-13.029C214.945,364.88,214.442,363.718,214.442,362.435z"/>
<g style="opacity:0.1;">
	<path style="fill:#231F20;" d="M167,377.699v-59.976c0-2.75,2.25-5,5-5h-20.854c-2.75,0-5,2.25-5,5v59.976c0,2.75,2.25,5,5,5H172
		C169.25,382.699,167,380.449,167,377.699z"/>
</g>
<path style="fill:#C73627;" d="M340.852,312.724h-46.038c-2.75,0-6.406,1.756-8.126,3.902l-10.434,13.029
	c0.8,0.887,1.302,2.048,1.302,3.329v29.45c0,1.282-0.503,2.444-1.304,3.331l10.435,13.031c1.72,2.146,5.376,3.902,8.126,3.902
	h46.038c2.75,0,5-2.25,5-5v-59.976C345.852,314.974,343.602,312.724,340.852,312.724z"/>
<path style="fill:#FB8276;" d="M277.556,362.435c0,2.75-2.25,5-5,5h-53.113c-2.75,0-5-2.25-5-5v-29.45c0-2.75,2.25-5,5-5h53.113
	c2.75,0,5,2.25,5,5V362.435z"/>
<g style="opacity:0.1;">
	<path style="fill:#231F20;" d="M232.887,362.435v-29.45c0-2.75,2.25-5,5-5h-18.444c-2.75,0-5,2.25-5,5v29.45c0,2.75,2.25,5,5,5
		h18.444C235.137,367.435,232.887,365.185,232.887,362.435z"/>
</g>
<g>
	<circle style="fill:#B1E8FF;" cx="115.7" cy="247.3" r="16.702"/>
	<circle style="fill:#B1E8FF;" cx="384.3" cy="74.7" r="16.702"/>
	<circle style="fill:#B1E8FF;" cx="396.3" cy="319.3" r="16.702"/>
</g>
<path d="M325.15,258.29c4.029,0.977,8.079-1.503,9.051-5.529l17.994-74.485h15.049c6.893,0,12.5-5.607,12.5-12.5v-14.151
	c0-6.893-5.607-12.5-12.5-12.5H355l-44.05-51.684C307.718,83.648,301.981,81,297,81h-13.199l-8.78-26.943
	c3.666-5.515,5.808-12.125,5.808-19.227C280.828,15.624,265.204,0,246,0c-19.205,0-34.829,15.624-34.829,34.829
	c0,7.103,2.143,13.714,5.809,19.228L208.2,81H195c-4.981,0-10.718,2.648-13.951,6.44l-44.048,51.684h-12.245
	c-6.893,0-12.5,5.607-12.5,12.5v14.151c0,6.893,5.607,12.5,12.5,12.5h15.049l30.668,126.948h-19.326c-6.893,0-12.5,5.607-12.5,12.5
	v59.976c0,6.893,5.607,12.5,12.5,12.5h22.613l-33.525,33.743c-2.538,2.553-3.462,5.982-2.474,9.174
	c0.989,3.192,3.691,5.499,7.228,6.171l15.167,2.876l2.866,15.313c0.665,3.551,2.974,6.26,6.176,7.246
	c0.837,0.257,1.688,0.384,2.537,0.383c2.397,0,4.763-1.008,6.645-2.901l11.841-11.916c2.919-2.938,2.904-7.687-0.034-10.606
	c-2.936-2.917-7.685-2.905-10.606,0.034l-3.89,3.914l-1.182-6.313c-0.866-4.622-4.849-8.615-9.474-9.496l-6.318-1.197l36.189-36.424
	h2.282c5.065,0,10.814-2.761,13.979-6.714l6.848-8.551h25.93l-39.523,39.779c-2.92,2.938-2.904,7.688,0.034,10.606
	c2.938,2.921,7.686,2.904,10.606-0.034l1.591-1.601V499.5c0,6.893,5.607,12.5,12.5,12.5h33.697c6.893,0,12.5-5.607,12.5-12.5
	v-68.781l38.271,38.52c1.857,1.867,4.22,2.895,6.654,2.895c4.283,0,7.861-3.136,8.702-7.625l2.865-15.311l15.166-2.877
	c3.538-0.669,6.24-2.975,7.23-6.167c0.99-3.193,0.065-6.623-2.471-9.175L311.248,390.2h29.603c6.893,0,12.5-5.607,12.5-12.5v-59.976
	c0-6.893-5.607-12.5-12.5-12.5h-19.322l2.286-9.463c0.973-4.025-1.503-8.078-5.529-9.051c-4.027-0.975-8.079,1.503-9.051,5.529
	l-3.138,12.984h-11.284c-5.065,0-10.813,2.761-13.98,6.714l-3.23,4.034l4.517-50.665c5.459-7.424,8.705-16.568,8.705-26.469
	c0-7.075-1.654-13.77-4.586-19.726l3.641-40.837h46.885l-17.143,70.964C318.648,253.266,321.124,257.317,325.15,258.29z M246,15
	c10.934,0,19.828,8.896,19.828,19.829S256.934,54.657,246,54.657s-19.829-8.895-19.829-19.828S235.066,15,246,15z M229.102,65.27
	c5.009,2.791,10.77,4.388,16.898,4.388s11.89-1.597,16.898-4.389L268.024,81h-44.049L229.102,65.27z M192.448,97.189
	c0.452-0.477,1.92-1.155,2.552-1.189h101.976c0.656,0.034,2.124,0.713,2.56,1.171l35.756,41.953H319
	c-4.13,0-7.477,3.337-7.498,7.462h-29.003c-0.02-4.125-3.368-7.462-7.498-7.462H156.71L192.448,97.189z M179.706,355.21h27.236
	v7.225c0,0.759,0.031,1.499,0.087,2.221l-7.548,9.426c-0.411,0.447-1.704,1.069-2.319,1.118h-43.516v-54.976l43.505-0.001
	c0.61,0.042,1.918,0.67,2.309,1.092l7.672,9.579c-0.116,0.682-0.189,1.377-0.189,2.091v7.226h-27.236c-4.143,0-7.5,3.357-7.5,7.5
	C172.206,351.853,175.564,355.21,179.706,355.21z M211.167,311.936c-3.167-3.952-8.915-6.713-13.98-6.713h-11.283l-30.668-126.948
	h46.887l3.641,40.834c-2.934,5.957-4.588,12.652-4.588,19.729c0,9.902,3.247,19.048,8.707,26.472l4.517,50.663L211.167,311.936z
	 M216.176,238.838c0-16.445,13.379-29.824,29.824-29.824s29.824,13.379,29.824,29.824c0,10.758-5.727,20.203-14.291,25.449h-31.066
	C221.902,259.041,216.176,249.596,216.176,238.838z M217.183,178.275h57.637l-2.188,24.534c-7.451-5.523-16.666-8.796-26.632-8.796
	c-9.965,0-19.179,3.272-26.63,8.795L217.183,178.275z M231.791,284.294v-5.007h28.418v5.007H231.791z M238.5,299.294v20.965h-8.658
	l-1.876-21.037c0.436,0.046,0.878,0.072,1.325,0.072H238.5z M253.5,299.294h9.209c0.448,0,0.891-0.026,1.327-0.072l-1.876,21.037
	h-8.66L253.5,299.294L253.5,299.294z M221.942,359.935v-24.45h48.113v24.45H221.942z M231.651,408.588l10.855-10.926l12.551,12.632
	l-23.405,23.405L231.651,408.588L231.651,408.588z M260.349,497h-26.872l26.872-26.872V497z M260.349,448.913l-28.697,28.697
	v-22.696l28.697-28.697V448.913z M292.518,321.343c0.414-0.45,1.722-1.078,2.296-1.119h43.538V375.2H294.85
	c-0.61-0.042-1.918-0.67-2.308-1.092l-7.466-9.323c-0.009-0.762-0.021-1.547-0.021-2.351v-7.225h26.987c4.142,0,7.5-3.357,7.5-7.5
	s-3.358-7.5-7.5-7.5h-26.987v-7.226c0-0.713-0.073-1.407-0.189-2.088L292.518,321.343z M280.834,383.486
	c1.988,2.482,4.995,4.492,8.211,5.647l44.238,44.523l-6.322,1.199c-4.622,0.877-8.606,4.87-9.473,9.495l-1.181,6.311l-63.228-63.64
	l10.392-10.459c0.499-0.502,0.936-1.05,1.314-1.628h9.2L280.834,383.486z M127.256,163.275v-9.151H275c4.143,0,7.5-3.357,7.5-7.5
	h28.999c0,4.143,3.357,7.5,7.5,7.5h45.745v9.151H127.256z"/>
<path d="M246,260.872c12.149,0,22.033-9.885,22.033-22.034s-9.884-22.034-22.033-22.034s-22.033,9.885-22.033,22.034
	S233.851,260.872,246,260.872z M246,231.804c3.878,0,7.033,3.155,7.033,7.034s-3.155,7.034-7.033,7.034s-7.033-3.155-7.033-7.034
	S242.122,231.804,246,231.804z"/>
<path d="M115.701,223.097c-13.345,0-24.201,10.857-24.201,24.202c0,13.345,10.856,24.201,24.201,24.201s24.202-10.856,24.202-24.201
	C139.903,233.954,129.046,223.097,115.701,223.097z M115.701,256.5c-5.073,0-9.201-4.128-9.201-9.201
	c0-5.074,4.128-9.202,9.201-9.202c5.074,0,9.202,4.128,9.202,9.202C124.903,252.372,120.775,256.5,115.701,256.5z"/>
<path d="M384.298,98.903c13.345,0,24.202-10.856,24.202-24.201S397.643,50.5,384.298,50.5s-24.201,10.857-24.201,24.202
	C360.097,88.047,370.953,98.903,384.298,98.903z M384.298,65.5c5.074,0,9.202,4.128,9.202,9.202c0,5.073-4.128,9.201-9.202,9.201
	c-5.073,0-9.201-4.128-9.201-9.201C375.097,69.628,379.225,65.5,384.298,65.5z"/>
<path d="M396.298,295.097c-13.345,0-24.201,10.857-24.201,24.202s10.856,24.201,24.201,24.201s24.202-10.856,24.202-24.201
	C420.5,305.954,409.643,295.097,396.298,295.097z M396.298,328.5c-5.073,0-9.201-4.128-9.201-9.201c0-5.074,4.128-9.202,9.201-9.202
	c5.074,0,9.202,4.128,9.202,9.202C405.5,324.372,401.372,328.5,396.298,328.5z"/>
<g>
</g>
<g>
</g>
<g>
</g>
<g>
</g>
<g>
</g>
<g>
</g>
<g>
</g>
<g>
</g>
<g>
</g>
<g>
</g>
<g>
</g>
<g>
</g>
<g>
</g>
<g>
</g>
<g>
</g>
</svg>
