<?xml version="1.0" encoding="iso-8859-1"?>
<!-- Generator: Adobe Illustrator 19.0.0, SVG Export Plug-In . SVG Version: 6.00 Build 0)  -->
<svg version="1.1" id="Capa_1" xmlns="http://www.w3.org/2000/svg" xmlns:xlink="http://www.w3.org/1999/xlink" x="0px" y="0px"
	 viewBox="0 0 512.002 512.002" style="enable-background:new 0 0 512.002 512.002;" xml:space="preserve">
<path style="fill:#48AEF9;" d="M373.372,420.581H8.877c-4.903,0-8.877,4.034-8.877,9.011v73.396C0,507.965,3.974,512,8.877,512
	h192.817C225.171,470.439,289.502,436.647,373.372,420.581z"/>
<path style="fill:#3997EE;" d="M20.299,502.989v-73.396c0-4.977,3.974-9.011,8.877-9.011H8.877c-4.903,0-8.877,4.034-8.877,9.011
	v73.396C0,507.965,3.974,512,8.877,512h20.299C24.273,512,20.299,507.965,20.299,502.989z"/>
<path style="fill:#A4D9F4;" d="M261.498,458.564c-74.833,0-164.55,0-169.61,0c-4.204,0-7.612,3.459-7.612,7.727
	c0,4.268,3.408,7.727,7.612,7.727c11.873,0,80.441,0,145.269,0C244.5,468.595,252.642,463.433,261.498,458.564z"/>
<path style="fill:#C0CDCE;" d="M449.77,414.72l-27.2-259.389c-6.764,0-57.171,0-63.937,0L329.39,434.183
	C365.186,423.771,406.033,416.935,449.77,414.72z"/>
<path style="fill:#AFBCBC;" d="M379.156,155.331h-20.524L329.39,434.183c6.855-1.994,13.899-3.854,21.11-5.579L379.156,155.331z"/>
<polygon style="fill:#FF788F;" points="437.519,297.891 348.131,255.468 345.818,277.53 440.075,322.265 "/>
<path style="fill:#FC5B6F;" d="M365.369,286.809l2.314-22.062l-19.552-9.279c-0.51,4.861-1.804,17.204-2.313,22.062L365.369,286.809
	z"/>
<polygon style="fill:#FF788F;" points="445.18,370.958 341.196,321.606 338.882,343.668 447.736,395.331 "/>
<polygon style="fill:#FC5B6F;" points="338.882,343.668 358.434,352.947 360.747,330.885 341.196,321.606 "/>
<polygon style="fill:#FF788F;" points="352.753,211.392 432.413,249.199 429.857,224.825 355.067,189.329 "/>
<polygon style="fill:#FC5B6F;" points="352.753,211.392 372.305,220.671 374.618,198.608 355.067,189.329 "/>
<path style="fill:#FF788F;" d="M331.535,413.73l27.314,12.963c11.35-2.502,23.085-4.672,35.165-6.471l-60.165-28.555L331.535,413.73
	z"/>
<path style="fill:#FC5B6F;" d="M351.087,423.01l2.313-22.062l-19.551-9.279c-1.87,17.835-0.442,4.217-2.314,22.062L351.087,423.01z"
	/>
<path style="fill:#C0CDCE;" d="M390.224,53.732h-1.353c-6.698,0-12.179,5.563-12.179,12.363v3.091v9.282v3.091h25.712v-3.091v-9.282
	v-3.091C402.403,59.295,396.923,53.732,390.224,53.732z"/>
<path style="fill:#AFBCBC;" d="M390.301,69.185v-3.091c0-4.533,2.443-8.506,6.051-10.658c-1.804-1.076-3.895-1.705-6.128-1.705
	h-1.353c-6.698,0-12.179,5.563-12.179,12.363v3.091v9.282v3.091h13.609v-3.091L390.301,69.185L390.301,69.185z"/>
<path style="fill:#FAC149;" d="M366.753,109.123l0.304-0.092h-0.608L6.537,0.225C3.292-0.756,0.001,1.608,0.001,4.92
	c0,6.01,0,209.442,0,208.406c0,3.312,3.292,5.677,6.537,4.695L366.45,109.215h0.608L366.753,109.123z"/>
<g>
	<path style="fill:#F8A748;" d="M366.45,109.031L330.952,98.3L6.537,196.375C3.292,197.356,0,194.992,0,191.68v21.647
		c0,3.312,3.291,5.677,6.537,4.695L366.45,109.215h0.608l-0.304-0.092l0.304-0.092C367.058,109.031,366.45,109.031,366.45,109.031z"
		/>
	<path style="fill:#F8A748;" d="M366.753,109.031l0.304-0.046c-0.94,0-361.45-54.544-360.52-54.403C3.292,54.091,0,55.274,0,56.93
		c0,2.85,0,105.804,0,104.203c0,1.656,3.292,2.838,6.537,2.348c2.985-0.451,359.581-54.403,360.52-54.403L366.753,109.031z"/>
</g>
<path style="fill:#E0962B;" d="M296.44,98.403L6.537,142.223C3.292,142.714,0,141.531,0,139.875v21.257
	c0,1.656,3.291,2.838,6.537,2.348c2.991-0.452,359.579-54.403,360.52-54.403l-0.304-0.046l0.304-0.046
	C366.114,108.985,370.882,109.655,296.44,98.403z"/>
<path style="fill:#FAC149;" d="M512,86.552c0-3.287-3.405-5.634-6.762-4.66l-93.582,27.142h-0.618l0.309,0.09l-0.309,0.09h0.618
	l94.048,27.277c3.126,0.907,6.297-1.278,6.297-4.339v-45.6H512z"/>
<path style="fill:#F8A748;" d="M505.704,115.885l-58.835-17.064l-35.212,10.213h-0.618l0.309,0.09l-0.309,0.09h0.618l94.048,27.277
	c3.126,0.907,6.297-1.278,6.297-4.339v-20.605C512,114.606,508.83,116.791,505.704,115.885z"/>
<path style="fill:#FC5B6F;" d="M406.801,78.467h-34.508c-6.698,0-12.179,5.563-12.179,12.363v3.091c0,60.087,0,31.626,0,40.523
	h58.866c0-10.652,0,18.68,0-40.523V90.83C418.98,84.03,413.5,78.467,406.801,78.467z"/>
<g>
	<path style="fill:#F74352;" d="M379.156,90.83c0-6.8,5.481-12.363,12.179-12.363h-19.042c-6.698,0-12.179,5.563-12.179,12.363
		v3.091c0,60.087,0,31.626,0,40.523h19.042C379.156,116.619,379.156,108.664,379.156,90.83z"/>
	<path style="fill:#F74352;" d="M389.707,139.08c-4.204,0-7.612-3.459-7.612-7.727v-22.322c0-4.267,3.408-7.727,7.612-7.727
		s7.612,3.459,7.612,7.727v22.322C397.319,135.62,393.91,139.08,389.707,139.08z"/>
</g>
<path style="fill:#FFCE9B;" d="M512,506.229v-90.626c0-2.454-1.899-4.483-4.314-4.586c-8.829-0.377-17.77-0.574-26.81-0.574
	c-135.372,0-249.205,43.1-282.226,101.558h307.665C509.455,512,512,509.416,512,506.229z"/>
<path style="fill:#FFB181;" d="M501.18,410.772c-6.708-0.217-13.477-0.33-20.303-0.33c-135.372,0-249.205,43.1-282.227,101.558
	h40.597C270.604,456.488,374.835,414.831,501.18,410.772z"/>
<path style="fill:#5C6168;" d="M428.075,157.453h-76.737c-6.6,0-12-5.4-12-12v-2.1c0-6.6,5.4-12,12-12h76.737c6.6,0,12,5.4,12,12
	v2.1C440.075,152.053,434.675,157.453,428.075,157.453z"/>
<path style="fill:#4F5256;" d="M427.895,144.403h-76.378c-4.622,0-8.662-2.649-10.724-6.525c-1.595,2.998-1.455,5.463-1.455,7.212
	c0,6.8,5.481,12.363,12.179,12.363h76.378c6.699,0,12.179-5.563,12.179-12.363v-1.374c0-2.108-0.529-4.097-1.455-5.838
	C436.557,141.753,432.517,144.403,427.895,144.403z"/>
<path style="fill:#A4D9F4;" d="M37.664,474.017h19.952c4.204,0,7.612-3.459,7.612-7.727s-3.408-7.727-7.612-7.727H37.664
	c-4.204,0-7.612,3.459-7.612,7.727S33.459,474.017,37.664,474.017z"/>
<g>
</g>
<g>
</g>
<g>
</g>
<g>
</g>
<g>
</g>
<g>
</g>
<g>
</g>
<g>
</g>
<g>
</g>
<g>
</g>
<g>
</g>
<g>
</g>
<g>
</g>
<g>
</g>
<g>
</g>
</svg>
