<svg xmlns="http://www.w3.org/2000/svg" height="591pt" version="1.1" viewBox="1 -20 591.6 591" width="591pt">
<g id="surface1">
<path d="M 571.585938 0.3125 L 20.414062 0.3125 C 9.136719 0.3125 0 9.449219 0 20.726562 L 0 347.347656 L 592 347.347656 L 592 20.726562 C 592 9.449219 582.863281 0.3125 571.585938 0.3125 Z M 571.585938 0.3125 " style=" stroke:none;fill-rule:nonzero;fill:rgb(26.27451%,59.607843%,81.960784%);fill-opacity:1;" />
<path d="M 571.585938 0.3125 L 466.117188 0.3125 L 119.082031 347.347656 L 592 347.347656 L 592 20.726562 C 592 9.449219 582.863281 0.3125 571.585938 0.3125 Z M 571.585938 0.3125 " style=" stroke:none;fill-rule:nonzero;fill:rgb(24.313725%,54.901961%,78.039216%);fill-opacity:1;" />
<path d="M 244.964844 408.589844 L 347.035156 408.589844 L 347.035156 510.660156 L 244.964844 510.660156 Z M 244.964844 408.589844 " style=" stroke:none;fill-rule:nonzero;fill:rgb(33.333333%,39.607843%,45.882353%);fill-opacity:1;" />
<path d="M 244.964844 408.589844 L 347.035156 408.589844 L 347.035156 439.210938 L 244.964844 439.210938 Z M 244.964844 408.589844 " style=" stroke:none;fill-rule:nonzero;fill:rgb(25.098039%,31.764706%,38.039216%);fill-opacity:1;" />
<path d="M 132.691406 510.660156 L 459.308594 510.660156 L 459.308594 551.484375 L 132.691406 551.484375 Z M 132.691406 510.660156 " style=" stroke:none;fill-rule:nonzero;fill:rgb(33.333333%,39.607843%,45.882353%);fill-opacity:1;" />
<path d="M 0 388.175781 C 0 399.453125 9.136719 408.589844 20.414062 408.589844 L 571.585938 408.589844 C 582.863281 408.589844 592 399.453125 592 388.175781 L 592 347.347656 L 0 347.347656 Z M 0 388.175781 " style=" stroke:none;fill-rule:nonzero;fill:rgb(33.333333%,39.607843%,45.882353%);fill-opacity:1;" />
<path d="M 530.757812 377.96875 L 551.171875 377.96875 L 551.171875 408.589844 L 530.757812 408.589844 Z M 530.757812 377.96875 " style=" stroke:none;fill-rule:nonzero;fill:rgb(87.058824%,29.803922%,23.529412%);fill-opacity:1;" />
<path d="M 489.929688 377.96875 L 510.34375 377.96875 L 510.34375 408.589844 L 489.929688 408.589844 Z M 489.929688 377.96875 " style=" stroke:none;fill-rule:nonzero;fill:rgb(53.333333%,70.196078%,21.568627%);fill-opacity:1;" />
<path d="M 51.035156 81.96875 L 30.621094 81.96875 L 30.621094 51.347656 C 30.621094 40.070312 39.757812 30.933594 51.035156 30.933594 L 81.65625 30.933594 L 81.65625 51.347656 L 51.035156 51.347656 Z M 51.035156 81.96875 " style=" stroke:none;fill-rule:nonzero;fill:rgb(36.862745%,70.196078%,81.960784%);fill-opacity:1;" />
</g>
</svg>