<?xml version="1.0" encoding="iso-8859-1"?>
<!-- Generator: Adobe Illustrator 19.0.0, SVG Export Plug-In . SVG Version: 6.00 Build 0)  -->
<svg version="1.1" id="Capa_1" xmlns="http://www.w3.org/2000/svg" xmlns:xlink="http://www.w3.org/1999/xlink" x="0px" y="0px"
	 viewBox="0 0 512 512" style="enable-background:new 0 0 512 512;" xml:space="preserve">
<path style="fill:#F3D064;" d="M452.804,195.24l-13.446-3.369l-184.202-46.125L88.648,104.043
	c-6.728-1.685-13.539,2.398-15.224,9.126l-8.165,32.576l-26.406,105.47l-22.572,90.132c-1.685,6.728,2.398,13.539,9.126,15.224
	l13.446,3.369l184.202,46.136l166.509,41.692c6.718,1.685,13.539-2.398,15.224-9.126l8.154-32.566l26.416-105.47l22.572-90.143
	C463.615,203.746,459.533,196.925,452.804,195.24z"/>
<path style="fill:#F4F5F5;" d="M439.358,158.292v235.226c0,6.935-5.622,12.557-12.557,12.557H51.4
	c-6.925,0-12.547-5.622-12.547-12.557V158.292c0-6.935,5.622-12.547,12.547-12.547h375.401
	C433.736,145.745,439.358,151.357,439.358,158.292z"/>
<path style="fill:#E8E9E9;" d="M181.426,393.519V158.292c0-6.935,5.622-12.547,12.547-12.547H51.4
	c-6.925,0-12.547,5.612-12.547,12.547v235.226c0,6.935,5.622,12.557,12.547,12.557h142.572
	C187.048,406.076,181.426,400.453,181.426,393.519z"/>
<path style="fill:#FF395E;" d="M426.75,145.649H51.348c-6.925,0-12.547,5.612-12.547,12.547v35.973h400.505v-35.973
	C439.307,151.261,433.684,145.649,426.75,145.649z"/>
<path style="fill:#B12E65;" d="M193.971,145.745H51.4c-6.925,0-12.547,5.612-12.547,12.547v35.876h142.572v-35.876
	C181.426,151.357,187.048,145.745,193.971,145.745z"/>
<circle style="fill:#842D65;" cx="71.113" cy="170.219" r="8.34"/>
<circle style="fill:#EAB430;" cx="101.149" cy="170.219" r="8.34"/>
<circle style="fill:#C5D65C;" cx="131.193" cy="170.219" r="8.34"/>
<path style="fill:#7CA1D8;" d="M496.098,11.937v85.151c0,6.594-5.343,11.937-11.937,11.937H376.376l-27.233,51.799
	c-1.116,2.139-4.351,1.344-4.351-1.065v-50.735V82.691V11.937C344.792,5.343,350.136,0,356.74,0h127.421
	C490.755,0,496.098,5.343,496.098,11.937z"/>
<circle style="fill:#DFDE48;" cx="122.481" cy="406.582" r="27.905"/>
<path style="fill:#F4F5F5;" d="M164.859,476.861v29.814c0,2.941-2.384,5.326-5.326,5.326H85.436c-2.941,0-5.326-2.384-5.326-5.326
	v-29.063c0-23.47,19.202-43.284,42.67-43.123c11.581,0.08,22.061,4.808,29.665,12.411
	C160.115,454.568,164.859,465.161,164.859,476.861z"/>
<path style="fill:#C5D65C;" d="M122.485,406.582c0-10.326,5.614-19.335,13.952-24.161c-4.105-2.376-8.869-3.743-13.952-3.743
	c-15.41,0-27.905,12.495-27.905,27.905s12.495,27.905,27.905,27.905c5.084,0,9.847-1.367,13.952-3.743
	C128.099,425.917,122.485,416.908,122.485,406.582z"/>
<path style="fill:#E8E9E9;" d="M108.016,506.674v-29.063c0-18.53,11.972-34.771,28.56-40.713c-4.321-1.524-8.959-2.378-13.794-2.411
	c-23.469-0.161-42.67,19.653-42.67,43.123v29.063c0,2.941,2.384,5.326,5.326,5.326h27.905
	C110.4,512,108.016,509.616,108.016,506.674z"/>
<path style="fill:#7CA1D8;" d="M162.792,246.905H79.077c-4.281,0-7.751-3.471-7.751-7.751c0-4.281,3.471-7.751,7.751-7.751h83.714
	c4.281,0,7.751,3.471,7.751,7.751C170.543,243.435,167.072,246.905,162.792,246.905z"/>
<path style="fill:#EAB430;" d="M324.019,246.905H196.897c-4.281,0-7.751-3.471-7.751-7.751c0-4.281,3.471-7.751,7.751-7.751h127.122
	c4.282,0,7.751,3.471,7.751,7.751C331.77,243.435,328.3,246.905,324.019,246.905z"/>
<path style="fill:#C5D65C;" d="M196.897,284.111h-68.212c-4.281,0-7.751-3.471-7.751-7.751s3.471-7.751,7.751-7.751h68.212
	c4.281,0,7.751,3.471,7.751,7.751S201.178,284.111,196.897,284.111z"/>
<path style="fill:#FF395E;" d="M286.813,284.111h-64.078c-4.281,0-7.751-3.471-7.751-7.751s3.471-7.751,7.751-7.751h64.078
	c4.282,0,7.751,3.471,7.751,7.751S291.093,284.111,286.813,284.111z"/>
<path style="fill:#EAB430;" d="M182.428,320.284h-21.704c-4.281,0-7.751-3.471-7.751-7.751s3.471-7.751,7.751-7.751h21.704
	c4.281,0,7.751,3.471,7.751,7.751S186.709,320.284,182.428,320.284z"/>
<path style="fill:#C5D65C;" d="M324.019,320.284h-117.82c-4.281,0-7.751-3.471-7.751-7.751s3.471-7.751,7.751-7.751h117.82
	c4.282,0,7.751,3.471,7.751,7.751S328.3,320.284,324.019,320.284z"/>
<path style="fill:#FF395E;" d="M150.389,356.457h-21.704c-4.281,0-7.751-3.471-7.751-7.751s3.471-7.751,7.751-7.751h21.704
	c4.281,0,7.751,3.471,7.751,7.751S154.67,356.457,150.389,356.457z"/>
<path style="fill:#7CA1D8;" d="M291.98,356.457H174.16c-4.281,0-7.751-3.471-7.751-7.751s3.471-7.751,7.751-7.751h117.82
	c4.282,0,7.751,3.471,7.751,7.751S296.261,356.457,291.98,356.457z"/>
<g>
</g>
<g>
</g>
<g>
</g>
<g>
</g>
<g>
</g>
<g>
</g>
<g>
</g>
<g>
</g>
<g>
</g>
<g>
</g>
<g>
</g>
<g>
</g>
<g>
</g>
<g>
</g>
<g>
</g>
</svg>
