<?xml version="1.0" encoding="iso-8859-1"?>
<!-- Generator: Adobe Illustrator 19.0.0, SVG Export Plug-In . SVG Version: 6.00 Build 0)  -->
<svg version="1.1" id="Capa_1" xmlns="http://www.w3.org/2000/svg" xmlns:xlink="http://www.w3.org/1999/xlink" x="0px" y="0px"
	 viewBox="0 0 512 512" style="enable-background:new 0 0 512 512;" xml:space="preserve">
<rect x="205.782" y="205.782" style="fill:#FA3F68;" width="306.218" height="306.218"/>
<g>
	<path style="fill:#E02F5E;" d="M512,275.55v15.673H368.118c-4.326,0-7.837-3.511-7.837-7.837s3.511-7.837,7.837-7.837H512z"/>
	<path style="fill:#E02F5E;" d="M512,353.144v15.673H338.599c-4.326,0-7.837-3.511-7.837-7.837c0-4.326,3.511-7.837,7.837-7.837H512
		z"/>
	<rect x="205.782" y="432.839" style="fill:#E02F5E;" width="306.218" height="15.673"/>
</g>
<rect x="103.957" y="103.967" style="fill:#FCB65F;" width="306.218" height="306.207"/>
<path style="fill:#E29A4B;" d="M410.175,286.804v15.673H264.903v107.698h-15.673V302.477h-18.756c-4.336,0-7.837-3.511-7.837-7.837
	s3.5-7.837,7.837-7.837h18.756v-29.738c0-4.326,3.511-7.837,7.837-7.837c4.326,0,7.837,3.511,7.837,7.837v29.738H410.175z"/>
<rect style="fill:#E5E9EA;" width="306.207" height="306.218"/>
<polygon style="fill:#D1D1D1;" points="306.207,104.699 306.207,89.025 112.922,89.025 112.922,0 97.249,0 97.249,306.218 
	112.922,306.218 112.922,217.192 306.207,217.192 306.207,201.519 112.922,201.519 112.922,104.699 "/>
<g>
</g>
<g>
</g>
<g>
</g>
<g>
</g>
<g>
</g>
<g>
</g>
<g>
</g>
<g>
</g>
<g>
</g>
<g>
</g>
<g>
</g>
<g>
</g>
<g>
</g>
<g>
</g>
<g>
</g>
</svg>
