<?xml version="1.0" encoding="iso-8859-1"?>
<!-- Generator: Adobe Illustrator 19.0.0, SVG Export Plug-In . SVG Version: 6.00 Build 0)  -->
<svg version="1.1" id="Capa_1" xmlns="http://www.w3.org/2000/svg" xmlns:xlink="http://www.w3.org/1999/xlink" x="0px" y="0px"
	 viewBox="0 0 512 512" style="enable-background:new 0 0 512 512;" xml:space="preserve">
<path style="fill:#E1E4FB;" d="M151,0v391h330V0H151z"/>
<rect x="316" style="fill:#C5C9F7;" width="165" height="391"/>
<path style="fill:#7C75DA;" d="M91,61v390h330V61H91z"/>
<rect x="256" y="61" style="fill:#6E67D6;" width="165" height="390"/>
<path style="fill:#E1E4FB;" d="M31,121v391h330V121H31z"/>
<rect x="196" y="121" style="fill:#C5C9F7;" width="165" height="391"/>
<rect x="91" y="181" style="fill:#57555C;" width="30" height="30"/>
<rect x="271" y="421" style="fill:#3C3A41;" width="30" height="30"/>
<path style="fill:#57555C;" d="M233.2,370c29.399,0,52.2-24.3,52.2-55.499c0-35.4-32.999-60.3-60.3-83.401
	c-14.1-11.999-15.001-12.6-29.1-24.899c-14.099,11.999-15,13.2-29.099,24.899c-35.101,29.401-60.3,51-60.3,83.401
	c0,31.199,22.8,55.499,52.2,55.499c8.399,0,15.899-2.1,22.2-5.4V391h-30v30h90v-30h-30v-26.4C217.301,367.899,224.801,370,233.2,370
	z"/>
<path style="fill:#3C3A41;" d="M211,364.6V391h30v30h-45V206.201c14.099,12.299,15,12.9,29.099,24.899
	c27.301,23.101,60.3,48.001,60.3,83.401c0,31.199-22.8,55.499-52.2,55.499C224.801,370,217.301,367.899,211,364.6z"/>
<g>
</g>
<g>
</g>
<g>
</g>
<g>
</g>
<g>
</g>
<g>
</g>
<g>
</g>
<g>
</g>
<g>
</g>
<g>
</g>
<g>
</g>
<g>
</g>
<g>
</g>
<g>
</g>
<g>
</g>
</svg>
