<svg xmlns="http://www.w3.org/2000/svg" height="644pt" version="1.1" viewBox="0 0 644.22578 644" width="644pt">
<g id="surface1">
<path d="M 556.183594 0.113281 C 523.851562 0.113281 497.640625 26.324219 497.640625 58.65625 L 497.640625 527.015625 C 497.613281 559.347656 523.800781 585.582031 556.136719 585.605469 C 588.46875 585.632812 614.703125 559.445312 614.726562 527.109375 C 614.726562 527.078125 614.726562 527.046875 614.726562 527.015625 L 614.726562 58.65625 C 614.726562 26.324219 588.515625 0.113281 556.183594 0.113281 Z M 556.183594 0.113281 " style=" stroke:none;fill-rule:nonzero;fill:rgb(8.627451%,22.352941%,41.176471%);fill-opacity:1;" />
<path d="M 512.273438 263.5625 L 600.089844 263.5625 C 608.175781 263.5625 614.726562 270.117188 614.726562 278.199219 C 614.726562 286.28125 608.175781 292.835938 600.089844 292.835938 L 512.273438 292.835938 C 504.191406 292.835938 497.640625 286.28125 497.640625 278.199219 C 497.640625 270.117188 504.191406 263.5625 512.273438 263.5625 Z M 512.273438 263.5625 " style=" stroke:none;fill-rule:nonzero;fill:rgb(0%,15.294118%,33.333333%);fill-opacity:1;" />
<path d="M 351.277344 58.65625 C 351.277344 26.324219 325.066406 0.113281 292.734375 0.113281 L 217.839844 0.113281 C 192.640625 0.113281 170.269531 16.238281 162.300781 40.144531 L 117.097656 175.746094 L 234.1875 175.746094 L 273.21875 58.65625 Z M 351.277344 58.65625 " style=" stroke:none;fill-rule:nonzero;fill:rgb(100%,74.509804%,0%);fill-opacity:1;" />
<path d="M 292.734375 0.113281 C 325.066406 0.113281 351.277344 26.324219 351.277344 58.65625 L 263.460938 87.929688 Z M 292.734375 0.113281 " style=" stroke:none;fill-rule:nonzero;fill:rgb(8.627451%,22.352941%,41.176471%);fill-opacity:1;" />
<path d="M 497.640625 175.746094 L 614.726562 175.746094 C 630.894531 175.746094 644 188.851562 644 205.019531 L 644 234.292969 C 644 250.457031 630.894531 263.5625 614.726562 263.5625 L 497.640625 263.5625 C 481.472656 263.5625 468.367188 250.457031 468.367188 234.292969 L 468.367188 205.019531 C 468.367188 188.851562 481.472656 175.746094 497.640625 175.746094 Z M 497.640625 175.746094 " style=" stroke:none;fill-rule:nonzero;fill:rgb(26.27451%,36.862745%,53.333333%);fill-opacity:1;" />
<path d="M 483.003906 175.746094 L 600.089844 175.746094 C 608.175781 175.746094 614.726562 182.300781 614.726562 190.382812 C 614.726562 198.464844 608.175781 205.019531 600.089844 205.019531 L 483.003906 205.019531 C 474.917969 205.019531 468.367188 198.464844 468.367188 190.382812 C 468.367188 182.300781 474.917969 175.746094 483.003906 175.746094 Z M 483.003906 175.746094 " style=" stroke:none;fill-rule:nonzero;fill:rgb(49.019608%,56.078431%,67.45098%);fill-opacity:1;" />
<path d="M 614.726562 58.65625 C 614.726562 26.324219 588.515625 0.113281 556.183594 0.113281 L 481.289062 0.113281 C 456.089844 0.113281 433.71875 16.238281 425.75 40.144531 L 380.550781 175.746094 L 497.640625 175.746094 L 536.667969 58.65625 Z M 614.726562 58.65625 " style=" stroke:none;fill-rule:nonzero;fill:rgb(100%,74.509804%,0%);fill-opacity:1;" />
<path d="M 351.277344 29.386719 L 439.09375 29.386719 C 471.429688 29.386719 497.640625 55.597656 497.640625 87.929688 L 497.640625 117.203125 L 351.277344 117.203125 Z M 351.277344 29.386719 " style=" stroke:none;fill-rule:nonzero;fill:rgb(100%,63.921569%,0%);fill-opacity:1;" />
<path d="M 424.457031 58.65625 C 448.707031 58.65625 468.367188 78.316406 468.367188 102.566406 C 468.367188 126.816406 448.707031 146.476562 424.457031 146.476562 C 400.207031 146.476562 380.546875 126.816406 380.546875 102.566406 C 380.550781 78.316406 400.207031 58.65625 424.457031 58.65625 Z M 424.457031 58.65625 " style=" stroke:none;fill-rule:nonzero;fill:rgb(97.647059%,54.509804%,0%);fill-opacity:1;" />
<path d="M 613.996094 514.085938 L 546.046875 181.574219 C 534.910156 127.070312 486.960938 87.929688 431.332031 87.929688 L 183.40625 87.929688 C 127.777344 87.929688 79.828125 127.070312 68.6875 181.570312 L 0.726562 514.085938 C -6.414062 578.355469 39.898438 636.246094 104.167969 643.386719 C 108.460938 643.863281 112.78125 644.101562 117.097656 644.101562 L 497.625 644.101562 C 562.292969 644.101562 614.714844 591.679688 614.714844 527.015625 C 614.714844 522.695312 614.472656 518.378906 613.996094 514.085938 Z M 613.996094 514.085938 " style=" stroke:none;fill-rule:nonzero;fill:rgb(0%,36.862745%,93.333333%);fill-opacity:1;" />
<path d="M 526.910156 146.476562 C 543.929688 146.476562 558.585938 158.488281 561.921875 175.179688 L 621.035156 470.742188 C 631.433594 522.726562 597.71875 573.296875 545.734375 583.695312 C 539.539062 584.933594 533.234375 585.558594 526.910156 585.558594 C 473.898438 585.558594 430.921875 542.582031 430.921875 489.570312 C 430.921875 483.25 431.546875 476.941406 432.785156 470.742188 L 491.898438 175.179688 C 495.234375 158.488281 509.890625 146.476562 526.910156 146.476562 Z M 526.910156 146.476562 " style=" stroke:none;fill-rule:nonzero;fill:rgb(2.745098%,51.764706%,100%);fill-opacity:1;" />
<path d="M 370.101562 549.976562 L 439.09375 205.019531 C 439.09375 146.476562 409.820312 117.203125 351.277344 117.203125 L 106.375 117.203125 C 87.097656 133.949219 73.859375 156.566406 68.6875 181.570312 L 0.726562 514.085938 C -6.414062 578.355469 39.898438 636.246094 104.167969 643.386719 C 108.460938 643.863281 112.78125 644.101562 117.097656 644.101562 L 255.285156 644.101562 C 311.101562 644.101562 359.15625 604.707031 370.101562 549.976562 Z M 370.101562 549.976562 " style=" stroke:none;fill-rule:nonzero;fill:rgb(2.745098%,61.176471%,100%);fill-opacity:1;" />
<path d="M 87.828125 556.285156 L 292.734375 556.285156 C 308.898438 556.285156 322.003906 569.390625 322.003906 585.558594 C 322.003906 601.722656 308.898438 614.828125 292.734375 614.828125 L 87.828125 614.828125 C 71.660156 614.828125 58.554688 601.722656 58.554688 585.558594 C 58.554688 569.390625 71.660156 556.285156 87.828125 556.285156 Z M 87.828125 556.285156 " style=" stroke:none;fill-rule:nonzero;fill:rgb(36.078431%,74.509804%,100%);fill-opacity:1;" />
<path d="M 292.734375 497.742188 C 308.898438 497.742188 322.003906 510.847656 322.003906 527.015625 L 322.003906 556.289062 C 322.003906 572.453125 308.898438 585.558594 292.734375 585.558594 C 276.566406 585.558594 263.460938 572.453125 263.460938 556.289062 L 263.460938 527.015625 C 263.460938 510.847656 276.566406 497.742188 292.734375 497.742188 Z M 292.734375 497.742188 " style=" stroke:none;fill-rule:nonzero;fill:rgb(2.745098%,51.764706%,100%);fill-opacity:1;" />
<path d="M 87.828125 468.46875 L 292.734375 468.46875 C 308.898438 468.46875 322.003906 481.574219 322.003906 497.742188 C 322.003906 513.90625 308.898438 527.015625 292.734375 527.015625 L 87.828125 527.015625 C 71.660156 527.015625 58.554688 513.910156 58.554688 497.742188 C 58.554688 481.574219 71.660156 468.46875 87.828125 468.46875 Z M 87.828125 468.46875 " style=" stroke:none;fill-rule:nonzero;fill:rgb(2.745098%,51.764706%,100%);fill-opacity:1;" />
<path d="M 146.371094 263.5625 C 162.539062 263.5625 175.644531 276.667969 175.644531 292.835938 L 175.644531 351.378906 C 175.644531 367.546875 162.539062 380.652344 146.371094 380.652344 C 130.207031 380.652344 117.101562 367.546875 117.101562 351.378906 L 117.101562 292.835938 C 117.097656 276.667969 130.203125 263.5625 146.371094 263.5625 Z M 146.371094 263.5625 " style=" stroke:none;fill-rule:nonzero;fill:rgb(2.745098%,51.764706%,100%);fill-opacity:1;" />
<path d="M 292.734375 263.5625 C 308.898438 263.5625 322.003906 276.667969 322.003906 292.835938 L 322.003906 351.378906 C 322.003906 367.546875 308.898438 380.652344 292.734375 380.652344 C 276.566406 380.652344 263.460938 367.546875 263.460938 351.378906 L 263.460938 292.835938 C 263.460938 276.667969 276.566406 263.5625 292.734375 263.5625 Z M 292.734375 263.5625 " style=" stroke:none;fill-rule:nonzero;fill:rgb(2.745098%,51.764706%,100%);fill-opacity:1;" />
<path d="M 380.519531 87.929688 L 146.398438 87.929688 C 119.535156 87.929688 96.117188 106.214844 89.601562 132.277344 L 60.332031 249.363281 C 52.488281 280.734375 71.5625 312.519531 102.929688 320.359375 C 107.570312 321.519531 112.339844 322.109375 117.128906 322.109375 L 351.25 322.109375 C 378.113281 322.109375 401.53125 303.824219 408.042969 277.761719 L 437.316406 160.671875 C 445.160156 129.304688 426.089844 97.519531 394.71875 89.675781 C 390.074219 88.515625 385.308594 87.929688 380.519531 87.929688 Z M 380.519531 87.929688 " style=" stroke:none;fill-rule:nonzero;fill:rgb(2.745098%,51.764706%,100%);fill-opacity:1;" />
<path d="M 402.601562 29.386719 L 136.648438 29.386719 C 95.488281 29.386719 59.851562 57.972656 50.921875 98.152344 L 31.410156 185.96875 C 20.886719 233.3125 50.738281 280.222656 98.085938 290.746094 C 104.339844 292.132812 110.726562 292.835938 117.136719 292.835938 L 310.105469 292.835938 C 351.265625 292.835938 386.902344 264.25 395.832031 224.070312 L 431.179688 65.007812 C 434.683594 49.226562 424.734375 33.589844 408.953125 30.082031 C 406.867188 29.617188 404.738281 29.386719 402.601562 29.386719 Z M 402.601562 29.386719 " style=" stroke:none;fill-rule:nonzero;fill:rgb(100%,91.764706%,12.941176%);fill-opacity:1;" />
<path d="M 248.824219 263.5625 L 133.625 263.5625 C 125.539062 263.5625 118.988281 270.117188 118.988281 278.199219 C 118.988281 286.28125 125.539062 292.835938 133.625 292.835938 L 248.824219 292.835938 C 256.90625 292.835938 263.460938 286.28125 263.460938 278.199219 C 263.460938 270.117188 256.90625 263.5625 248.824219 263.5625 Z M 419.644531 35.113281 C 412.789062 35.125 406.859375 39.886719 405.371094 46.578125 L 367.253906 217.71875 C 361.421875 244.578125 337.589844 263.695312 310.105469 263.5625 L 221.441406 263.5625 C 213.355469 263.5625 206.804688 270.117188 206.804688 278.199219 C 206.804688 286.28125 213.355469 292.835938 221.441406 292.835938 L 310.105469 292.835938 C 351.265625 292.835938 386.902344 264.25 395.832031 224.070312 L 433.945312 52.929688 C 435.695312 45.027344 430.707031 37.207031 422.808594 35.460938 C 421.769531 35.230469 420.707031 35.113281 419.644531 35.113281 Z M 419.644531 35.113281 " style=" stroke:none;fill-rule:nonzero;fill:rgb(100%,74.509804%,0%);fill-opacity:1;" />
<path d="M 117.097656 58.65625 L 351.277344 58.65625 C 367.445312 58.65625 380.546875 71.761719 380.546875 87.929688 C 380.546875 104.09375 367.445312 117.199219 351.277344 117.199219 L 117.097656 117.199219 C 100.933594 117.199219 87.828125 104.09375 87.828125 87.929688 C 87.828125 71.761719 100.933594 58.65625 117.097656 58.65625 Z M 117.097656 58.65625 " style=" stroke:none;fill-rule:nonzero;fill:rgb(100%,98.823529%,45.490196%);fill-opacity:1;" />
<path d="M 468.367188 322.109375 L 526.910156 322.109375 L 526.910156 380.652344 L 439.09375 380.652344 L 439.09375 351.378906 C 439.09375 335.214844 452.199219 322.109375 468.367188 322.109375 Z M 468.367188 322.109375 " style=" stroke:none;fill-rule:nonzero;fill:rgb(26.27451%,36.862745%,53.333333%);fill-opacity:1;" />
<path d="M 484.898438 351.378906 L 568.921875 351.378906 C 595.355469 351.378906 617.910156 370.488281 622.257812 396.558594 L 643.265625 522.597656 C 643.753906 525.539062 644 528.511719 644 531.488281 C 644 561.351562 619.792969 585.558594 589.929688 585.558594 L 463.890625 585.558594 C 434.027344 585.558594 409.820312 561.351562 409.820312 531.488281 C 409.820312 528.511719 410.066406 525.539062 410.558594 522.597656 L 431.5625 396.558594 C 435.910156 370.488281 458.464844 351.378906 484.898438 351.378906 Z M 484.898438 351.378906 " style=" stroke:none;fill-rule:nonzero;fill:rgb(8.627451%,22.352941%,41.176471%);fill-opacity:1;" />
<path d="M 526.910156 439.199219 L 585.457031 439.199219 C 601.621094 439.199219 614.726562 452.304688 614.726562 468.46875 C 614.726562 484.636719 601.621094 497.742188 585.457031 497.742188 L 526.910156 497.742188 C 510.746094 497.742188 497.636719 484.636719 497.636719 468.46875 C 497.640625 452.304688 510.746094 439.199219 526.910156 439.199219 Z M 526.910156 439.199219 " style=" stroke:none;fill-rule:nonzero;fill:rgb(0%,15.294118%,33.333333%);fill-opacity:1;" />
<path d="M 589.929688 527.015625 L 503.730469 527.015625 C 487.5625 527.015625 474.457031 513.910156 474.457031 497.742188 C 474.457031 496.128906 474.589844 494.519531 474.855469 492.929688 L 489.152344 407.136719 C 491.8125 391.191406 481.039062 376.109375 465.089844 373.449219 C 449.144531 370.792969 434.0625 381.566406 431.40625 397.511719 L 410.554688 522.597656 C 409.328125 529.765625 409.636719 537.109375 411.464844 544.148438 C 411.558594 544.5 411.6875 544.828125 411.785156 545.175781 C 417.953125 568.917969 439.359375 585.507812 463.890625 585.558594 L 589.976562 585.558594 C 606.144531 585.542969 619.238281 572.429688 619.226562 556.261719 C 619.210938 540.09375 606.097656 527 589.929688 527.015625 Z M 589.929688 527.015625 " style=" stroke:none;fill-rule:nonzero;fill:rgb(0%,15.294118%,33.333333%);fill-opacity:1;" />
<path d="M 117.097656 234.292969 C 133.265625 234.292969 146.371094 247.398438 146.371094 263.5625 L 146.371094 322.105469 C 146.371094 338.273438 133.265625 351.378906 117.101562 351.378906 C 100.933594 351.378906 87.828125 338.273438 87.828125 322.105469 L 87.828125 263.5625 C 87.828125 247.398438 100.933594 234.292969 117.097656 234.292969 Z M 117.097656 234.292969 " style=" stroke:none;fill-rule:nonzero;fill:rgb(26.27451%,36.862745%,53.333333%);fill-opacity:1;" />
<path d="M 263.460938 234.292969 C 279.628906 234.292969 292.734375 247.398438 292.734375 263.5625 L 292.734375 322.105469 C 292.734375 338.273438 279.628906 351.378906 263.460938 351.378906 C 247.296875 351.378906 234.191406 338.273438 234.191406 322.105469 L 234.191406 263.5625 C 234.1875 247.398438 247.292969 234.292969 263.460938 234.292969 Z M 263.460938 234.292969 " style=" stroke:none;fill-rule:nonzero;fill:rgb(26.27451%,36.862745%,53.333333%);fill-opacity:1;" />
<path d="M 614.714844 468.46875 L 512.289062 468.46875 C 498.855469 468.46875 487.148438 459.328125 483.890625 446.296875 L 469.253906 358.480469 C 465.335938 342.796875 474.871094 326.902344 490.554688 322.980469 C 492.875 322.402344 495.257812 322.109375 497.652344 322.109375 L 600.078125 322.109375 C 613.507812 322.109375 625.21875 331.25 628.476562 344.28125 L 643.109375 432.097656 C 647.03125 447.78125 637.496094 463.675781 621.8125 467.59375 C 619.492188 468.175781 617.105469 468.46875 614.714844 468.46875 Z M 614.714844 468.46875 " style=" stroke:none;fill-rule:nonzero;fill:rgb(26.27451%,36.862745%,53.333333%);fill-opacity:1;" />
<path d="M 87.828125 439.199219 L 292.734375 439.199219 C 308.898438 439.199219 322.003906 452.304688 322.003906 468.46875 C 322.003906 484.636719 308.898438 497.742188 292.734375 497.742188 L 87.828125 497.742188 C 71.660156 497.742188 58.554688 484.636719 58.554688 468.46875 C 58.554688 452.304688 71.660156 439.199219 87.828125 439.199219 Z M 87.828125 439.199219 " style=" stroke:none;fill-rule:nonzero;fill:rgb(8.627451%,22.352941%,41.176471%);fill-opacity:1;" />
<path d="M 263.460938 468.46875 C 279.628906 468.46875 292.734375 481.574219 292.734375 497.742188 L 292.734375 527.015625 C 292.734375 543.179688 279.628906 556.285156 263.460938 556.285156 C 247.296875 556.285156 234.191406 543.179688 234.191406 527.015625 L 234.191406 497.742188 C 234.1875 481.574219 247.292969 468.46875 263.460938 468.46875 Z M 263.460938 468.46875 " style=" stroke:none;fill-rule:nonzero;fill:rgb(26.27451%,36.862745%,53.333333%);fill-opacity:1;" />
<path d="M 585.457031 409.925781 C 585.457031 426.089844 572.351562 439.199219 556.183594 439.199219 C 540.015625 439.199219 526.910156 426.089844 526.910156 409.925781 C 526.910156 393.757812 540.015625 380.652344 556.183594 380.652344 C 572.351562 380.652344 585.457031 393.757812 585.457031 409.925781 Z M 585.457031 409.925781 " style=" stroke:none;fill-rule:nonzero;fill:rgb(100%,74.509804%,0%);fill-opacity:1;" />
<path d="M 556.183594 395.289062 C 556.183594 403.371094 549.628906 409.925781 541.546875 409.925781 C 533.464844 409.925781 526.910156 403.371094 526.910156 395.289062 C 526.910156 387.207031 533.464844 380.652344 541.546875 380.652344 C 549.628906 380.652344 556.183594 387.207031 556.183594 395.289062 Z M 556.183594 395.289062 " style=" stroke:none;fill-rule:nonzero;fill:rgb(100%,91.764706%,12.941176%);fill-opacity:1;" />
<path d="M 278.097656 0.113281 L 307.371094 0.113281 C 315.453125 0.113281 322.003906 6.664062 322.003906 14.75 C 322.003906 22.832031 315.453125 29.382812 307.371094 29.382812 L 278.097656 29.382812 C 270.011719 29.382812 263.460938 22.832031 263.460938 14.75 C 263.460938 6.664062 270.011719 0.113281 278.097656 0.113281 Z M 278.097656 0.113281 " style=" stroke:none;fill-rule:nonzero;fill:rgb(100%,74.509804%,0%);fill-opacity:1;" />
<path d="M 131.734375 263.5625 C 139.816406 263.5625 146.371094 270.117188 146.371094 278.199219 L 146.371094 307.472656 C 146.371094 315.554688 139.816406 322.109375 131.734375 322.109375 C 123.652344 322.109375 117.097656 315.554688 117.097656 307.472656 L 117.097656 278.199219 C 117.097656 270.117188 123.652344 263.5625 131.734375 263.5625 Z M 131.734375 263.5625 " style=" stroke:none;fill-rule:nonzero;fill:rgb(8.627451%,22.352941%,41.176471%);fill-opacity:1;" />
<path d="M 278.097656 263.5625 C 286.179688 263.5625 292.734375 270.117188 292.734375 278.199219 L 292.734375 307.472656 C 292.734375 315.554688 286.179688 322.109375 278.097656 322.109375 C 270.011719 322.109375 263.460938 315.554688 263.460938 307.472656 L 263.460938 278.199219 C 263.460938 270.117188 270.011719 263.5625 278.097656 263.5625 Z M 278.097656 263.5625 " style=" stroke:none;fill-rule:nonzero;fill:rgb(8.627451%,22.352941%,41.176471%);fill-opacity:1;" />
<path d="M 292.734375 512.378906 C 292.734375 520.460938 286.179688 527.015625 278.097656 527.015625 C 270.011719 527.015625 263.460938 520.460938 263.460938 512.378906 C 263.460938 504.292969 270.011719 497.742188 278.097656 497.742188 C 286.179688 497.742188 292.734375 504.292969 292.734375 512.378906 Z M 292.734375 512.378906 " style=" stroke:none;fill-rule:nonzero;fill:rgb(8.627451%,22.352941%,41.176471%);fill-opacity:1;" />
<path d="M 512.273438 351.378906 L 600.089844 351.378906 C 608.175781 351.378906 614.726562 357.933594 614.726562 366.015625 C 614.726562 374.097656 608.175781 380.652344 600.089844 380.652344 L 512.273438 380.652344 C 504.191406 380.652344 497.640625 374.097656 497.640625 366.015625 C 497.640625 357.933594 504.191406 351.378906 512.273438 351.378906 Z M 512.273438 351.378906 " style=" stroke:none;fill-rule:nonzero;fill:rgb(49.019608%,56.078431%,67.45098%);fill-opacity:1;" />
<path d="M 643.113281 432.097656 C 643.113281 432.097656 638.320312 403.347656 638.292969 403.171875 L 638.285156 403.128906 C 636.9375 395.160156 629.386719 389.789062 621.417969 391.132812 C 613.457031 392.476562 608.085938 400.011719 609.414062 407.976562 L 614.238281 436.910156 C 614.363281 437.679688 614.523438 438.441406 614.714844 439.199219 L 541.546875 439.199219 C 533.464844 439.199219 526.910156 445.75 526.910156 453.832031 C 526.910156 461.917969 533.464844 468.46875 541.546875 468.46875 L 614.714844 468.46875 L 614.726562 468.449219 L 614.726562 468.46875 C 630.894531 468.460938 643.992188 455.347656 643.984375 439.179688 C 643.984375 436.792969 643.691406 434.414062 643.113281 432.097656 Z M 643.113281 432.097656 " style=" stroke:none;fill-rule:nonzero;fill:rgb(20%,32.156863%,49.019608%);fill-opacity:1;" />
<path d="M 541.546875 29.386719 L 600.089844 29.386719 C 608.175781 29.386719 614.726562 35.9375 614.726562 44.023438 C 614.726562 52.105469 608.175781 58.65625 600.089844 58.65625 L 541.546875 58.65625 C 533.464844 58.65625 526.910156 52.105469 526.910156 44.023438 C 526.910156 35.9375 533.464844 29.386719 541.546875 29.386719 Z M 541.546875 29.386719 " style=" stroke:none;fill-rule:nonzero;fill:rgb(100%,63.921569%,0%);fill-opacity:1;" />
<path d="M 483.003906 0.113281 L 541.546875 0.113281 C 549.628906 0.113281 556.183594 6.664062 556.183594 14.75 C 556.183594 22.832031 549.628906 29.382812 541.546875 29.382812 L 483.003906 29.382812 C 474.917969 29.382812 468.367188 22.832031 468.367188 14.75 C 468.367188 6.664062 474.917969 0.113281 483.003906 0.113281 Z M 483.003906 0.113281 " style=" stroke:none;fill-rule:nonzero;fill:rgb(100%,91.764706%,12.941176%);fill-opacity:1;" />
</g>
</svg>