<svg xmlns="http://www.w3.org/2000/svg" height="512pt" version="1.1" viewBox="-23 0 512 512.00164" width="512pt">
<g id="surface1">
<path d="M 120.4375 13.140625 L 117.039062 9.445312 L 109.984375 29.820312 L 110.710938 31.023438 C 113.070312 34.929688 117.5625 37.453125 122.152344 37.453125 C 122.578125 37.453125 123.007812 37.433594 123.441406 37.386719 C 128.257812 36.882812 132.679688 33.492188 134.445312 28.949219 L 135.199219 27.007812 L 132.539062 24.636719 C 128.449219 21.003906 124.214844 17.25 120.4375 13.140625 Z M 120.4375 13.140625 " style=" stroke:none;fill-rule:nonzero;fill:rgb(35.686275%,36.470588%,42.745098%);fill-opacity:1;" />
<path d="M 380.605469 203.988281 C 372.925781 203.171875 365.789062 201.792969 357.261719 200.082031 C 339.476562 196.492188 321.382812 193.441406 303.484375 191.019531 C 293.472656 189.65625 283.308594 188.460938 273.277344 187.464844 C 271.90625 187.328125 270.28125 187.191406 268.628906 187.191406 C 264.320312 187.191406 261.148438 188.207031 258.925781 190.300781 C 255.992188 193.074219 255.246094 197.167969 254.683594 201.472656 L 250.226562 235.574219 C 249.484375 241.238281 249.070312 246.679688 252.039062 251.050781 C 255.675781 256.382812 262.703125 257.535156 269.007812 258.195312 L 363.582031 268.117188 C 365.566406 268.320312 367.21875 268.457031 368.839844 268.457031 C 371.890625 268.457031 374.261719 267.945312 376.292969 266.839844 C 382.277344 263.613281 383.890625 256.332031 384.933594 249.761719 L 389.710938 219.613281 C 390.546875 214.355469 389.929688 210.332031 387.878906 207.652344 C 386.277344 205.570312 383.832031 204.335938 380.605469 203.988281 Z M 380.605469 203.988281 " style=" stroke:none;fill-rule:nonzero;fill:rgb(94.117647%,94.901961%,98.039216%);fill-opacity:1;" />
<path d="M 263.503906 79.917969 C 274.894531 79.917969 287.9375 81.484375 298.3125 93.101562 C 304.671875 100.21875 308.636719 109.917969 309.480469 120.410156 L 310.003906 126.972656 L 347.929688 88.289062 L 287.449219 40.90625 C 285.496094 39.363281 283.398438 37.9375 281.285156 37.9375 C 280.882812 37.9375 280.492188 37.988281 280.117188 38.089844 C 278.589844 38.515625 277.425781 39.75 276.125 41.246094 L 242.019531 80.855469 L 249.007812 80.507812 L 250.203125 80.4375 C 254.582031 80.183594 259.109375 79.917969 263.503906 79.917969 Z M 263.503906 79.917969 " style=" stroke:none;fill-rule:nonzero;fill:rgb(94.117647%,94.901961%,98.039216%);fill-opacity:1;" />
<path d="M 72.042969 65.058594 L 69.402344 63.84375 L 68.105469 66.445312 C 64.160156 74.351562 61.941406 83.238281 61.691406 92.136719 L 61.621094 94.539062 L 63.953125 95.128906 C 83.878906 100.175781 104.523438 102.734375 125.316406 102.734375 L 126.179688 102.734375 C 126.230469 102.734375 126.277344 102.734375 126.324219 102.742188 L 129.046875 103.242188 L 129.757812 100.566406 C 130.699219 97.039062 132.03125 94.136719 133.835938 91.695312 L 136.421875 88.183594 L 132.21875 87.019531 C 111.578125 81.3125 91.328125 73.925781 72.042969 65.058594 Z M 72.042969 65.058594 " style=" stroke:none;fill-rule:nonzero;fill:rgb(94.117647%,94.901961%,98.039216%);fill-opacity:1;" />
<path d="M 91.679688 465.25 C 90.65625 461.117188 88.949219 454.96875 85.949219 449.332031 L 84.730469 447.042969 L 65.382812 453.972656 L 67.511719 457.164062 C 69.421875 460.027344 71.449219 463.480469 72.019531 467.394531 C 72.265625 469.121094 72.125 471.027344 71.625 472.761719 L 70.308594 477.339844 L 77.480469 476.128906 C 82.167969 475.351562 86.386719 474.617188 90.566406 473.546875 L 93.324219 472.835938 L 92.757812 470.042969 C 92.441406 468.476562 92.078125 466.863281 91.679688 465.25 Z M 91.679688 465.25 " style=" stroke:none;fill-rule:nonzero;fill:rgb(94.117647%,94.901961%,98.039216%);fill-opacity:1;" />
<path d="M 70.957031 467.554688 C 70.300781 462.984375 67.378906 458.789062 65.023438 455.421875 L 64.632812 454.644531 L 64.011719 454.207031 C 63.953125 454.164062 63.867188 454.082031 63.828125 453.972656 C 63.726562 453.683594 63.867188 453.378906 64.148438 453.277344 L 84.355469 446.054688 L 81.53125 442.746094 C 77.257812 437.734375 71.855469 434.503906 66.316406 433.648438 C 65.421875 433.507812 64.5 433.4375 63.582031 433.4375 C 57.070312 433.4375 50.957031 436.878906 48.371094 442 C 44.820312 449.03125 47.46875 457.363281 50.484375 465.292969 C 51.742188 468.613281 53.164062 472.375 55.730469 475.148438 C 57.328125 476.890625 60.132812 478.75 63.21875 478.75 C 63.992188 478.75 64.742188 478.632812 65.4375 478.402344 C 69.675781 477.023438 71.574219 471.800781 70.957031 467.554688 Z M 70.957031 467.554688 " style=" stroke:none;fill-rule:nonzero;fill:rgb(94.117647%,94.901961%,98.039216%);fill-opacity:1;" />
<path d="M 257.363281 122.042969 C 256.921875 122.042969 256.476562 122.019531 256.03125 121.976562 C 252.792969 121.652344 249.691406 120.164062 247.289062 117.789062 L 244.933594 115.457031 L 242.847656 118.035156 C 239.890625 121.691406 235.433594 123.96875 230.882812 124.125 C 230.769531 124.132812 230.652344 124.132812 230.539062 124.132812 C 230.535156 124.132812 230.492188 124.132812 230.429688 124.132812 C 226.042969 124.132812 221.589844 122.113281 218.519531 118.734375 L 216.3125 116.308594 L 214.089844 118.71875 C 210.988281 122.089844 206.484375 124.105469 202.039062 124.105469 C 201.488281 124.105469 200.933594 124.074219 200.394531 124.011719 C 195.550781 123.464844 190.929688 120.40625 188.339844 116.03125 L 184.457031 109.480469 L 182.828125 116.917969 C 182.699219 117.507812 182.621094 118.09375 182.589844 118.679688 C 182.507812 120.765625 182.9375 122.871094 183.363281 124.960938 C 183.558594 125.882812 183.78125 126.984375 183.960938 128.203125 L 183.949219 128.136719 C 183.960938 128.285156 183.976562 128.433594 184 128.574219 L 184.410156 131.03125 L 230.433594 131.960938 L 259.609375 132.558594 L 260.191406 130.238281 C 260.210938 130.15625 260.230469 130.074219 260.273438 129.941406 C 260.664062 128.695312 261.148438 127.441406 261.710938 126.21875 L 263.917969 121.441406 L 258.683594 121.976562 C 258.25 122.023438 257.804688 122.042969 257.363281 122.042969 Z M 257.363281 122.042969 " style=" stroke:none;fill-rule:nonzero;fill:rgb(84.705882%,87.058824%,92.54902%);fill-opacity:1;" />
<path d="M 204.398438 414.195312 L 203.363281 412.699219 L 201.558594 412.925781 C 190.996094 414.238281 180.621094 415.574219 170.722656 416.898438 L 165.953125 417.535156 L 168.625 421.539062 C 173.195312 428.390625 176.445312 435.808594 178.277344 443.578125 C 181.789062 458.496094 180.078125 474.394531 173.457031 488.347656 L 171.03125 493.460938 L 176.625 492.597656 C 185.410156 491.242188 194.277344 489.886719 203.203125 488.527344 L 206.140625 488.078125 L 206.796875 486.546875 C 214.054688 469.601562 216.574219 452.828125 214.078125 438.035156 C 212.640625 429.511719 209.292969 421.269531 204.398438 414.195312 Z M 204.398438 414.195312 " style=" stroke:none;fill-rule:nonzero;fill:rgb(84.705882%,87.058824%,92.54902%);fill-opacity:1;" />
<path d="M 197.042969 412.417969 L 202.988281 411.671875 L 198.828125 407.359375 C 194.949219 403.339844 190.613281 400.121094 185.9375 397.789062 L 185.140625 397.390625 L 184.253906 397.492188 C 175.425781 398.519531 166.238281 399.644531 156.167969 400.925781 L 149.1875 401.816406 L 154.664062 406.238281 C 158.039062 408.960938 161.164062 412.019531 163.957031 415.328125 L 165.019531 416.585938 L 166.648438 416.367188 C 176.160156 415.085938 186.105469 413.792969 197.042969 412.417969 Z M 197.042969 412.417969 " style=" stroke:none;fill-rule:nonzero;fill:rgb(84.705882%,87.058824%,92.54902%);fill-opacity:1;" />
<path d="M 27.582031 425.714844 L 30.671875 428.65625 L 32.394531 424.753906 C 32.894531 423.625 33.546875 422.59375 34.339844 421.695312 L 35.421875 420.46875 L 36.863281 419.554688 C 39.605469 417.820312 43.054688 417.109375 46.640625 416.476562 C 127.070312 402.324219 209.226562 392.222656 290.832031 386.445312 L 291.226562 386.417969 C 291.226562 386.417969 291.75 386.230469 291.78125 386.222656 C 292.355469 386.171875 292.9375 386.148438 293.507812 386.148438 C 301.863281 386.148438 309.65625 391.1875 314.890625 399.964844 C 319.195312 407.191406 321.210938 416.136719 321.238281 428.113281 C 321.238281 429.722656 321.199219 431.375 321.113281 433.160156 L 320.726562 441.289062 L 427.582031 327.480469 L 426.351562 325.519531 C 426.296875 325.429688 426.269531 325.328125 426.277344 325.21875 L 433.105469 196.265625 L 433.101562 196.261719 L 433.484375 189.164062 L 433.542969 187.433594 L 432.179688 186.523438 C 417.273438 168.445312 400.714844 151.3125 382.957031 135.59375 L 382.109375 134.839844 L 376.5 134.832031 L 372.042969 134.832031 L 372.035156 134.820312 L 367.671875 134.820312 C 349.460938 134.808594 330.625 134.800781 311.660156 133.203125 L 309.085938 132.984375 L 308.492188 135.5 C 306.765625 142.78125 303.378906 147.984375 298.433594 150.960938 C 294.933594 153.066406 290.421875 154.089844 284.648438 154.089844 C 283.667969 154.089844 282.628906 154.0625 281.464844 154.003906 C 271.835938 153.53125 265.476562 150.945312 262.023438 146.101562 C 260.203125 143.539062 259.238281 140.238281 259.238281 136.5625 L 259.238281 133.621094 L 184.332031 132.097656 L 184.019531 134.808594 C 182.9375 144.214844 176.886719 152.847656 168.605469 156.804688 C 165.101562 158.476562 161.113281 159.363281 157.070312 159.363281 C 149.207031 159.363281 141.769531 156.210938 136.664062 150.71875 C 132.980469 146.753906 130.476562 141.855469 129.019531 135.734375 L 128.453125 133.363281 L 68.8125 135.054688 L 54.730469 135.457031 L 8.539062 184.46875 L 8.363281 194.480469 L 8.359375 194.484375 L 4.921875 388.023438 L 4.914062 388.019531 L 4.617188 404.804688 L 5.667969 405.722656 C 12.988281 412.109375 20.363281 418.835938 27.582031 425.714844 Z M 252.171875 235.820312 L 256.632812 201.714844 C 257.140625 197.789062 257.800781 194.066406 260.277344 191.726562 C 262.121094 189.992188 264.882812 189.148438 268.726562 189.148438 C 270.34375 189.148438 271.863281 189.296875 273.082031 189.417969 C 283.292969 190.4375 293.429688 191.628906 303.21875 192.964844 C 321.144531 195.390625 339.195312 198.429688 356.878906 202.003906 C 365.121094 203.660156 372.582031 205.105469 380.40625 205.945312 C 383.113281 206.230469 385.046875 207.179688 386.328125 208.855469 C 388.035156 211.082031 388.523438 214.597656 387.777344 219.300781 L 382.996094 249.460938 C 381.957031 256.011719 380.3125 262.445312 375.363281 265.121094 C 373.644531 266.050781 371.484375 266.5 368.757812 266.5 C 367.066406 266.5 365.390625 266.332031 363.910156 266.179688 L 269.214844 256.246094 C 263.347656 255.628906 256.824219 254.578125 253.667969 249.941406 C 250.847656 245.804688 251.644531 239.800781 252.171875 235.820312 Z M 36.335938 315.484375 C 37.144531 309.1875 44.089844 306.78125 52.410156 304.492188 L 52.738281 304.402344 C 54.136719 304.015625 55.453125 303.652344 56.628906 303.257812 C 67.863281 299.5 79.445312 295.859375 91.058594 292.425781 C 104.0625 288.585938 117.3125 284.957031 130.445312 281.640625 C 132.148438 281.210938 133.953125 280.8125 135.636719 280.8125 C 137.128906 280.8125 138.34375 281.132812 139.351562 281.796875 C 141.515625 283.222656 142.410156 286.21875 143.066406 288.410156 L 161.296875 349.363281 C 162.695312 354.019531 162.636719 356.773438 161.105469 358.578125 C 159.816406 360.09375 157.554688 360.648438 155.726562 361.097656 L 65.863281 383.132812 C 64.894531 383.367188 63.6875 383.660156 62.5 383.660156 C 61.550781 383.660156 60.789062 383.472656 60.175781 383.09375 C 58.820312 382.25 58.136719 380.363281 57.632812 378.96875 L 45.324219 344.625 C 44.53125 342.421875 43.5 340.058594 42.222656 337.175781 C 39.078125 330.027344 35.511719 321.925781 36.335938 315.484375 Z M 36.335938 315.484375 " style=" stroke:none;fill-rule:nonzero;fill:rgb(57.647059%,60.784314%,66.666667%);fill-opacity:1;" />
<path d="M 375.867188 422.140625 C 366.609375 432.769531 357.367188 443.765625 348.410156 454.824219 L 344.269531 459.933594 L 360.84375 459.371094 L 360.851562 459.359375 L 367.160156 459.152344 L 368.882812 459.042969 L 369.671875 457.628906 L 415.203125 405.328125 L 416.417969 404.582031 L 419.144531 375.054688 L 413.203125 381.257812 C 410.695312 383.875 408.21875 386.492188 405.773438 389.097656 C 395.613281 399.898438 385.550781 411.019531 375.867188 422.140625 Z M 375.867188 422.140625 " style=" stroke:none;fill-rule:nonzero;fill:rgb(57.647059%,60.784314%,66.666667%);fill-opacity:1;" />
<path d="M 135.847656 86.964844 L 137.4375 87.847656 L 138.957031 86.84375 C 141.582031 85.101562 144.675781 83.84375 148.410156 82.996094 L 150.398438 82.546875 L 152.136719 82.300781 C 153.878906 82.058594 155.742188 81.875 157.667969 81.765625 L 160.820312 81.585938 L 160.480469 78.449219 C 159.496094 69.371094 158.226562 59.78125 154.53125 51.078125 L 153.25 48.066406 L 150.363281 49.601562 C 149.925781 49.832031 149.425781 50.03125 148.898438 50.1875 C 148.246094 50.371094 147.574219 50.464844 146.90625 50.464844 C 146.5625 50.464844 146.214844 50.441406 145.875 50.390625 L 141.492188 49.757812 L 142.132812 52.414062 L 139.84375 55.410156 C 138.550781 57.101562 136.800781 58.355469 134.917969 58.945312 C 134.023438 59.222656 133.074219 59.363281 132.097656 59.363281 C 130.257812 59.363281 128.4375 58.871094 126.828125 57.941406 L 121.011719 54.578125 L 121.746094 58.089844 L 119.554688 60.09375 C 117.765625 61.726562 115.535156 62.816406 113.296875 63.152344 C 112.753906 63.230469 112.191406 63.269531 111.628906 63.269531 C 109.386719 63.269531 107.078125 62.59375 105.121094 61.367188 L 100.5 58.476562 L 100.527344 63.925781 C 100.550781 68.761719 101.761719 73.054688 104.027344 76.34375 L 104.578125 77.140625 L 105.496094 77.464844 C 112.949219 80.113281 120.285156 82.496094 127.300781 84.539062 L 133.660156 86.394531 L 133.617188 86.300781 C 134.296875 86.496094 134.976562 86.691406 135.667969 86.875 C 135.730469 86.898438 135.789062 86.933594 135.847656 86.964844 Z M 135.847656 86.964844 " style=" stroke:none;fill-rule:nonzero;fill:rgb(35.686275%,81.568627%,98.823529%);fill-opacity:1;" />
<path d="M 314.234375 400.859375 L 312.207031 401.042969 C 277.609375 404.175781 241.929688 407.984375 206.15625 412.363281 L 201.433594 412.941406 L 203.988281 416.953125 C 208.042969 423.316406 210.863281 430.71875 212.152344 438.359375 C 214.460938 452.074219 212.304688 467.695312 205.917969 483.53125 L 203.949219 488.410156 L 209.152344 487.617188 C 231.921875 484.140625 250.722656 481.363281 268.320312 478.871094 C 284.695312 476.550781 300.195312 473.550781 309.910156 462.527344 C 316.761719 454.757812 320.210938 443.183594 320.171875 428.121094 C 320.140625 417.441406 318.546875 409.355469 315.15625 402.675781 Z M 314.234375 400.859375 " style=" stroke:none;fill-rule:nonzero;fill:rgb(100%,100%,100%);fill-opacity:1;" />
<path d="M 308.222656 400.339844 L 314.15625 399.792969 L 310.1875 395.351562 C 305.445312 390.046875 299.710938 387.242188 293.609375 387.242188 C 293.277344 387.242188 292.941406 387.25 292.601562 387.265625 L 292.207031 387.285156 L 291.832031 387.40625 C 291.769531 387.425781 291.703125 387.449219 291.660156 387.460938 C 258.507812 389.796875 224.640625 392.917969 191 396.734375 L 182.785156 397.664062 L 189.6875 402.21875 C 193.242188 404.5625 196.511719 407.441406 199.402344 410.777344 L 200.449219 411.988281 L 202.039062 411.792969 C 237.21875 407.433594 272.945312 403.578125 308.222656 400.339844 Z M 308.222656 400.339844 " style=" stroke:none;fill-rule:nonzero;fill:rgb(100%,100%,100%);fill-opacity:1;" />
<path d="M 169.082031 418.730469 L 168.035156 417.253906 L 166.238281 417.496094 C 135.800781 421.601562 105.761719 426.074219 76.953125 430.789062 L 69.3125 432.042969 L 75.800781 436.265625 C 79.066406 438.386719 82.042969 441.3125 84.417969 444.726562 C 88.917969 451.191406 91.21875 458.949219 92.714844 464.980469 C 94.429688 471.925781 96.15625 481.007812 94.265625 489.628906 C 93.386719 493.664062 91.671875 497.441406 89.308594 500.558594 L 84.882812 506.386719 L 92.125 505.339844 C 117.90625 501.613281 143.429688 497.703125 171.734375 493.34375 L 173.226562 493.117188 L 173.929688 491.78125 C 181.710938 477.046875 183.992188 459.316406 180.1875 443.132812 C 178.132812 434.40625 174.394531 426.195312 169.082031 418.730469 Z M 169.082031 418.730469 " style=" stroke:none;fill-rule:nonzero;fill:rgb(100%,100%,100%);fill-opacity:1;" />
<path d="M 39.285156 335.351562 C 39.617188 336.121094 39.957031 336.886719 40.289062 337.640625 L 40.546875 338.226562 C 41.65625 340.757812 42.707031 343.152344 43.476562 345.296875 L 55.792969 379.613281 C 56.523438 381.679688 57.332031 383.628906 59.152344 384.761719 C 60.070312 385.332031 61.1875 385.621094 62.464844 385.621094 C 63.800781 385.621094 65.171875 385.3125 66.355469 385.023438 L 156.1875 363.003906 C 158.671875 362.390625 161.035156 361.6875 162.589844 359.851562 C 165.136719 356.871094 164.3125 352.585938 163.171875 348.789062 L 148.34375 299.207031 L 144.851562 302.910156 C 136.695312 307.332031 132.441406 317.691406 134.957031 326.546875 C 126.78125 327.292969 120.414062 329.804688 116.019531 334.019531 C 111.425781 338.4375 108.8125 346.109375 111.457031 352.378906 C 106.449219 350.886719 101.191406 350.128906 95.792969 350.128906 C 87.480469 350.128906 79.300781 351.945312 72.046875 355.375 C 72.964844 347.519531 69.585938 339.324219 63.285156 334.480469 C 59.371094 331.46875 54.402344 329.8125 49.289062 329.8125 C 46.394531 329.8125 43.585938 330.335938 40.945312 331.363281 L 38.050781 332.496094 Z M 39.285156 335.351562 " style=" stroke:none;fill-rule:nonzero;fill:rgb(100%,100%,100%);fill-opacity:1;" />
<path d="M 93.230469 489.386719 C 94.015625 485.773438 94.214844 481.855469 93.839844 477.417969 L 93.542969 473.917969 L 90.132812 474.757812 C 86.117188 475.75 82.109375 476.449219 77.667969 477.191406 C 73.449219 477.890625 68.191406 478.761719 63.449219 480.058594 C 63.382812 480.074219 63.324219 480.082031 63.269531 480.082031 C 63.199219 480.082031 63.117188 480.0625 63.027344 480.019531 L 62.585938 479.804688 L 62.097656 479.746094 C 59.480469 479.421875 56.941406 478.050781 54.949219 475.882812 C 52.261719 472.960938 50.851562 469.265625 49.484375 465.675781 C 46.519531 457.875 43.671875 448.925781 47.414062 441.519531 C 49.414062 437.574219 53.351562 434.515625 58.21875 433.128906 L 58.65625 433.003906 L 59.035156 432.757812 C 59.113281 432.707031 59.183594 432.671875 59.261719 432.660156 C 92.011719 427.085938 126.527344 421.824219 161.855469 417.015625 L 167.523438 416.242188 L 163.664062 412.019531 C 160.3125 408.351562 156.582031 405.046875 152.566406 402.195312 L 151.609375 401.511719 L 150.441406 401.664062 C 115.628906 406.226562 80.769531 411.5625 46.828125 417.527344 C 42.140625 418.351562 38.035156 419.273438 35.292969 422.238281 C 32.148438 425.617188 31.816406 430.726562 31.910156 435.28125 C 32.269531 453.089844 36.957031 470.773438 45.464844 486.425781 C 49.671875 494.140625 53.882812 499.378906 58.710938 502.917969 C 63.09375 506.140625 68.230469 507.914062 73.167969 507.914062 C 75.066406 507.914062 76.882812 507.648438 78.582031 507.125 C 85.605469 504.941406 91.355469 497.980469 93.230469 489.386719 Z M 93.230469 489.386719 " style=" stroke:none;fill-rule:nonzero;fill:rgb(100%,100%,100%);fill-opacity:1;" />
<path d="M 46.25 91.097656 L 45.300781 93.882812 C 41.175781 105.980469 39.40625 119.121094 40.175781 131.894531 L 40.351562 134.792969 L 128.25 132.296875 L 127.914062 129.082031 C 127.226562 122.460938 127.671875 115.835938 128.070312 111.410156 C 128.191406 109.949219 128.339844 108.527344 128.515625 107.1875 L 128.953125 103.800781 L 124.839844 103.800781 C 99.082031 103.800781 73.582031 99.828125 49.050781 91.992188 Z M 46.25 91.097656 " style=" stroke:none;fill-rule:nonzero;fill:rgb(100%,100%,100%);fill-opacity:1;" />
<path d="M 439.554688 316.289062 L 429.355469 327.148438 L 428.007812 328.582031 L 417.222656 340.082031 L 417.21875 340.078125 L 395.34375 363.371094 L 395.351562 363.375 L 350.097656 411.5625 L 350.101562 411.566406 L 342.914062 419.214844 L 331.328125 431.5625 L 331.324219 431.5625 L 320.679688 442.898438 L 320.257812 442.503906 L 319.929688 443.695312 L 319.339844 444.324219 L 319.671875 444.632812 L 318.945312 447.277344 C 318.019531 450.664062 316.8125 453.753906 315.363281 456.46875 L 314.488281 458.109375 L 313.425781 459.691406 C 312.574219 460.96875 311.660156 462.164062 310.730469 463.226562 C 309.367188 464.757812 307.816406 466.214844 306.121094 467.5625 L 304.726562 468.671875 L 303.011719 469.78125 C 300.980469 471.09375 298.777344 472.253906 296.277344 473.324219 L 294.707031 473.996094 L 294.484375 475.691406 C 294.476562 475.753906 294.449219 475.828125 294.421875 475.875 L 284.222656 492.53125 L 439.34375 485.578125 C 444.09375 485.363281 448.816406 484.710938 451.171875 481.402344 C 452.710938 479.246094 452.917969 476.34375 453.007812 473.316406 L 458.726562 295.875 L 439.550781 316.28125 Z M 434.089844 373.585938 C 433.902344 374.726562 433.800781 375.472656 433.757812 376.027344 L 427.945312 457.65625 C 427.925781 457.925781 427.699219 458.144531 427.425781 458.152344 L 343.148438 461.042969 C 342.945312 461.042969 342.757812 460.921875 342.675781 460.757812 C 342.582031 460.566406 342.605469 460.335938 342.730469 460.175781 C 353.195312 447.085938 364.074219 434.050781 375.058594 421.441406 C 384.742188 410.332031 394.808594 399.203125 404.984375 388.363281 C 409.976562 383.046875 415.167969 377.625 420.429688 372.234375 C 420.707031 371.941406 421.097656 371.496094 421.554688 370.964844 L 421.644531 370.867188 C 424.597656 367.425781 427.996094 363.761719 430.914062 363.761719 C 431.023438 363.761719 431.132812 363.765625 431.253906 363.777344 C 432.644531 363.90625 433.507812 364.914062 433.988281 365.734375 C 435.035156 367.519531 434.535156 370.730469 434.089844 373.585938 Z M 434.089844 373.585938 " style=" stroke:none;fill-rule:nonzero;fill:rgb(79.607843%,89.803922%,50.196078%);fill-opacity:1;" />
<path d="M 38.796875 334.328125 L 41.578125 333.234375 C 44.003906 332.277344 46.597656 331.792969 49.285156 331.792969 C 53.988281 331.792969 58.535156 333.300781 62.09375 336.042969 C 67.363281 340.085938 70.480469 346.8125 70.222656 353.597656 L 70.042969 358.355469 L 74.410156 356.464844 C 80.25 353.941406 86.546875 352.496094 93.136719 352.175781 L 97.324219 351.976562 L 95.78125 348.078125 C 93.507812 342.339844 93.535156 335.976562 95.855469 330.613281 C 98.617188 324.226562 104.679688 319.558594 111.292969 318.730469 C 111.972656 318.644531 112.664062 318.601562 113.359375 318.601562 C 119.476562 318.601562 125.488281 321.957031 128.394531 327 L 129.171875 329.363281 L 131.703125 328.953125 C 132.453125 328.832031 133.210938 328.707031 133.988281 328.625 L 137.292969 328.261719 L 136.59375 325.011719 C 134.914062 317.195312 138.773438 308.554688 145.582031 304.75 L 150.367188 305.972656 L 144.949219 287.855469 C 144.0625 284.878906 142.980469 281.832031 140.417969 280.152344 C 139.089844 279.285156 137.476562 278.839844 135.625 278.839844 C 133.730469 278.839844 131.777344 279.277344 129.96875 279.742188 C 116.871094 283.046875 103.589844 286.683594 90.503906 290.554688 C 79.132812 293.90625 67.523438 297.554688 56.003906 301.398438 C 54.773438 301.808594 53.355469 302.199219 51.859375 302.609375 C 44.929688 304.523438 35.441406 307.148438 34.398438 315.242188 C 33.707031 320.617188 35.796875 326.78125 37.695312 331.550781 Z M 38.796875 334.328125 " style=" stroke:none;fill-rule:nonzero;fill:rgb(69.803922%,91.764706%,97.647059%);fill-opacity:1;" />
<path d="M 410.644531 50.386719 C 413.753906 52.675781 417.601562 53.9375 421.464844 53.9375 C 423.125 53.9375 424.746094 53.707031 426.269531 53.25 C 430.886719 51.886719 434.449219 48.773438 436.300781 44.484375 C 438.3125 39.839844 438.054688 34.179688 435.617188 29.339844 C 433.410156 24.972656 428.996094 22.570312 423.183594 22.570312 C 420.007812 22.570312 416.535156 23.335938 413.65625 24.667969 C 407.53125 27.507812 403.648438 33.683594 404.210938 39.683594 C 404.589844 43.6875 406.992188 47.6875 410.644531 50.386719 Z M 410.644531 50.386719 " style=" stroke:none;fill-rule:nonzero;fill:rgb(68.627451%,47.45098%,47.45098%);fill-opacity:1;" />
<path d="M 367.667969 133.75 L 371.660156 133.75 L 372.390625 131.800781 C 372.429688 131.695312 372.464844 131.65625 372.503906 131.621094 L 401.984375 103.417969 L 363.773438 73.660156 L 350.953125 86.726562 L 340.804688 97.089844 L 331.429688 106.652344 L 331.425781 106.648438 L 321.664062 116.609375 L 321.660156 116.605469 L 306.828125 131.738281 L 313.21875 132.25 C 331.691406 133.730469 349.980469 133.742188 367.667969 133.75 Z M 367.667969 133.75 " style=" stroke:none;fill-rule:nonzero;fill:rgb(68.627451%,47.45098%,47.45098%);fill-opacity:1;" />
<path d="M 111.609375 65.234375 C 112.273438 65.234375 112.9375 65.1875 113.582031 65.089844 C 117.78125 64.460938 121.609375 61.765625 123.691406 58.054688 C 125.902344 60.121094 128.945312 61.324219 132.101562 61.324219 C 133.273438 61.324219 134.414062 61.152344 135.488281 60.816406 C 139.570312 59.550781 142.757812 55.953125 143.636719 51.804688 C 144.628906 52.214844 145.726562 52.429688 146.871094 52.429688 C 147.730469 52.429688 148.59375 52.308594 149.441406 52.066406 C 150.140625 51.867188 150.824219 51.582031 151.472656 51.21875 L 154.023438 49.792969 L 152.664062 47.203125 C 152.664062 47.203125 152.425781 46.746094 152.339844 46.589844 C 148.351562 39.433594 142.515625 33.648438 136.804688 28.460938 L 133.929688 25.851562 L 132.128906 29.289062 C 130.375 32.644531 126.882812 35.058594 123.226562 35.4375 C 122.898438 35.472656 122.558594 35.492188 122.1875 35.492188 C 119.160156 35.492188 116.042969 34.152344 113.855469 31.90625 L 110.460938 28.425781 L 104.84375 44.671875 C 103.289062 49.160156 101.679688 53.808594 100.925781 58.636719 L 100.683594 60.171875 L 101.796875 61.253906 C 104.40625 63.785156 107.980469 65.234375 111.609375 65.234375 Z M 111.609375 65.234375 " style=" stroke:none;fill-rule:nonzero;fill:rgb(100%,82.352941%,73.333333%);fill-opacity:1;" />
<path d="M 458.71875 83.394531 L 440 71.808594 C 439.867188 71.726562 439.773438 71.578125 439.75 71.417969 C 439.726562 71.261719 439.773438 71.097656 439.871094 70.984375 C 446.980469 62.984375 455.535156 50.390625 455.9375 35.816406 C 456.324219 21.875 447.863281 8.691406 436.253906 5.152344 C 433.894531 4.429688 431.367188 4.066406 428.75 4.066406 C 422.351562 4.066406 415.632812 6.210938 409.324219 10.269531 C 401.285156 15.457031 394.949219 22.835938 388.777344 30.027344 C 388.640625 30.1875 388.46875 30.210938 388.378906 30.210938 C 388.277344 30.210938 388.179688 30.183594 388.089844 30.125 C 386.3125 29.003906 384.546875 27.859375 382.777344 26.707031 C 379.011719 24.253906 375.617188 22.0625 372.15625 20.074219 C 370.785156 19.28125 369.699219 18.65625 368.28125 18.65625 C 366.105469 18.65625 364.785156 20.007812 362.394531 22.464844 L 361.5 23.375 C 355.644531 29.324219 349.785156 35.265625 343.914062 41.203125 L 335.183594 50.058594 L 352.113281 63.238281 L 352.113281 63.234375 L 363.28125 71.9375 L 363.558594 71.636719 L 363.878906 71.964844 L 363.925781 72.066406 L 364.324219 72.445312 L 364.621094 72.984375 L 372.949219 79.457031 L 372.949219 79.460938 L 385.703125 89.390625 L 385.699219 89.394531 L 427.796875 122.160156 C 429.769531 123.695312 430.996094 124.292969 432.179688 124.292969 L 432.773438 124.285156 L 433.203125 124.125 C 434.175781 123.804688 434.9375 123.050781 436.058594 121.699219 L 459.855469 92.71875 C 461.574219 90.628906 462.636719 88.875 462.210938 87.035156 C 461.855469 85.605469 460.707031 84.652344 458.71875 83.394531 Z M 434.503906 43.703125 C 432.894531 47.4375 429.773438 50.164062 425.722656 51.375 C 424.375 51.769531 422.957031 51.972656 421.5 51.972656 C 418.015625 51.972656 414.574219 50.847656 411.8125 48.808594 C 408.5625 46.410156 406.503906 43.015625 406.167969 39.507812 C 405.675781 34.320312 409.09375 28.945312 414.480469 26.445312 C 417.136719 25.214844 420.167969 24.539062 423.015625 24.539062 C 425.414062 24.539062 431.277344 25.09375 433.871094 30.222656 C 436.082031 34.605469 436.3125 39.519531 434.503906 43.703125 Z M 434.503906 43.703125 " style=" stroke:none;fill-rule:nonzero;fill:rgb(96.862745%,70.196078%,43.529412%);fill-opacity:1;" />
<path d="M 432.710938 138.910156 C 430.730469 137.183594 427.933594 136.804688 424.742188 136.511719 C 413.792969 135.558594 402.199219 135.0625 387.140625 134.902344 L 379.21875 134.820312 L 385.097656 140.128906 C 400.519531 154.054688 415.117188 169.210938 428.488281 185.1875 L 433.382812 191.035156 L 435.535156 150.375 C 435.777344 145.894531 435.601562 141.40625 432.710938 138.910156 Z M 432.710938 138.910156 " style=" stroke:none;fill-rule:nonzero;fill:rgb(97.647059%,84.705882%,53.72549%);fill-opacity:1;" />
<path d="M 411.542969 457.628906 L 416.796875 400.515625 L 365.707031 459.195312 Z M 411.542969 457.628906 " style=" stroke:none;fill-rule:nonzero;fill:rgb(97.647059%,84.705882%,53.72549%);fill-opacity:1;" />
<path d="M 287.257812 119.621094 C 285.625 119.621094 283.9375 119.871094 282.25 120.359375 C 277.625 121.707031 273.816406 124.738281 272.0625 128.460938 C 270.355469 132.042969 270.382812 135.789062 272.132812 139 C 273.976562 142.402344 277.441406 144.675781 281.640625 145.234375 C 282.359375 145.332031 283.101562 145.378906 283.847656 145.378906 C 289.75 145.378906 296.734375 142.25 299.03125 135.253906 C 300.503906 130.757812 299.753906 124.8125 294.746094 121.652344 C 292.609375 120.324219 290.019531 119.621094 287.257812 119.621094 Z M 287.257812 119.621094 " style=" stroke:none;fill-rule:nonzero;fill:rgb(97.647059%,84.705882%,53.72549%);fill-opacity:1;" />
<path d="M 156.339844 120.402344 C 154.679688 120.402344 152.996094 120.648438 151.332031 121.128906 C 146.714844 122.476562 142.902344 125.503906 141.125 129.242188 C 139.4375 132.835938 139.46875 136.578125 141.210938 139.777344 C 143.046875 143.167969 146.511719 145.441406 150.726562 146.011719 C 151.4375 146.109375 152.167969 146.15625 152.90625 146.15625 C 158.816406 146.15625 165.8125 143.027344 168.113281 136.035156 C 169.585938 131.53125 168.835938 125.582031 163.839844 122.441406 C 161.714844 121.109375 159.121094 120.402344 156.339844 120.402344 Z M 156.339844 120.402344 " style=" stroke:none;fill-rule:nonzero;fill:rgb(97.647059%,84.705882%,53.72549%);fill-opacity:1;" />
<path d="M 109.105469 353.757812 L 114.035156 355.019531 L 112.753906 350.09375 C 111.5 345.285156 113.40625 339.253906 117.386719 335.4375 C 120.03125 332.898438 123.570312 330.996094 127.914062 329.792969 L 131.839844 328.703125 L 129.632812 325.277344 C 126.195312 319.949219 119.964844 316.640625 113.378906 316.640625 C 112.601562 316.640625 111.820312 316.6875 111.050781 316.785156 C 103.757812 317.695312 97.089844 322.820312 94.058594 329.835938 C 91.320312 336.148438 91.550781 343.84375 94.671875 350.417969 L 95.457031 352.078125 L 97.296875 352.128906 C 101.371094 352.246094 105.34375 352.792969 109.105469 353.757812 Z M 109.105469 353.757812 " style=" stroke:none;fill-rule:nonzero;fill:rgb(97.647059%,84.705882%,53.72549%);fill-opacity:1;" />
<path d="M 31.605469 136.113281 C 24.617188 136.3125 17.441406 136.910156 13.164062 141.75 C 9.519531 145.863281 9.121094 151.785156 9.007812 158.007812 L 8.492188 187.382812 L 57.488281 135.378906 Z M 31.605469 136.113281 " style=" stroke:none;fill-rule:nonzero;fill:rgb(97.647059%,84.705882%,53.72549%);fill-opacity:1;" />
<path d="M 33.363281 456.921875 L 32.785156 453.875 C 31.617188 447.699219 30.960938 441.449219 30.839844 435.3125 C 30.792969 432.449219 30.925781 430.320312 31.28125 428.40625 L 31.570312 426.816406 L 30.40625 425.695312 C 23.574219 419.148438 16.550781 412.695312 9.53125 406.511719 L 4.664062 402.222656 L 4.089844 434.445312 C 3.957031 441.683594 4.230469 449.144531 9.003906 453.859375 C 11.941406 456.753906 16.128906 458.160156 21.8125 458.160156 C 24.226562 458.160156 26.921875 457.917969 30.296875 457.394531 Z M 33.363281 456.921875 " style=" stroke:none;fill-rule:nonzero;fill:rgb(97.647059%,84.705882%,53.72549%);fill-opacity:1;" />
<path d="M 263.460938 80.992188 C 259.152344 80.992188 254.660156 81.253906 250.265625 81.507812 C 249.0625 81.578125 247.871094 81.644531 246.667969 81.707031 C 231.699219 82.511719 216.539062 82.617188 203.683594 82.617188 C 199.382812 82.617188 195.105469 82.605469 190.859375 82.589844 C 186.546875 82.578125 182.167969 82.5625 177.769531 82.5625 C 172.777344 82.5625 168.425781 82.582031 164.472656 82.621094 C 153.609375 82.71875 142.441406 83.445312 135.730469 91.035156 C 130.828125 96.589844 129.753906 104.519531 129.132812 111.515625 C 128.015625 124.0625 127.953125 139.777344 137.453125 149.996094 C 142.261719 155.171875 149.617188 158.261719 157.128906 158.261719 C 161.019531 158.261719 164.828125 157.421875 168.144531 155.839844 C 178.117188 151.078125 184.457031 139.234375 182.894531 128.308594 C 182.75 127.269531 182.542969 126.253906 182.320312 125.148438 C 181.886719 123.054688 181.441406 120.886719 181.527344 118.636719 C 181.65625 115.324219 183.355469 111.546875 186.863281 110.585938 C 186.90625 110.574219 186.953125 110.566406 187 110.566406 C 187.101562 110.566406 187.199219 110.597656 187.296875 110.65625 C 187.414062 110.726562 187.496094 110.851562 187.527344 111.007812 C 188.761719 117.226562 194.226562 122.246094 200.511719 122.945312 C 201.015625 123 201.53125 123.03125 202.042969 123.03125 C 207.835938 123.03125 213.503906 119.394531 215.824219 114.191406 C 215.914062 113.996094 216.105469 113.875 216.328125 113.875 C 216.53125 113.875 216.71875 113.996094 216.800781 114.191406 C 219.09375 119.414062 224.699219 123.058594 230.429688 123.058594 C 230.582031 123.058594 230.738281 123.058594 230.894531 123.050781 C 236.804688 122.847656 242.335938 118.820312 244.355469 113.238281 C 244.425781 113.039062 244.605469 112.910156 244.828125 112.902344 C 244.9375 112.902344 245.207031 112.929688 245.335938 113.210938 C 247.289062 117.429688 251.53125 120.449219 256.132812 120.90625 C 256.554688 120.949219 256.976562 120.96875 257.398438 120.96875 C 261.625 120.96875 265.789062 118.878906 268.253906 115.523438 C 268.398438 115.328125 268.589844 115.296875 268.691406 115.296875 C 268.800781 115.296875 268.910156 115.332031 268.996094 115.398438 C 269.242188 115.574219 269.296875 115.902344 269.121094 116.160156 C 266.0625 120.542969 262.902344 125.074219 261.292969 130.25 C 259.539062 135.898438 260.136719 141.59375 262.898438 145.484375 C 266.144531 150.042969 272.234375 152.480469 281.515625 152.9375 C 282.667969 152.996094 283.695312 153.023438 284.652344 153.023438 C 290.238281 153.023438 294.566406 152.046875 297.886719 150.042969 C 305.519531 145.453125 307.679688 135.765625 308.289062 130.398438 L 308.359375 129.796875 L 308.1875 129.214844 C 308.144531 129.070312 308.1875 128.933594 308.226562 128.84375 L 308.472656 128.316406 L 308.503906 127.738281 C 309.230469 114.800781 305.222656 102.4375 297.515625 93.8125 C 287.425781 82.515625 274.636719 80.992188 263.460938 80.992188 Z M 166.238281 135.425781 C 164.515625 140.683594 159.238281 144.210938 153.109375 144.210938 C 152.425781 144.210938 151.710938 144.164062 150.988281 144.066406 C 147.410156 143.585938 144.472656 141.683594 142.9375 138.851562 C 141.472656 136.152344 141.460938 133.117188 142.898438 130.082031 C 144.441406 126.84375 147.796875 124.203125 151.882812 123.019531 C 153.375 122.582031 154.875 122.359375 156.34375 122.359375 C 158.753906 122.359375 160.984375 122.960938 162.792969 124.101562 C 166.347656 126.335938 167.730469 130.886719 166.238281 135.425781 Z M 297.167969 134.644531 C 295.4375 139.902344 290.15625 143.433594 284.027344 143.433594 C 283.285156 143.433594 282.597656 143.386719 281.902344 143.285156 C 278.335938 142.816406 275.40625 140.914062 273.855469 138.070312 C 272.414062 135.410156 272.402344 132.300781 273.832031 129.300781 C 275.359375 126.066406 278.710938 123.425781 282.796875 122.242188 C 284.285156 121.808594 285.785156 121.589844 287.253906 121.589844 C 289.671875 121.589844 291.90625 122.191406 293.707031 123.320312 C 297.261719 125.5625 298.652344 130.113281 297.167969 134.644531 Z M 297.167969 134.644531 " style=" stroke:none;fill-rule:nonzero;fill:rgb(74.901961%,78.039216%,84.705882%);fill-opacity:1;" />
<path d="M 431.527344 360.789062 C 427.109375 360.371094 423.101562 364.578125 419.367188 368.910156 C 418.917969 369.433594 418.542969 369.871094 418.265625 370.15625 C 413.0625 375.488281 407.863281 380.921875 402.804688 386.308594 C 392.644531 397.121094 382.550781 408.277344 372.800781 419.46875 C 361.773438 432.128906 350.867188 445.195312 340.390625 458.300781 C 339.53125 459.378906 339.375 460.863281 339.996094 462.09375 C 340.597656 463.292969 341.820312 464.042969 343.152344 464.042969 C 343.191406 464.042969 343.234375 464.042969 343.273438 464.042969 L 427.535156 461.152344 C 429.339844 461.089844 430.808594 459.671875 430.9375 457.871094 L 436.75 376.238281 C 436.789062 375.726562 436.914062 374.921875 437.046875 374.070312 C 437.574219 370.730469 438.167969 366.941406 436.582031 364.222656 C 435.402344 362.199219 433.609375 360.980469 431.527344 360.789062 Z M 378.132812 424.113281 C 387.824219 412.988281 397.859375 401.894531 407.957031 391.148438 C 410.398438 388.546875 412.875 385.9375 415.367188 383.332031 C 414.082031 384.671875 414.554688 392.433594 414.40625 394.585938 C 414.214844 397.355469 413.828125 400.042969 413.574219 402.808594 C 413.386719 402.917969 413.210938 403.050781 413.0625 403.21875 C 410.0625 406.667969 407.058594 410.117188 404.054688 413.570312 C 395.386719 423.527344 386.714844 433.484375 378.046875 443.441406 C 375.019531 446.914062 372.03125 450.429688 368.964844 453.871094 C 368.375 454.53125 367.554688 455.90625 366.738281 456.3125 C 363.582031 457.894531 352.703125 454.292969 350.746094 456.710938 C 359.664062 445.703125 368.851562 434.761719 378.132812 424.113281 Z M 412.957031 409.496094 L 408.792969 454.722656 L 372.496094 455.964844 Z M 430.0625 372.976562 C 429.90625 373.976562 429.757812 374.925781 429.699219 375.738281 L 424.113281 454.195312 L 415.917969 454.476562 L 422.964844 377.914062 C 423.03125 377.1875 422.875 376.492188 422.546875 375.898438 C 422.808594 375.628906 423.066406 375.359375 423.328125 375.089844 C 423.675781 374.734375 424.152344 374.183594 424.722656 373.523438 C 427.425781 370.386719 429.363281 368.53125 430.503906 367.988281 C 430.671875 369.101562 430.269531 371.675781 430.0625 372.976562 Z M 430.0625 372.976562 " style=" stroke:none;fill-rule:nonzero;fill:rgb(0%,0%,0%);fill-opacity:1;" />
<path d="M 151.035156 120.136719 C 146.140625 121.5625 142.085938 124.796875 140.195312 128.792969 C 138.351562 132.683594 138.386719 136.761719 140.300781 140.28125 C 142.304688 143.96875 146.054688 146.433594 150.585938 147.039062 C 151.433594 147.152344 152.277344 147.207031 153.109375 147.207031 C 160.441406 147.207031 166.941406 142.917969 169.09375 136.363281 C 171.023438 130.492188 169.128906 124.542969 164.386719 121.5625 C 160.714844 119.253906 155.851562 118.734375 151.035156 120.136719 Z M 165.253906 135.101562 C 163.246094 141.214844 156.472656 143.753906 151.121094 143.035156 C 147.878906 142.605469 145.230469 140.898438 143.847656 138.351562 C 142.570312 135.996094 142.566406 133.214844 143.84375 130.523438 C 145.25 127.558594 148.359375 125.125 152.164062 124.015625 C 153.582031 123.605469 154.988281 123.402344 156.339844 123.402344 C 158.53125 123.402344 160.570312 123.9375 162.234375 124.984375 C 165.867188 127.265625 166.371094 131.710938 165.253906 135.101562 Z M 165.253906 135.101562 " style=" stroke:none;fill-rule:nonzero;fill:rgb(0%,0%,0%);fill-opacity:1;" />
<path d="M 271.21875 139.503906 C 273.226562 143.191406 276.976562 145.65625 281.507812 146.261719 C 282.355469 146.375 283.199219 146.433594 284.03125 146.433594 C 291.363281 146.433594 297.863281 142.140625 300.015625 135.585938 C 301.945312 129.714844 300.050781 123.769531 295.308594 120.785156 C 291.640625 118.476562 286.773438 117.960938 281.957031 119.359375 C 277.0625 120.785156 273.007812 124.023438 271.117188 128.019531 C 269.273438 131.90625 269.308594 135.984375 271.21875 139.503906 Z M 274.765625 129.746094 C 276.171875 126.78125 279.28125 124.347656 283.085938 123.238281 C 284.5 122.828125 285.910156 122.625 287.261719 122.625 C 289.453125 122.625 291.492188 123.160156 293.160156 124.207031 C 296.789062 126.488281 297.292969 130.933594 296.179688 134.324219 C 294.167969 140.4375 287.394531 142.980469 282.042969 142.257812 C 278.804688 141.828125 276.152344 140.121094 274.773438 137.574219 C 273.492188 135.21875 273.488281 132.441406 274.765625 129.746094 Z M 274.765625 129.746094 " style=" stroke:none;fill-rule:nonzero;fill:rgb(0%,0%,0%);fill-opacity:1;" />
<path d="M 425.292969 125.371094 C 426.609375 126.398438 429.128906 128.359375 432.207031 128.359375 C 432.773438 128.359375 433.363281 128.289062 433.964844 128.136719 C 436.566406 127.484375 438.214844 125.476562 439.199219 124.277344 L 463.003906 95.300781 C 464.363281 93.644531 467.191406 90.207031 466.15625 86.050781 C 465.320312 82.699219 462.355469 80.863281 460.757812 79.875 L 445.621094 70.496094 C 454.730469 59.238281 459.6875 47.355469 460.003906 35.925781 C 460.449219 19.960938 450.960938 5.382812 437.445312 1.257812 C 428.109375 -1.589844 417.054688 0.445312 407.121094 6.847656 C 399.464844 11.785156 393.417969 18.414062 387.695312 25.042969 C 386.792969 24.460938 385.890625 23.875 384.992188 23.289062 C 381.496094 21.015625 377.882812 18.667969 374.183594 16.539062 C 366.679688 12.230469 363.179688 15.824219 359.476562 19.628906 L 358.609375 20.519531 C 352.746094 26.464844 346.882812 32.40625 341.019531 38.351562 L 331.867188 47.625 C 331.160156 48.34375 330.792969 49.328125 330.855469 50.335938 C 330.921875 51.34375 331.414062 52.273438 332.210938 52.894531 L 358.421875 73.300781 L 348.421875 83.5 L 289.953125 37.691406 C 287.953125 36.125 283.792969 32.863281 279.042969 34.167969 C 276.179688 34.953125 274.292969 37.144531 273.042969 38.59375 L 239.191406 77.898438 C 239.167969 77.921875 239.152344 77.953125 239.132812 77.984375 C 223.058594 78.617188 206.730469 78.570312 190.875 78.519531 C 182.253906 78.492188 173.339844 78.464844 164.589844 78.546875 C 163.402344 67.457031 161.804688 55.195312 155.894531 44.605469 C 150.730469 35.355469 142.859375 28.363281 135.242188 21.597656 C 129.773438 16.738281 124.113281 11.710938 119.71875 6 C 118.925781 4.972656 117.628906 4.460938 116.351562 4.671875 C 115.066406 4.878906 114.003906 5.773438 113.578125 7.003906 L 101 43.339844 C 99.136719 48.730469 97.207031 54.300781 96.613281 60.292969 C 96.226562 64.1875 96.519531 67.910156 97.402344 71.292969 C 88.375 67.832031 79.46875 64.066406 70.746094 59.964844 C 69.074219 59.175781 67.082031 59.808594 66.167969 61.414062 C 61.140625 70.25 58.230469 80.203125 57.679688 90.34375 C 54.136719 89.335938 50.605469 88.253906 47.097656 87.078125 C 45.296875 86.476562 43.347656 87.402344 42.671875 89.171875 C 37.511719 102.710938 35.257812 117.449219 36.101562 131.921875 L 31.488281 132.050781 C 23.953125 132.265625 15.464844 133.003906 10.109375 139.0625 C 5.179688 144.632812 5.039062 152.644531 4.945312 157.941406 L 0.0234375 434.371094 C -0.117188 442.140625 0.234375 450.914062 6.144531 456.75 C 10.363281 460.914062 15.84375 462.230469 21.746094 462.230469 C 24.871094 462.230469 28.117188 461.851562 31.355469 461.339844 C 33.726562 470.738281 37.257812 479.847656 41.894531 488.371094 C 44.71875 493.5625 49.285156 501.058594 56.304688 506.203125 C 61.480469 510 67.421875 512 73.105469 512 C 75.214844 512 77.285156 511.710938 79.269531 511.148438 C 79.425781 511.171875 79.585938 511.191406 79.75 511.191406 C 79.914062 511.191406 80.082031 511.183594 80.25 511.15625 C 111.964844 506.664062 143.8125 501.761719 174.613281 497.023438 C 205.390625 492.285156 237.214844 487.390625 268.890625 482.902344 C 275.285156 481.996094 281.554688 480.984375 287.457031 479.449219 L 280.222656 491.261719 C 279.539062 492.378906 279.527344 493.777344 280.191406 494.90625 C 280.828125 495.984375 281.988281 496.644531 283.234375 496.644531 C 283.289062 496.644531 283.339844 496.644531 283.394531 496.640625 L 439.527344 489.640625 C 443.417969 489.46875 450.65625 489.144531 454.488281 483.761719 C 456.851562 480.441406 456.984375 476.402344 457.078125 473.449219 L 462.832031 294.585938 C 462.878906 293.117188 462.011719 291.769531 460.652344 291.207031 C 459.292969 290.644531 457.726562 290.980469 456.71875 292.054688 L 430.632812 319.839844 L 439.597656 150.585938 C 439.792969 146.882812 440.160156 139.992188 435.378906 135.835938 C 432.214844 133.085938 428.105469 132.726562 425.101562 132.460938 C 409.695312 131.109375 394.324219 130.828125 379.273438 130.769531 L 403.035156 108.039062 Z M 346.050781 43.3125 C 351.914062 37.371094 357.78125 31.425781 363.644531 25.480469 L 364.542969 24.558594 C 367.917969 21.089844 367.917969 21.09375 370.664062 22.667969 C 374.191406 24.699219 377.722656 26.996094 381.136719 29.214844 C 382.917969 30.375 384.699219 31.535156 386.492188 32.664062 C 387.972656 33.601562 389.917969 33.308594 391.058594 31.976562 C 397.058594 24.980469 403.257812 17.746094 410.953125 12.789062 C 419.132812 7.519531 428.039062 5.777344 435.378906 8.019531 C 445.742188 11.183594 453.289062 23.09375 452.9375 35.730469 C 452.554688 49.414062 444.402344 61.371094 437.628906 68.996094 C 436.9375 69.773438 436.625 70.820312 436.773438 71.851562 C 436.921875 72.886719 437.523438 73.796875 438.410156 74.347656 L 457.035156 85.886719 C 457.558594 86.210938 459.152344 87.199219 459.292969 87.761719 C 459.359375 88.023438 459.21875 88.769531 457.539062 90.8125 L 433.734375 119.789062 C 433.449219 120.136719 432.582031 121.191406 432.234375 121.28125 C 432.152344 121.3125 431.613281 121.332031 429.632812 119.792969 C 424.648438 115.636719 419.316406 111.789062 414.257812 107.632812 C 408.285156 102.726562 402.273438 97.871094 396.21875 93.0625 C 377.617188 78.296875 358.410156 64.335938 339.6875 49.757812 Z M 278.402344 43.207031 C 279.128906 42.359375 280.128906 41.199219 280.914062 40.984375 C 282.234375 40.621094 284.589844 42.46875 285.59375 43.257812 L 343.445312 88.578125 L 312.46875 120.171875 C 311.574219 109.074219 307.429688 98.800781 300.550781 91.101562 C 286.457031 75.332031 267.941406 76.402344 250.03125 77.441406 C 249.636719 77.464844 249.246094 77.488281 248.855469 77.507812 Z M 190.851562 85.585938 C 209.222656 85.648438 228.214844 85.703125 246.828125 84.703125 C 248.03125 84.640625 249.234375 84.570312 250.4375 84.5 C 267.417969 83.519531 283.460938 82.585938 295.28125 95.8125 C 302.503906 103.898438 306.191406 115.414062 305.503906 127.574219 C 305.132812 128.359375 305.070312 129.242188 305.308594 130.066406 C 304.777344 134.734375 302.910156 143.519531 296.335938 147.476562 C 292 150.085938 286.214844 150.164062 281.664062 149.941406 C 273.363281 149.535156 268.023438 147.503906 265.34375 143.738281 C 263.121094 140.613281 262.675781 135.90625 264.160156 131.140625 C 265.632812 126.40625 268.660156 122.0625 271.589844 117.859375 C 272.695312 116.269531 272.320312 114.089844 270.746094 112.960938 C 269.171875 111.835938 266.988281 112.1875 265.839844 113.746094 C 263.742188 116.601562 259.96875 118.28125 256.4375 117.925781 C 252.914062 117.570312 249.546875 115.167969 248.0625 111.949219 C 247.460938 110.644531 246.136719 109.851562 244.699219 109.898438 C 243.265625 109.960938 242.011719 110.882812 241.527344 112.234375 C 239.953125 116.605469 235.441406 119.894531 230.792969 120.054688 C 226.132812 120.210938 221.421875 117.238281 219.554688 112.984375 C 218.992188 111.703125 217.726562 110.871094 216.328125 110.867188 C 216.324219 110.867188 216.320312 110.867188 216.316406 110.867188 C 214.921875 110.867188 213.65625 111.691406 213.089844 112.964844 C 211.058594 117.511719 205.792969 120.523438 200.851562 119.964844 C 195.902344 119.410156 191.441406 115.304688 190.472656 110.417969 C 190.28125 109.457031 189.699219 108.617188 188.867188 108.101562 C 188.03125 107.582031 187.019531 107.4375 186.074219 107.695312 C 181.105469 109.050781 178.703125 114.113281 178.53125 118.523438 C 178.425781 121.105469 178.910156 123.46875 179.378906 125.757812 C 179.585938 126.789062 179.785156 127.761719 179.921875 128.71875 C 181.3125 138.414062 175.695312 148.910156 166.855469 153.132812 C 158.019531 157.355469 146.320312 155.128906 139.652344 147.953125 C 130.957031 138.605469 131.058594 123.714844 132.117188 111.789062 C 132.695312 105.265625 133.675781 97.898438 137.976562 93.027344 C 143.859375 86.371094 154.304688 85.714844 164.5 85.621094 C 173.253906 85.535156 182.203125 85.5625 190.851562 85.585938 Z M 186.957031 128.078125 C 186.941406 127.957031 186.9375 127.835938 186.921875 127.714844 C 186.753906 126.550781 186.523438 125.429688 186.300781 124.339844 C 185.902344 122.378906 185.523438 120.527344 185.589844 118.804688 C 185.609375 118.398438 185.664062 117.976562 185.761719 117.558594 C 188.773438 122.640625 194.125 126.320312 200.058594 126.988281 C 206.101562 127.667969 212.234375 125.171875 216.296875 120.753906 C 220.003906 124.835938 225.484375 127.308594 231.03125 127.117188 C 236.523438 126.933594 241.753906 124.15625 245.179688 119.917969 C 248.003906 122.707031 251.757812 124.558594 255.726562 124.957031 C 256.816406 125.066406 257.90625 125.066406 258.988281 124.964844 C 258.382812 126.28125 257.84375 127.636719 257.410156 129.039062 C 257.359375 129.195312 257.320312 129.351562 257.277344 129.507812 Z M 157.5 78.769531 C 155.570312 78.882812 153.632812 79.0625 151.722656 79.335938 L 145.449219 53.359375 C 146.828125 53.5625 148.28125 53.476562 149.714844 53.070312 C 150.441406 52.867188 151.125 52.589844 151.765625 52.25 C 155.300781 60.558594 156.554688 70.011719 157.5 78.769531 Z M 142.230469 57.230469 L 147.746094 80.070312 C 143.996094 80.921875 140.4375 82.257812 137.296875 84.347656 C 137.03125 84.195312 136.753906 84.0625 136.445312 83.980469 C 135.414062 83.703125 134.386719 83.402344 133.355469 83.117188 C 129.675781 75.980469 126.980469 68.402344 125.332031 60.546875 C 128.460938 62.355469 132.328125 62.894531 135.804688 61.808594 C 138.371094 61.007812 140.609375 59.355469 142.230469 57.230469 Z M 118.230469 15.171875 C 122.101562 19.378906 126.378906 23.175781 130.546875 26.882812 C 130.917969 27.210938 131.28125 27.535156 131.648438 27.859375 C 130.285156 31.359375 126.871094 34.015625 123.128906 34.402344 C 119.273438 34.800781 115.277344 32.78125 113.28125 29.472656 Z M 111.710938 34.003906 C 114.425781 36.792969 118.292969 38.492188 122.1875 38.492188 C 122.636719 38.492188 123.09375 38.46875 123.542969 38.421875 C 128.257812 37.933594 132.59375 34.863281 134.789062 30.679688 C 140.667969 36.027344 146.015625 41.414062 149.71875 48.050781 C 149.820312 48.230469 149.910156 48.417969 150.007812 48.597656 C 149.578125 48.839844 149.113281 49.042969 148.613281 49.183594 C 146.960938 49.652344 145.234375 49.4375 144 48.609375 C 143.40625 48.210938 142.640625 48.15625 141.996094 48.46875 C 141.351562 48.777344 140.917969 49.410156 140.859375 50.125 C 140.578125 53.617188 137.945312 56.910156 134.601562 57.953125 C 131.257812 58.996094 127.21875 57.785156 125 55.074219 C 124.550781 54.523438 123.855469 54.253906 123.148438 54.351562 C 122.445312 54.453125 121.851562 54.914062 121.574219 55.566406 C 120.128906 59 116.816406 61.574219 113.136719 62.125 C 109.808594 62.621094 106.296875 61.441406 103.890625 59.101562 C 104.597656 54.566406 106.160156 50.042969 107.679688 45.652344 Z M 103.527344 63.910156 C 105.945312 65.425781 108.78125 66.273438 111.632812 66.273438 C 112.335938 66.273438 113.039062 66.222656 113.734375 66.117188 C 116.65625 65.683594 119.398438 64.300781 121.582031 62.316406 C 123.054688 68.992188 125.253906 75.46875 128.144531 81.65625 C 120.867188 79.539062 113.648438 77.183594 106.496094 74.644531 C 104.566406 71.839844 103.554688 68.097656 103.527344 63.910156 Z M 70.785156 67.777344 C 90.324219 76.761719 110.695312 84.183594 131.421875 89.914062 C 129.195312 92.921875 127.789062 96.308594 126.859375 99.796875 C 126.636719 99.75 126.410156 99.726562 126.175781 99.726562 C 126.167969 99.726562 126.164062 99.726562 126.15625 99.726562 C 105.339844 99.808594 84.75 97.296875 64.6875 92.222656 C 64.925781 83.742188 67.011719 75.367188 70.785156 67.777344 Z M 48.136719 94.855469 C 72.972656 102.785156 98.75 106.800781 124.839844 106.800781 C 125.070312 106.800781 125.300781 106.796875 125.535156 106.796875 C 125.347656 108.273438 125.203125 109.734375 125.074219 111.160156 C 124.570312 116.84375 124.285156 123.144531 124.925781 129.386719 L 43.167969 131.714844 C 42.414062 119.289062 44.117188 106.644531 48.136719 94.855469 Z M 15.40625 143.742188 C 18.890625 139.800781 25.359375 139.296875 31.6875 139.117188 L 50.351562 138.585938 L 11.628906 179.675781 L 12.011719 158.066406 C 12.113281 152.425781 12.445312 147.085938 15.40625 143.742188 Z M 11.109375 451.714844 C 7.1875 447.847656 6.972656 441.089844 7.089844 434.496094 L 7.546875 408.765625 C 14.59375 414.976562 21.566406 421.375 28.332031 427.863281 C 27.863281 430.363281 27.796875 432.9375 27.84375 435.363281 C 27.96875 441.761719 28.648438 448.144531 29.835938 454.429688 C 22.472656 455.566406 15.285156 455.839844 11.109375 451.714844 Z M 60.488281 500.503906 C 56.011719 497.222656 52.078125 492.292969 48.105469 484.992188 C 39.816406 469.765625 35.253906 452.554688 34.914062 435.222656 C 34.835938 431.265625 35.078125 426.871094 37.488281 424.277344 C 39.601562 422 43.203125 421.210938 47.347656 420.480469 C 81.601562 414.457031 116.15625 409.175781 150.835938 404.644531 C 154.703125 407.390625 158.257812 410.550781 161.445312 414.046875 C 126.476562 418.800781 92.023438 424.042969 58.757812 429.699219 C 58.253906 429.785156 57.796875 429.980469 57.398438 430.246094 C 51.917969 431.796875 47.183594 435.339844 44.742188 440.164062 C 40.441406 448.671875 43.488281 458.347656 46.683594 466.746094 C 48.078125 470.414062 49.65625 474.566406 52.738281 477.914062 C 55.265625 480.65625 58.5 482.324219 61.734375 482.722656 C 62.207031 482.949219 62.730469 483.082031 63.273438 483.082031 C 63.578125 483.082031 63.894531 483.042969 64.203125 482.957031 C 68.707031 481.730469 73.511719 480.925781 78.160156 480.148438 C 82.335938 479.449219 86.628906 478.710938 90.851562 477.671875 C 91.164062 481.332031 91.097656 485.113281 90.300781 488.753906 C 88.648438 496.304688 83.699219 502.390625 77.6875 504.261719 C 72.457031 505.886719 65.863281 504.449219 60.488281 500.503906 Z M 291.871094 390.453125 C 292.179688 390.429688 292.472656 390.355469 292.753906 390.261719 C 299.597656 389.917969 304.679688 393.691406 307.945312 397.351562 C 272.6875 400.589844 237.042969 404.4375 201.667969 408.816406 C 198.609375 405.28125 195.136719 402.214844 191.335938 399.707031 C 224.847656 395.910156 258.410156 392.808594 291.871094 390.453125 Z M 176.164062 489.632812 C 183.015625 475.191406 184.871094 458.488281 181.199219 442.898438 C 179.257812 434.671875 175.789062 426.867188 171.117188 419.871094 C 181.355469 418.507812 191.632812 417.183594 201.933594 415.90625 C 206.472656 422.457031 209.722656 430.226562 211.121094 438.535156 C 213.527344 452.808594 211.078125 468.929688 204.039062 485.359375 C 194.675781 486.785156 185.375 488.214844 176.164062 489.632812 Z M 91.703125 502.375 C 94.28125 498.976562 96.199219 494.847656 97.203125 490.265625 C 99.226562 481.015625 97.421875 471.511719 95.625 464.265625 C 94.066406 457.980469 91.664062 449.886719 86.878906 443.007812 C 84.226562 439.199219 80.992188 436.0625 77.4375 433.753906 C 106.515625 428.992188 136.390625 424.546875 166.644531 420.472656 C 171.625 427.476562 175.285156 435.421875 177.265625 443.824219 C 180.945312 459.429688 178.753906 476.222656 171.28125 490.382812 C 145.238281 494.390625 118.476562 498.5 91.703125 502.375 Z M 65.859375 436.617188 C 70.707031 437.363281 75.464844 440.261719 79.25 444.691406 L 63.140625 450.457031 C 61.300781 451.113281 60.34375 453.136719 61.003906 454.976562 C 61.257812 455.6875 61.714844 456.261719 62.289062 456.667969 C 62.359375 456.800781 62.421875 456.9375 62.511719 457.066406 C 64.816406 460.367188 67.425781 464.105469 67.988281 467.984375 C 68.417969 470.949219 67.121094 474.699219 64.507812 475.558594 C 62.226562 476.304688 59.5 474.820312 57.9375 473.121094 C 55.777344 470.78125 54.511719 467.453125 53.289062 464.234375 C 50.507812 456.925781 48.046875 449.292969 51.046875 443.355469 C 53.460938 438.585938 59.832031 435.683594 65.859375 436.617188 Z M 74.984375 466.96875 C 74.351562 462.59375 72.183594 458.769531 70.011719 455.503906 L 83.300781 450.746094 C 86.011719 455.832031 87.632812 461.410156 88.765625 465.964844 C 89.128906 467.433594 89.492188 469.007812 89.820312 470.644531 C 85.644531 471.710938 81.257812 472.460938 76.992188 473.175781 C 76.171875 473.3125 75.339844 473.453125 74.507812 473.597656 C 75.132812 471.402344 75.292969 469.085938 74.984375 466.96875 Z M 184.59375 400.46875 C 189.011719 402.667969 193.085938 405.726562 196.667969 409.441406 C 186.5 410.714844 176.355469 412.03125 166.253906 413.390625 C 163.332031 409.933594 160.082031 406.75 156.550781 403.90625 C 165.894531 402.707031 175.242188 401.558594 184.59375 400.46875 Z M 267.898438 475.902344 C 248.121094 478.703125 228.292969 481.667969 208.699219 484.648438 C 215.300781 468.292969 217.527344 452.230469 215.105469 437.863281 C 213.714844 429.609375 210.726562 421.949219 206.523438 415.34375 C 241.8125 411.019531 277.347656 407.214844 312.476562 404.03125 C 315.640625 410.261719 317.144531 417.996094 317.171875 428.132812 C 317.210938 442.441406 314.011719 453.34375 307.664062 460.539062 C 298.609375 470.808594 283.6875 473.664062 267.898438 475.902344 Z M 450.015625 473.222656 C 449.929688 475.878906 449.773438 478.199219 448.734375 479.660156 C 447.121094 481.921875 443.203125 482.402344 439.210938 482.578125 L 289.726562 489.277344 L 296.980469 477.4375 C 297.242188 477.007812 297.402344 476.542969 297.464844 476.078125 C 299.980469 475.003906 302.378906 473.757812 304.644531 472.300781 L 308.570312 476.011719 C 308.960938 476.382812 309.460938 476.5625 309.957031 476.5625 C 310.492188 476.5625 311.03125 476.351562 311.425781 475.933594 C 312.191406 475.121094 312.15625 473.839844 311.34375 473.074219 L 307.988281 469.90625 C 309.753906 468.507812 311.425781 466.964844 312.964844 465.214844 C 314.027344 464.011719 315.007812 462.71875 315.917969 461.359375 L 318.980469 463.566406 C 319.335938 463.824219 319.75 463.949219 320.160156 463.949219 C 320.785156 463.949219 321.40625 463.65625 321.800781 463.109375 C 322.453125 462.203125 322.246094 460.941406 321.339844 460.289062 L 318.003906 457.886719 C 319.585938 454.921875 320.859375 451.640625 321.839844 448.070312 L 326.664062 452.558594 C 327.054688 452.921875 327.546875 453.101562 328.039062 453.101562 C 328.582031 453.101562 329.121094 452.882812 329.519531 452.457031 C 330.277344 451.636719 330.234375 450.359375 329.414062 449.601562 L 323.589844 444.183594 L 331.878906 435.351562 L 338.324219 439.09375 C 338.644531 439.28125 338.992188 439.367188 339.335938 439.367188 C 340.03125 439.367188 340.710938 439.007812 341.085938 438.363281 C 341.644531 437.398438 341.316406 436.164062 340.355469 435.601562 L 334.71875 432.328125 L 342.328125 424.222656 L 349.675781 430.816406 C 350.0625 431.160156 350.542969 431.332031 351.023438 431.332031 C 351.578125 431.332031 352.128906 431.105469 352.527344 430.660156 C 353.273438 429.832031 353.203125 428.554688 352.371094 427.808594 L 345.09375 421.277344 L 351.925781 414 L 359.15625 418.746094 C 359.496094 418.96875 359.882812 419.074219 360.261719 419.074219 C 360.921875 419.074219 361.566406 418.753906 361.953125 418.164062 C 362.566406 417.230469 362.304688 415.980469 361.371094 415.367188 L 354.734375 411.011719 L 364.644531 400.457031 L 369.921875 404.730469 C 370.296875 405.035156 370.746094 405.179688 371.191406 405.179688 C 371.78125 405.179688 372.363281 404.925781 372.761719 404.433594 C 373.464844 403.566406 373.332031 402.292969 372.464844 401.589844 L 367.414062 397.503906 L 373.839844 390.660156 L 381.265625 396.160156 C 381.628906 396.429688 382.050781 396.558594 382.46875 396.558594 C 383.085938 396.558594 383.695312 396.277344 384.089844 395.738281 C 384.753906 394.84375 384.566406 393.578125 383.671875 392.914062 L 376.625 387.695312 L 385.070312 378.699219 L 393.699219 384.207031 C 394.035156 384.417969 394.414062 384.523438 394.785156 384.523438 C 395.453125 384.523438 396.105469 384.191406 396.488281 383.585938 C 397.089844 382.648438 396.8125 381.398438 395.871094 380.796875 L 387.882812 375.703125 L 396.984375 366.007812 L 403.488281 371.191406 C 403.863281 371.488281 404.304688 371.632812 404.746094 371.632812 C 405.339844 371.632812 405.929688 371.371094 406.328125 370.871094 C 407.023438 370 406.878906 368.726562 406.003906 368.03125 L 399.757812 363.054688 L 407.453125 354.855469 C 409.582031 356.820312 412.332031 358.128906 415.199219 358.472656 C 415.277344 358.480469 415.359375 358.488281 415.441406 358.488281 C 416.449219 358.488281 417.320312 357.734375 417.441406 356.707031 C 417.574219 355.601562 416.785156 354.59375 415.675781 354.460938 C 413.65625 354.21875 411.714844 353.296875 410.214844 351.914062 L 417.785156 343.851562 L 424.863281 347.863281 C 425.175781 348.039062 425.519531 348.125 425.855469 348.125 C 426.5625 348.125 427.242188 347.753906 427.617188 347.101562 C 428.164062 346.128906 427.824219 344.898438 426.855469 344.34375 L 420.632812 340.820312 L 429.605469 331.257812 L 434.660156 335.453125 C 435.035156 335.765625 435.492188 335.917969 435.949219 335.917969 C 436.527344 335.917969 437.105469 335.667969 437.503906 335.1875 C 438.214844 334.328125 438.097656 333.054688 437.238281 332.34375 L 432.375 328.308594 L 441.1875 318.925781 L 447.085938 323.652344 C 447.460938 323.949219 447.90625 324.09375 448.347656 324.09375 C 448.941406 324.09375 449.527344 323.835938 449.925781 323.335938 C 450.625 322.464844 450.484375 321.195312 449.613281 320.496094 L 443.960938 315.972656 L 455.460938 303.722656 Z M 324.105469 433.304688 C 324.195312 431.617188 324.246094 429.890625 324.238281 428.113281 C 324.207031 415.558594 322.054688 406.125 317.464844 398.429688 C 311.277344 388.050781 301.582031 382.382812 291.53125 383.234375 C 291.207031 383.261719 290.90625 383.347656 290.617188 383.457031 C 208.976562 389.234375 126.722656 399.34375 46.125 413.519531 C 41.632812 414.308594 38.710938 414.871094 35.007812 417.566406 C 34.246094 418.121094 28.230469 422.191406 29.644531 423.539062 C 22.476562 416.707031 15.101562 409.972656 7.652344 403.46875 C 7.007812 402.910156 8.03125 394.96875 8.023438 393.980469 C 7.984375 388.550781 8.007812 383.128906 8.105469 377.714844 C 8.289062 367.367188 8.472656 357.023438 8.65625 346.675781 C 9.175781 317.527344 9.695312 288.382812 10.214844 259.234375 C 10.441406 246.511719 10.667969 233.789062 10.894531 221.066406 C 10.976562 216.460938 11.054688 211.855469 11.136719 207.25 C 11.238281 201.667969 12.515625 196.121094 12.105469 190.59375 C 12.027344 189.539062 11.203125 187.265625 11.375 186.3125 C 11.851562 183.703125 14.738281 182.261719 16.445312 180.457031 C 20.414062 176.246094 24.378906 172.039062 28.34375 167.832031 C 36.558594 159.113281 44.773438 150.398438 52.988281 141.679688 C 57.175781 137.238281 63.511719 138.777344 68.757812 138.0625 C 73.128906 137.464844 77.839844 137.800781 82.246094 137.675781 C 94.855469 137.316406 107.464844 136.957031 120.074219 136.601562 C 122.082031 136.542969 124.089844 136.484375 126.101562 136.425781 C 127.519531 142.386719 130.085938 148.042969 134.476562 152.765625 C 140.265625 158.996094 148.667969 162.359375 157.066406 162.359375 C 161.472656 162.359375 165.878906 161.433594 169.902344 159.507812 C 179.34375 155 185.820312 145.421875 187.003906 135.148438 L 256.242188 136.558594 C 256.242188 140.777344 257.375 144.730469 259.585938 147.835938 C 263.605469 153.484375 270.714844 156.480469 281.320312 157.003906 C 286.875 157.273438 294.015625 157.125 299.984375 153.53125 C 306.8125 149.421875 309.960938 142.3125 311.414062 136.195312 C 311.484375 135.890625 343.960938 137.6875 347.023438 137.726562 C 356.136719 137.839844 365.210938 138.464844 374.316406 138.769531 C 377.59375 138.878906 380.09375 137.898438 382.929688 139.585938 C 386.59375 141.769531 389.933594 145.964844 393.027344 148.90625 C 400.886719 156.386719 408.484375 164.148438 415.785156 172.175781 C 419.4375 176.191406 423.015625 180.269531 426.515625 184.414062 C 432.605469 191.621094 430.070312 197.546875 429.585938 206.003906 C 429.289062 211.210938 429.035156 216.421875 428.757812 221.628906 C 427.980469 236.3125 427.203125 250.996094 426.425781 265.675781 C 425.375 285.472656 424.328125 305.269531 423.277344 325.066406 C 423.238281 325.816406 423.441406 326.519531 423.808594 327.113281 Z M 430.742188 141.175781 C 432.65625 142.835938 432.738281 146.5 432.539062 150.214844 L 430.789062 183.257812 C 417.332031 167.1875 402.683594 151.964844 387.113281 137.898438 C 399.480469 138.03125 412.003906 138.410156 424.484375 139.503906 C 427.125 139.738281 429.417969 140.023438 430.742188 141.175781 Z M 370.425781 129.453125 C 370.035156 129.828125 369.757812 130.273438 369.578125 130.75 C 368.941406 130.75 368.304688 130.746094 367.671875 130.746094 C 349.960938 130.742188 331.675781 130.71875 313.460938 129.261719 L 321.800781 120.753906 L 329.6875 127.789062 C 330.074219 128.132812 330.550781 128.300781 331.03125 128.300781 C 331.585938 128.300781 332.140625 128.074219 332.539062 127.625 C 333.28125 126.792969 333.207031 125.515625 332.375 124.773438 L 324.632812 117.867188 L 331.902344 110.449219 C 334.316406 111.917969 336.347656 113.988281 337.734375 116.460938 C 338.105469 117.121094 338.792969 117.492188 339.5 117.492188 C 339.832031 117.492188 340.171875 117.410156 340.488281 117.234375 C 341.457031 116.6875 341.804688 115.457031 341.257812 114.484375 C 339.683594 111.683594 337.445312 109.292969 334.789062 107.507812 L 342.230469 99.917969 L 349.574219 107.015625 C 349.964844 107.394531 350.46875 107.582031 350.976562 107.582031 C 351.503906 107.582031 352.03125 107.378906 352.425781 106.96875 C 353.203125 106.164062 353.179688 104.886719 352.378906 104.113281 L 345.054688 97.035156 L 352.722656 89.210938 L 360.457031 94.546875 C 360.808594 94.789062 361.207031 94.902344 361.601562 94.902344 C 362.246094 94.902344 362.875 94.597656 363.269531 94.03125 C 363.902344 93.113281 363.667969 91.855469 362.75 91.21875 L 355.59375 86.285156 L 364.035156 77.675781 L 397.398438 103.652344 Z M 370.425781 129.453125 " style=" stroke:none;fill-rule:nonzero;fill:rgb(0%,0%,0%);fill-opacity:1;" />
<path d="M 410.027344 51.21875 C 413.34375 53.667969 417.453125 54.96875 421.5 54.96875 C 423.222656 54.96875 424.9375 54.734375 426.574219 54.246094 C 431.492188 52.785156 435.289062 49.464844 437.257812 44.894531 C 439.417969 39.886719 439.160156 34.046875 436.546875 28.875 C 432.460938 20.785156 421.480469 19.902344 413.222656 23.726562 C 406.699219 26.746094 402.570312 33.351562 403.179688 39.789062 C 403.597656 44.152344 406.089844 48.316406 410.027344 51.21875 Z M 414.921875 27.390625 C 420.425781 24.84375 429.652344 24.183594 432.941406 30.695312 C 434.980469 34.738281 435.210938 39.449219 433.550781 43.292969 C 432.0625 46.746094 429.175781 49.261719 425.421875 50.375 C 421.144531 51.648438 416.160156 50.722656 412.421875 47.96875 C 409.457031 45.78125 407.503906 42.578125 407.203125 39.40625 C 406.757812 34.71875 410.003906 29.667969 414.921875 27.390625 Z M 414.921875 27.390625 " style=" stroke:none;fill-rule:nonzero;fill:rgb(0%,0%,0%);fill-opacity:1;" />
<path d="M 380.714844 202.957031 C 373 202.136719 365.621094 200.707031 357.46875 199.0625 C 339.699219 195.476562 321.578125 192.421875 303.621094 189.988281 C 293.578125 188.625 283.402344 187.433594 273.378906 186.4375 C 269.628906 186.066406 262.648438 185.371094 258.222656 189.546875 C 255.035156 192.554688 254.242188 196.839844 253.65625 201.335938 L 249.195312 235.433594 C 248.613281 239.871094 247.738281 246.574219 251.183594 251.636719 C 255.066406 257.335938 262.363281 258.542969 268.898438 259.230469 L 363.46875 269.148438 C 365.042969 269.3125 366.863281 269.503906 368.757812 269.503906 C 371.433594 269.503906 374.265625 269.125 376.792969 267.757812 C 382.886719 264.464844 384.800781 257.242188 385.957031 249.929688 L 390.738281 219.777344 C 391.617188 214.226562 390.9375 209.9375 388.707031 207.027344 C 386.925781 204.703125 384.238281 203.332031 380.714844 202.957031 Z M 386.75 219.144531 L 381.96875 249.292969 C 381.039062 255.152344 379.648438 261.621094 374.871094 264.203125 C 371.894531 265.8125 368.136719 265.574219 363.886719 265.128906 L 269.320312 255.210938 C 263.6875 254.621094 257.433594 253.632812 254.523438 249.359375 C 252.136719 245.859375 252.535156 241.023438 253.199219 235.957031 L 257.660156 201.859375 C 258.152344 198.113281 258.773438 194.578125 260.992188 192.484375 C 262.902344 190.683594 265.695312 190.195312 268.625 190.195312 C 270.074219 190.195312 271.554688 190.3125 272.980469 190.453125 C 282.957031 191.445312 293.082031 192.632812 303.078125 193.988281 C 320.949219 196.414062 338.980469 199.453125 356.667969 203.023438 C 364.921875 204.6875 372.398438 206.132812 380.285156 206.976562 C 382.695312 207.230469 384.402344 208.050781 385.496094 209.484375 C 387.007812 211.453125 387.4375 214.792969 386.75 219.144531 Z M 386.75 219.144531 " style=" stroke:none;fill-rule:nonzero;fill:rgb(0%,0%,0%);fill-opacity:1;" />
<path d="M 145.9375 287.554688 C 145.195312 285.070312 144.074219 281.316406 140.996094 279.289062 C 137.546875 277.019531 133.363281 277.8125 129.707031 278.734375 C 116.53125 282.0625 103.238281 285.703125 90.203125 289.554688 C 78.699219 292.949219 67.082031 296.605469 55.675781 300.410156 C 54.488281 300.808594 53.085938 301.195312 51.609375 301.601562 C 44.382812 303.59375 34.492188 306.320312 33.363281 315.101562 C 32.425781 322.378906 36.179688 330.894531 39.488281 338.40625 C 40.636719 341.011719 41.71875 343.472656 42.496094 345.644531 L 54.8125 379.980469 C 55.421875 381.675781 56.339844 384.238281 58.59375 385.636719 C 59.832031 386.410156 61.195312 386.664062 62.496094 386.664062 C 64.054688 386.664062 65.527344 386.300781 66.601562 386.039062 L 156.433594 364.011719 C 158.558594 363.492188 161.46875 362.777344 163.386719 360.527344 C 166.246094 357.167969 165.390625 352.5625 164.171875 348.5 Z M 37.371094 315.617188 C 38.15625 309.5 46.210938 307.28125 52.679688 305.496094 C 54.214844 305.074219 55.664062 304.671875 56.953125 304.242188 C 68.316406 300.449219 79.886719 296.8125 91.347656 293.425781 C 104.332031 289.589844 117.574219 285.964844 130.699219 282.648438 L 130.695312 282.648438 C 133.644531 281.90625 136.699219 281.292969 138.773438 282.660156 C 140.480469 283.785156 141.308594 286.164062 142.070312 288.710938 L 145.96875 301.75 C 145.496094 301.628906 144.984375 301.667969 144.519531 301.914062 C 136.214844 306.304688 131.695312 316.535156 133.660156 325.636719 C 132.824219 325.734375 132.019531 325.859375 131.222656 325.992188 C 131.183594 325.867188 131.128906 325.746094 131.0625 325.625 C 127.226562 318.8125 118.941406 314.75 110.921875 315.753906 C 103.277344 316.707031 96.28125 322.074219 93.101562 329.421875 C 90.449219 335.546875 90.445312 342.742188 92.992188 349.175781 C 86.1875 349.507812 79.433594 351.023438 73.21875 353.710938 C 73.507812 346.0625 70.03125 338.351562 63.921875 333.660156 C 57.34375 328.605469 48.167969 327.410156 40.484375 330.441406 C 38.40625 325.242188 36.808594 319.976562 37.371094 315.617188 Z M 109.847656 350.855469 C 105.789062 349.8125 101.59375 349.246094 97.382812 349.132812 C 94.65625 343.398438 94.417969 336.546875 96.804688 331.027344 C 99.429688 324.964844 105.167969 320.542969 111.421875 319.761719 C 117.570312 318.996094 123.894531 321.914062 127.109375 326.90625 C 122.316406 328.230469 118.351562 330.347656 115.304688 333.273438 C 110.894531 337.507812 108.214844 344.585938 109.847656 350.855469 Z M 160.3125 357.90625 C 159.320312 359.070312 157.535156 359.582031 155.476562 360.085938 L 65.640625 382.113281 C 63.800781 382.566406 61.90625 382.941406 60.726562 382.207031 C 59.746094 381.601562 59.191406 380.222656 58.617188 378.617188 L 46.300781 344.28125 C 45.472656 341.972656 44.363281 339.449219 43.1875 336.78125 C 42.804688 335.921875 42.421875 335.046875 42.039062 334.164062 C 48.414062 331.675781 56.011719 332.671875 61.460938 336.863281 C 67.382812 341.410156 70.332031 349.378906 68.796875 356.6875 C 68.636719 357.453125 68.933594 358.238281 69.554688 358.710938 C 69.910156 358.984375 70.34375 359.121094 70.777344 359.121094 C 71.09375 359.121094 71.414062 359.046875 71.703125 358.894531 C 84.183594 352.429688 99.554688 351.335938 112.820312 355.972656 C 113.644531 356.261719 114.558594 355.988281 115.089844 355.296875 C 115.621094 354.605469 115.648438 353.648438 115.15625 352.929688 C 111.613281 347.734375 113.925781 340.195312 118.101562 336.1875 C 122.1875 332.265625 128.347656 329.996094 136.40625 329.445312 C 137.039062 329.402344 137.613281 329.0625 137.960938 328.535156 C 138.304688 328.003906 138.382812 327.339844 138.167969 326.746094 C 135.402344 319.046875 139.175781 309.3125 146.40625 305.484375 C 146.621094 305.371094 146.800781 305.21875 146.957031 305.046875 L 160.304688 349.65625 C 161.207031 352.675781 161.917969 356.019531 160.3125 357.90625 Z M 160.3125 357.90625 " style=" stroke:none;fill-rule:nonzero;fill:rgb(0%,0%,0%);fill-opacity:1;" />
<path d="M 73.519531 334.058594 L 82.78125 335.859375 C 82.914062 335.886719 83.042969 335.898438 83.171875 335.898438 C 84.117188 335.898438 84.964844 335.230469 85.152344 334.265625 C 85.363281 333.167969 84.648438 332.109375 83.554688 331.898438 L 74.289062 330.09375 C 73.195312 329.878906 72.136719 330.597656 71.921875 331.691406 C 71.710938 332.785156 72.425781 333.84375 73.519531 334.058594 Z M 73.519531 334.058594 " style=" stroke:none;fill-rule:nonzero;fill:rgb(0%,0%,0%);fill-opacity:1;" />
<path d="M 78.335938 320.398438 L 88.316406 325.390625 C 88.609375 325.535156 88.914062 325.601562 89.21875 325.601562 C 89.960938 325.601562 90.671875 325.195312 91.027344 324.488281 C 91.527344 323.488281 91.121094 322.277344 90.121094 321.777344 L 80.144531 316.785156 C 79.144531 316.289062 77.929688 316.691406 77.433594 317.691406 C 76.933594 318.6875 77.339844 319.902344 78.335938 320.398438 Z M 78.335938 320.398438 " style=" stroke:none;fill-rule:nonzero;fill:rgb(0%,0%,0%);fill-opacity:1;" />
<path d="M 94.066406 315.574219 C 94.464844 316.070312 95.050781 316.328125 95.644531 316.328125 C 96.085938 316.328125 96.53125 316.183594 96.902344 315.886719 C 97.773438 315.191406 97.914062 313.917969 97.21875 313.046875 L 91.515625 305.921875 C 90.816406 305.050781 89.546875 304.910156 88.675781 305.605469 C 87.804688 306.300781 87.664062 307.570312 88.359375 308.441406 Z M 94.066406 315.574219 " style=" stroke:none;fill-rule:nonzero;fill:rgb(0%,0%,0%);fill-opacity:1;" />
<path d="M 105.183594 309.960938 C 105.332031 310.960938 106.195312 311.683594 107.175781 311.683594 C 107.277344 311.683594 107.378906 311.675781 107.480469 311.660156 C 108.582031 311.492188 109.34375 310.464844 109.175781 309.363281 L 107.625 298.992188 C 107.460938 297.886719 106.441406 297.125 105.332031 297.292969 C 104.226562 297.457031 103.46875 298.484375 103.632812 299.589844 Z M 105.183594 309.960938 " style=" stroke:none;fill-rule:nonzero;fill:rgb(0%,0%,0%);fill-opacity:1;" />
<path d="M 120.015625 311.621094 C 120.207031 311.675781 120.398438 311.703125 120.585938 311.703125 C 121.460938 311.703125 122.265625 311.132812 122.523438 310.25 L 126.089844 298.132812 C 126.402344 297.0625 125.789062 295.941406 124.71875 295.625 C 123.65625 295.308594 122.527344 295.921875 122.214844 296.992188 L 118.648438 309.113281 C 118.332031 310.183594 118.945312 311.304688 120.015625 311.621094 Z M 120.015625 311.621094 " style=" stroke:none;fill-rule:nonzero;fill:rgb(0%,0%,0%);fill-opacity:1;" />
</g>
</svg>