<?xml version="1.0" encoding="iso-8859-1"?>
<!-- Generator: Adobe Illustrator 19.0.0, SVG Export Plug-In . SVG Version: 6.00 Build 0)  -->
<svg version="1.1" id="Capa_1" xmlns="http://www.w3.org/2000/svg" xmlns:xlink="http://www.w3.org/1999/xlink" x="0px" y="0px"
	 viewBox="0 0 504.123 504.123" style="enable-background:new 0 0 504.123 504.123;" xml:space="preserve">
<circle style="fill:#FCBD5E;" cx="252.062" cy="252.062" r="252.062"/>
<rect x="342.646" y="289.083" style="fill:#FFFFFF;" width="55.138" height="31.508"/>
<g>
	<path style="fill:#183651;" d="M397.785,328.468h-55.138c-4.726,0-7.877-3.151-7.877-7.877v-31.508
		c0-4.726,3.151-7.877,7.877-7.877h55.138c4.726,0,7.877,3.151,7.877,7.877v31.508C405.662,325.317,402.511,328.468,397.785,328.468
		z M350.523,312.714h39.385V296.96h-39.385V312.714z"/>
	<path style="fill:#183651;" d="M319.803,474.191h-9.452v-15.754h9.452c1.575,0,3.938,0,5.514,0l1.575,15.754
		C324.529,474.191,322.166,474.191,319.803,474.191z M294.597,474.191h-15.754v-15.754h15.754V474.191z M263.089,474.191h-15.754
		v-15.754h15.754V474.191z M344.222,468.677l-6.302-14.178c3.938-1.575,7.877-4.726,11.028-7.089l11.028,11.815
		C355.249,462.375,349.735,466.314,344.222,468.677z M370.215,444.258l-13.391-7.877c2.363-3.938,3.938-7.877,4.726-12.603
		l15.754,3.151C375.729,433.231,373.366,438.745,370.215,444.258z M378.092,409.6h-15.754v-15.754h15.754V409.6z M378.092,378.092
		h-15.754v-15.754h15.754V378.092z M378.092,346.585h-15.754v-15.754h15.754V346.585z"/>
	<path style="fill:#183651;" d="M218.978,474.191c-2.363,0-4.726-0.788-6.302-3.151l-70.105-93.735
		c-2.363-3.151-1.575-8.665,1.575-11.028c3.151-2.363,8.665-1.575,11.028,1.575l70.105,93.735c2.363,3.151,1.575,8.665-1.575,11.028
		C222.129,473.403,220.554,474.191,218.978,474.191z"/>
	<path style="fill:#183651;" d="M79.557,474.191c-1.575,0-3.151-0.788-4.726-1.575c-3.151-2.363-3.938-7.877-1.575-11.028
		l69.317-93.735c2.363-3.151,7.877-3.938,11.028-1.575c3.151,2.363,3.938,7.877,1.575,11.028L85.858,471.04
		C84.283,472.615,81.92,474.191,79.557,474.191z"/>
	<path style="fill:#183651;" d="M148.874,380.455c-0.788,0-1.575,0-2.363,0l-112.64-35.446c-3.938-1.575-6.302-5.514-5.514-10.24
		c1.575-3.938,5.514-6.302,10.24-5.514l112.64,34.658c3.938,1.575,6.302,5.514,5.514,10.24
		C155.175,378.88,152.025,380.455,148.874,380.455z"/>
	<path style="fill:#183651;" d="M148.874,380.455L148.874,380.455c-4.726,0-7.877-3.938-7.877-7.877l0.788-115.791
		c0-4.726,3.938-7.877,7.877-7.877c4.726,0,7.877,3.938,7.877,7.877l-0.788,115.791C156.751,377.305,153.6,380.455,148.874,380.455z
		"/>
	<path style="fill:#183651;" d="M148.874,380.455c-3.151,0-6.302-2.363-7.877-5.514c-1.575-3.938,0.788-8.665,5.514-10.24
		l110.277-34.658c3.938-1.575,8.665,0.788,10.24,5.514c1.575,3.938-0.788,8.665-5.514,10.24l-110.277,34.658
		C150.449,380.455,149.662,380.455,148.874,380.455z"/>
</g>
<circle style="fill:#FFFFFF;" cx="148.874" cy="372.578" r="37.809"/>
<g>
	<path style="fill:#183651;" d="M148.874,418.265c-25.206,0-45.686-20.48-45.686-45.686c0-25.206,20.48-45.686,45.686-45.686
		s45.686,20.48,45.686,45.686C194.56,397.785,174.08,418.265,148.874,418.265z M148.874,342.646
		c-16.542,0-29.932,13.391-29.932,29.932s13.391,29.932,29.932,29.932s29.932-13.391,29.932-29.932
		C178.806,356.037,165.415,342.646,148.874,342.646z"/>
	<path style="fill:#183651;" d="M218.978,474.191H78.769c-3.151,0-6.302-2.363-7.089-5.514L28.357,340.283
		c-0.788-3.151,0-7.089,3.151-8.665l113.428-81.132c2.363-1.575,6.302-1.575,9.452,0l111.852,81.132
		c3.151,2.363,3.938,5.514,3.151,8.665l-43.323,128.394C225.28,471.828,222.129,474.191,218.978,474.191z M84.283,458.437h128.394
		l39.385-117.366l-102.4-74.043L45.686,341.071L84.283,458.437z"/>
</g>
<circle style="fill:#E1E6E8;" cx="149.662" cy="256.788" r="28.357"/>
<path style="fill:#183651;" d="M149.662,293.022c-19.692,0-36.234-16.542-36.234-36.234c0-19.692,16.542-36.234,36.234-36.234
	s36.234,16.542,36.234,36.234C185.895,277.268,169.354,293.022,149.662,293.022z M149.662,236.308
	c-11.028,0-20.48,9.452-20.48,20.48s9.452,20.48,20.48,20.48c11.028,0,20.48-9.452,20.48-20.48S160.689,236.308,149.662,236.308z"/>
<circle style="fill:#E1E6E8;" cx="36.234" cy="337.92" r="28.357"/>
<path style="fill:#183651;" d="M36.234,374.154C16.542,374.154,0,357.612,0,337.92s16.542-36.234,36.234-36.234
	s36.234,16.542,36.234,36.234S55.926,374.154,36.234,374.154z M36.234,317.44c-11.028,0-20.48,9.452-20.48,20.48
	s9.452,20.48,20.48,20.48s20.48-9.452,20.48-20.48S47.262,317.44,36.234,317.44z"/>
<circle style="fill:#E1E6E8;" cx="259.151" cy="337.92" r="28.357"/>
<path style="fill:#183651;" d="M259.151,374.154c-19.692,0-36.234-16.542-36.234-36.234s16.542-36.234,36.234-36.234
	s36.234,16.542,36.234,36.234S278.843,374.154,259.151,374.154z M259.151,317.44c-11.028,0-20.48,9.452-20.48,20.48
	s9.452,20.48,20.48,20.48s20.48-9.452,20.48-20.48S270.178,317.44,259.151,317.44z"/>
<circle style="fill:#E1E6E8;" cx="218.978" cy="466.314" r="28.357"/>
<path style="fill:#183651;" d="M218.978,502.548c-19.692,0-36.234-16.542-36.234-36.234c0-19.692,16.542-36.234,36.234-36.234
	s36.234,16.542,36.234,36.234C255.212,486.006,238.671,502.548,218.978,502.548z M218.978,445.834
	c-11.028,0-20.48,9.452-20.48,20.48c0,11.028,9.452,20.48,20.48,20.48s20.48-9.452,20.48-20.48
	C239.458,455.286,230.006,445.834,218.978,445.834z"/>
<circle style="fill:#E1E6E8;" cx="79.557" cy="466.314" r="28.357"/>
<g>
	<path style="fill:#183651;" d="M79.557,502.548c-19.692,0-36.234-16.542-36.234-36.234c0-19.692,16.542-36.234,36.234-36.234
		s36.234,16.542,36.234,36.234C115.791,486.006,99.249,502.548,79.557,502.548z M79.557,445.834c-11.028,0-20.48,9.452-20.48,20.48
		c0,11.028,9.452,20.48,20.48,20.48s20.48-9.452,20.48-20.48C100.037,455.286,90.585,445.834,79.557,445.834z"/>
	<rect x="488.369" y="125.243" style="fill:#183651;" width="15.754" height="16.542"/>
	<rect x="236.308" y="125.243" style="fill:#183651;" width="15.754" height="16.542"/>
	
		<rect x="480.383" y="81.897" transform="matrix(-0.9397 0.3421 -0.3421 -0.9397 977.9039 7.8492)" style="fill:#183651;" width="15.753" height="16.541"/>
	
		<rect x="244.288" y="168.457" transform="matrix(-0.9397 0.342 -0.342 -0.9397 549.5655 256.558)" style="fill:#183651;" width="15.754" height="16.542"/>
	
		<rect x="458.359" y="44.208" transform="matrix(-0.7661 0.6428 -0.6428 -0.7661 857.1346 -206.9994)" style="fill:#183651;" width="15.755" height="16.542"/>
	
		<rect x="265.739" y="206.554" transform="matrix(-0.7661 0.6428 -0.6428 -0.7661 621.3054 203.5227)" style="fill:#183651;" width="15.755" height="16.542"/>
	
		<rect x="425.523" y="16.158" transform="matrix(-0.5001 0.866 -0.866 -0.5001 671.292 -338.6677)" style="fill:#183651;" width="15.754" height="16.542"/>
	
		<rect x="384.39" y="0.98" transform="matrix(-0.1736 0.9848 -0.9848 -0.1736 469.4752 -375.4542)" style="fill:#183651;" width="15.754" height="16.541"/>
	
		<rect x="340.269" y="1.517" transform="matrix(-0.9848 0.1738 -0.1738 -0.9848 693.4087 -41.9299)" style="fill:#183651;" width="16.542" height="15.754"/>
	
		<rect x="298.533" y="16.712" transform="matrix(-0.866 0.5 -0.5 -0.866 584.7963 -107.5225)" style="fill:#183651;" width="16.541" height="15.753"/>
	
		<rect x="265.599" y="44.781" transform="matrix(-0.6428 0.7661 -0.7661 -0.6428 490.2438 -123.2957)" style="fill:#183651;" width="16.542" height="15.755"/>
	
		<rect x="458.258" y="206.205" transform="matrix(-0.6427 0.7661 -0.7661 -0.6427 930.3812 -5.7391)" style="fill:#183651;" width="16.541" height="15.754"/>
	
		<rect x="243.642" y="82.783" transform="matrix(-0.3419 0.9397 -0.9397 -0.3419 423.2399 -115.0727)" style="fill:#183651;" width="16.541" height="15.753"/>
	
		<rect x="479.864" y="168.947" transform="matrix(-0.3422 0.9396 -0.9396 -0.3422 821.3268 -221.3284)" style="fill:#183651;" width="16.541" height="15.753"/>
</g>
<path style="fill:#FFFFFF;" d="M325.317,256.788v32.295h89.009v-32.295c0-19.692,7.877-37.809,21.268-51.988
	c18.117-18.117,26.782-44.111,26.782-67.742c0-52.775-44.111-95.311-96.886-92.948c-48.049,2.363-87.434,42.535-88.222,91.372
	c0,24.418,8.665,51.2,27.569,69.317C318.228,219.766,325.317,237.883,325.317,256.788z"/>
<path style="fill:#183651;" d="M414.326,296.96h-89.009c-4.726,0-7.877-3.151-7.877-7.877v-32.295
	c0-17.329-6.302-33.871-18.905-45.686c-18.905-18.905-29.932-47.262-29.145-74.831c0.788-51.988,44.111-96.886,96.098-99.249
	c57.502-2.363,105.551,43.323,105.551,100.825c0,27.569-11.028,54.351-29.145,73.255c-11.815,12.603-18.905,29.145-18.905,46.474
	v32.295C422.203,293.809,419.052,296.96,414.326,296.96z M333.194,281.206h73.255v-24.418c0-21.268,8.665-41.748,23.631-57.502
	c15.754-15.754,25.206-39.385,25.206-62.228c0-48.049-40.172-87.434-89.009-85.071c-44.111,2.363-80.345,39.385-81.132,83.495
	c0,23.631,8.665,47.262,25.206,63.803c14.966,14.966,23.631,35.446,23.631,56.714v25.206H333.194z"/>
<path style="fill:#2AA0DA;" d="M370.215,76.406c-0.788,0-2.363,0-3.151,0c-31.508,1.575-57.502,28.357-58.289,60.652
	c0,17.329,6.302,35.446,18.117,47.262c19.692,19.692,29.932,45.686,29.932,73.255v24.418h25.994v-24.418
	c0-27.569,11.028-53.563,29.932-73.255c11.028-11.815,18.117-29.145,18.117-46.474C431.655,103.975,404.086,76.406,370.215,76.406z"
	/>
<path style="fill:#FFFFFF;" d="M400.148,144.935c-4.726,0-7.877-3.151-7.877-7.877c0-11.815-9.452-22.055-22.055-22.055
	c-4.726,0-7.877-3.151-7.877-7.877c0-4.726,3.151-7.877,7.877-7.877c20.48,0,37.809,16.542,37.809,37.809
	C408.025,141.785,404.086,144.935,400.148,144.935z"/>
<g>
</g>
<g>
</g>
<g>
</g>
<g>
</g>
<g>
</g>
<g>
</g>
<g>
</g>
<g>
</g>
<g>
</g>
<g>
</g>
<g>
</g>
<g>
</g>
<g>
</g>
<g>
</g>
<g>
</g>
</svg>
