<?xml version="1.0" encoding="iso-8859-1"?>
<!-- Generator: Adobe Illustrator 19.0.0, SVG Export Plug-In . SVG Version: 6.00 Build 0)  -->
<svg version="1.1" id="Capa_1" xmlns="http://www.w3.org/2000/svg" xmlns:xlink="http://www.w3.org/1999/xlink" x="0px" y="0px"
	 viewBox="0 0 512 512" style="enable-background:new 0 0 512 512;" xml:space="preserve">
<circle style="fill:#FEA626;" cx="256" cy="256" r="256"/>
<path style="fill:#F47C00;" d="M512,256c0-10.491-0.646-20.83-1.872-30.99l-99.507-99.507L78,361l149.401,149.401
	C236.792,511.445,246.33,512,256,512C397.385,512,512,397.385,512,256z"/>
<rect x="101.38" y="125.5" style="fill:#37474F;" width="309.24" height="215.99"/>
<rect x="255.76" y="125.5" style="fill:#263238;" width="154.87" height="215.99"/>
<rect x="119.3" y="141.78" style="fill:#303F9E;" width="273.4" height="183.45"/>
<rect x="255.76" y="141.78" style="fill:#283592;" width="136.95" height="183.45"/>
<rect x="199.8" y="220.49" style="fill:#FFB111;" width="112.55" height="92.35"/>
<rect x="255.97" y="220.49" style="fill:#FF8700;" width="56.37" height="92.35"/>
<path style="fill:#FFC776;" d="M336.319,330.061c0-11.739-8.724-21.65-20.368-23.14l-38.042-4.866
	c-4.67-0.598-8.168-4.572-8.168-9.28V275.52H242.26v17.254c0,4.708-3.499,8.683-8.169,9.28l-38.041,4.866
	c-11.645,1.489-20.368,11.4-20.368,23.14v9.606H336.32v-9.605H336.319z"/>
<path style="fill:#FFBB61;" d="M336.319,330.061c0-11.739-8.724-21.65-20.368-23.14l-38.042-4.866
	c-4.67-0.598-8.168-4.572-8.168-9.28V275.52h-13.766v64.146h80.344V330.061z"/>
<path style="fill:#FED080;" d="M281.978,278.187l-7.484,4.03c-11.5,6.192-25.341,6.192-36.841,0l-7.484-4.03
	c-13.82-7.442-22.438-21.87-22.438-37.567v-46.162h96.685v46.162C304.416,256.317,295.798,270.746,281.978,278.187z"/>
<path style="fill:#FFC776;" d="M304.416,194.459h-48.441v92.401c6.368,0.016,12.739-1.53,18.519-4.643l7.484-4.03
	c13.82-7.442,22.438-21.87,22.438-37.567V194.459z"/>
<path style="fill:#FFFFFF;" d="M336.319,330.061c0-11.739-8.724-21.65-20.368-23.14l-32.196-4.119
	c-6.941,7.405-16.804,12.038-27.755,12.038c-10.95,0-20.813-4.633-27.755-12.038l-32.196,4.119
	c-11.645,1.489-20.368,11.4-20.368,23.14v9.606h160.638V330.061z"/>
<path style="fill:#EBEEF0;" d="M336.319,330.061c0-11.739-8.724-21.65-20.368-23.14l-32.196-4.119
	c-6.941,7.405-16.804,12.038-27.755,12.038c-0.008,0-0.017-0.001-0.025-0.001v24.828h80.344V330.061z"/>
<path style="fill:#FEC928;" d="M255.874,152.315c-31.102,0.108-56.077,25.784-56.077,56.886v78.585l6.59-15.639
	c1.897-4.502,2.874-9.337,2.874-14.222v-31.46c50.349-6.379,68.875-29.527,68.875-29.527s6.82,16.217,24.747,29.585v31.402
	c0,4.885,0.977,9.72,2.874,14.222l6.59,15.639V208.59C312.349,177.443,287.046,152.207,255.874,152.315z"/>
<path style="fill:#FEC007;" d="M312.349,208.59c0-31.113-25.249-56.328-56.374-56.274v60.639
	c15.688-7.931,22.162-16.016,22.162-16.016s6.82,16.217,24.747,29.585v31.402c0,4.885,0.977,9.72,2.874,14.222l6.59,15.639
	L312.349,208.59z"/>
<path style="fill:#0096A6;" d="M314.434,241.343H303.1v-32.869c0-25.971-21.129-47.1-47.1-47.1s-47.1,21.129-47.1,47.1v32.869
	h-11.334v-32.869c0-32.221,26.213-58.434,58.434-58.434s58.434,26.213,58.434,58.434V241.343z"/>
<g>
	<path style="fill:#00828E;" d="M256,150.04c-0.082,0-0.163,0.006-0.244,0.006v11.334c0.082,0,0.163-0.006,0.244-0.006
		c25.971,0,47.1,21.129,47.1,47.1v32.869h11.334v-32.869C314.434,176.253,288.221,150.04,256,150.04z"/>
	<path style="fill:#00828E;" d="M281.565,276.777h-32.239v-11.334h32.239c11.597,0,21.031-9.434,21.031-21.031h11.334
		C313.93,262.258,299.411,276.777,281.565,276.777z"/>
</g>
<path style="fill:#00AFFE;" d="M209.295,255.196h-12.393c-9.152,0-16.572-7.419-16.572-16.572v-19.265
	c0-9.152,7.419-16.572,16.572-16.572h12.393V255.196z"/>
<path style="fill:#039AE4;" d="M315.098,255.196h-12.393v-52.408h12.393c9.152,0,16.572,7.419,16.572,16.572v19.265
	C331.67,247.776,324.25,255.196,315.098,255.196z"/>
<path style="fill:#DB2C09;" d="M252.978,283.2h-13.349c-6.607,0-11.964-5.356-11.964-11.964l0,0c0-6.607,5.356-11.964,11.964-11.964
	h13.349c6.607,0,11.964,5.356,11.964,11.964l0,0C264.941,277.844,259.585,283.2,252.978,283.2z"/>
<path style="fill:#D74315;" d="M264.941,271.236c0-5.649-3.92-10.372-9.186-11.626v23.253
	C261.021,281.608,264.941,276.886,264.941,271.236z"/>
<rect x="78" y="319.67" style="fill:#455A64;" width="356" height="41.33"/>
<rect x="255.76" y="319.67" style="fill:#37474F;" width="178.24" height="41.33"/>
<g>
</g>
<g>
</g>
<g>
</g>
<g>
</g>
<g>
</g>
<g>
</g>
<g>
</g>
<g>
</g>
<g>
</g>
<g>
</g>
<g>
</g>
<g>
</g>
<g>
</g>
<g>
</g>
<g>
</g>
</svg>
