<?xml version="1.0" encoding="iso-8859-1"?>
<!-- Generator: Adobe Illustrator 19.0.0, SVG Export Plug-In . SVG Version: 6.00 Build 0)  -->
<svg version="1.1" id="Capa_1" xmlns="http://www.w3.org/2000/svg" xmlns:xlink="http://www.w3.org/1999/xlink" x="0px" y="0px"
	 viewBox="0 0 512 512" style="enable-background:new 0 0 512 512;" xml:space="preserve">
<circle style="fill:#57A4FF;" cx="256" cy="256" r="256"/>
<path style="fill:#2488FF;" d="M512,256c0-1.903-0.031-3.799-0.072-5.691L339.533,77.913l0,0l0,0H172.576v107.195
	c-12.05-10.941-28.05-17.608-45.608-17.608l0,0l0,0c-10.883,0-21.167,2.566-30.284,7.12c-1.185-0.215-2.404-0.333-3.651-0.333
	c-11.244,0-20.359,9.114-20.361,20.356c-0.069,0.091-0.137,0.184-0.205,0.275c-11.411,1.734-20.155,11.587-20.155,23.482
	c0,6.472,2.592,12.338,6.791,16.622c0,0.115-0.004,0.229-0.004,0.345v25.79v1.358v1.358c0,2.906,1.032,5.581,2.741,7.683
	l-0.048,0.048l0.872,0.872c0.017,0.017,0.032,0.032,0.049,0.049l34.924,34.924c-13.038,6.788-21.948,20.415-21.948,36.133v7.353
	v9.614v3.206c0,2.963,1.359,5.623,3.485,7.391l15.745,15.745v12.119c0,4.126,1.983,7.802,5.035,10.151l95.659,95.659
	C214.979,509.5,235.196,512,256,512C397.385,512,512,397.385,512,256z"/>
<polygon style="fill:#BDFDFF;" points="317.272,278.261 317.272,372.441 251.345,372.441 223.091,400.696 223.091,372.441 
	194.837,372.441 194.837,278.261 "/>
<g>
	<rect x="213.671" y="306.51" style="fill:#57A4FF;" width="84.758" height="9.419"/>
	<rect x="213.671" y="334.77" style="fill:#57A4FF;" width="84.758" height="9.419"/>
</g>
<polygon style="fill:#FFFFFF;" points="172.576,77.913 172.576,206.342 245.352,206.342 283.881,244.87 283.881,206.342 
	339.533,206.342 339.533,77.913 "/>
<g>
	<rect x="198.266" y="116.435" style="fill:#96C8EF;" width="115.59" height="12.842"/>
	<rect x="198.266" y="154.969" style="fill:#96C8EF;" width="115.59" height="12.842"/>
</g>
<path style="fill:#1D1D1F;" d="M350.919,347.728v38.459v12.82c0,7.051,5.769,12.82,12.82,12.82s12.82-5.769,12.82-12.82v-12.82
	h12.82v12.82c0,7.051,5.769,12.82,12.82,12.82s12.82-5.769,12.82-12.82v-12.82v-38.459H350.919z"/>
<path d="M382.968,347.728v38.459h6.41v12.82c0,7.051,5.769,12.82,12.82,12.82s12.82-5.769,12.82-12.82v-12.82v-38.459H382.968z"/>
<path style="fill:#FFDAAA;" d="M341.305,373.367L341.305,373.367c-5.288,0-9.614-4.326-9.614-9.614v-12.82h19.229v12.82
	C350.919,369.041,346.593,373.367,341.305,373.367z"/>
<path style="fill:#FFC477;" d="M424.632,373.367L424.632,373.367c-5.288,0-9.614-4.326-9.614-9.614v-12.82h19.229v12.82
	C434.247,369.041,429.92,373.367,424.632,373.367z"/>
<path style="fill:#FFFFFF;" d="M434.247,360.547H331.69V343.58c0-22.49,18.232-40.721,40.721-40.721h21.114
	c22.49,0,40.721,18.232,40.721,40.721v16.967H434.247z"/>
<path style="fill:#E1E3FA;" d="M393.525,302.859h-10.557v57.688h51.278V343.58C434.247,321.091,416.016,302.859,393.525,302.859z"/>
<polygon points="375.441,343.957 382.968,354.138 382.968,354.223 382.968,354.223 382.968,354.138 382.968,354.138 
	390.496,343.957 386.913,316.172 395.788,302.859 370.149,302.859 379.024,316.172 "/>
<path style="fill:#1D1D1F;" d="M382.968,167.5L382.968,167.5c-10.883,0-21.167,2.566-30.284,7.12
	c-1.185-0.215-2.404-0.333-3.651-0.333c-11.244,0-20.359,9.114-20.361,20.356c-0.069,0.091-0.137,0.184-0.205,0.275
	c-11.411,1.734-20.155,11.587-20.155,23.482c0,6.472,2.592,12.338,6.791,16.622c-0.001,0.115-0.004,0.229-0.004,0.345v27.147
	h135.737v-27.147C450.837,197.885,420.451,167.5,382.968,167.5z"/>
<path d="M382.968,167.5L382.968,167.5v95.016h67.869v-27.147C450.837,197.885,420.451,167.5,382.968,167.5z"/>
<path style="fill:#FFC477;" d="M342.247,276.089h-14.931c-6.719,0-12.217-5.497-12.217-12.217v-2.715
	c0-6.719,5.497-12.217,12.217-12.217h14.931V276.089z"/>
<path style="fill:#FFB655;" d="M423.69,276.089h14.931c6.719,0,12.217-5.497,12.217-12.217v-2.715
	c0-6.719-5.497-12.217-12.217-12.217H423.69V276.089z"/>
<path style="fill:#FFDAAA;" d="M405.485,227.765c-2.156-1.617-4.191-3.321-6.107-5.093c-19.359,12.571-42.136,19.483-65.725,19.483
	h-11.389c-0.246,2.228-0.377,4.492-0.377,6.787c0,33.734,27.348,61.082,61.082,61.082s61.082-27.348,61.082-61.082
	c0-2.314-0.134-4.597-0.384-6.844C431.16,241.592,417.564,236.826,405.485,227.765z"/>
<path style="fill:#FFC477;" d="M443.666,242.097c-12.506-0.505-26.102-5.271-38.181-14.332c-2.156-1.617-4.191-3.321-6.107-5.093
	c-5.236,3.4-10.724,6.382-16.41,8.93v78.421c33.734,0,61.082-27.347,61.082-61.082C444.05,246.627,443.917,244.344,443.666,242.097z
	"/>
<circle cx="351.009" cy="257.703" r="8.766"/>
<circle cx="414.92" cy="257.703" r="8.766"/>
<path style="fill:#F072AE;" d="M382.968,296.449c11.245,0,20.361-9.116,20.361-20.361h-40.722
	C362.607,287.333,371.723,296.449,382.968,296.449z"/>
<path style="fill:#ED539D;" d="M382.968,276.089v20.361c11.245,0,20.361-9.116,20.361-20.361H382.968L382.968,276.089z"/>
<path style="fill:#1D1D1F;" d="M94.919,347.728v38.459v12.82c0,7.051,5.769,12.82,12.82,12.82c7.051,0,12.82-5.769,12.82-12.82
	v-12.82h12.82v12.82c0,7.051,5.769,12.82,12.82,12.82c7.051,0,12.82-5.769,12.82-12.82v-12.82v-38.459H94.919z"/>
<path d="M126.968,347.728v38.459h6.41v12.82c0,7.051,5.769,12.82,12.82,12.82c7.051,0,12.82-5.769,12.82-12.82v-12.82v-38.459
	H126.968z"/>
<path style="fill:#FFDAAA;" d="M85.305,373.367L85.305,373.367c-5.288,0-9.614-4.326-9.614-9.614v-12.82h19.229v12.82
	C94.919,369.041,90.593,373.367,85.305,373.367z"/>
<path style="fill:#FFC477;" d="M168.632,373.367L168.632,373.367c-5.288,0-9.614-4.326-9.614-9.614v-12.82h19.229v12.82
	C178.247,369.041,173.92,373.367,168.632,373.367z"/>
<path style="fill:#FFFFFF;" d="M178.247,360.547H75.69V343.58c0-22.49,18.232-40.721,40.721-40.721h21.114
	c22.49,0,40.721,18.232,40.721,40.721v16.967H178.247z"/>
<path style="fill:#E1E3FA;" d="M137.525,302.859h-10.557v57.688h51.278V343.58C178.247,321.091,160.016,302.859,137.525,302.859z"/>
<polygon points="119.441,343.957 126.968,354.138 126.968,354.223 126.968,354.223 126.968,354.138 126.968,354.138 
	134.496,343.957 130.913,316.172 139.788,302.859 114.149,302.859 123.024,316.172 "/>
<path style="fill:#1D1D1F;" d="M126.968,167.5L126.968,167.5c-10.883,0-21.167,2.566-30.284,7.12
	c-1.185-0.215-2.404-0.333-3.651-0.333c-11.244,0-20.359,9.114-20.361,20.356c-0.069,0.091-0.137,0.184-0.205,0.275
	c-11.411,1.734-20.155,11.587-20.155,23.482c0,6.472,2.592,12.338,6.791,16.622c-0.001,0.115-0.004,0.229-0.004,0.345v27.147
	h135.737v-27.147C194.837,197.885,164.451,167.5,126.968,167.5z"/>
<path d="M126.968,167.5L126.968,167.5v95.016h67.869v-27.147C194.837,197.885,164.451,167.5,126.968,167.5z"/>
<path style="fill:#FFC477;" d="M86.248,276.089H71.316c-6.719,0-12.217-5.497-12.217-12.217v-2.715
	c0-6.719,5.497-12.217,12.217-12.217h14.931V276.089z"/>
<path style="fill:#FFB655;" d="M167.69,276.089h14.931c6.719,0,12.217-5.497,12.217-12.217v-2.715
	c0-6.719-5.497-12.217-12.217-12.217H167.69V276.089z"/>
<path style="fill:#FFDAAA;" d="M149.485,227.765c-2.156-1.617-4.191-3.321-6.107-5.093c-19.359,12.571-42.136,19.483-65.725,19.483
	H66.264c-0.246,2.228-0.377,4.492-0.377,6.787c0,33.734,27.347,61.082,61.082,61.082s61.082-27.348,61.082-61.082
	c0-2.314-0.134-4.597-0.384-6.844C175.16,241.592,161.564,236.826,149.485,227.765z"/>
<path style="fill:#FFC477;" d="M187.666,242.097c-12.506-0.505-26.102-5.271-38.181-14.332c-2.156-1.617-4.191-3.321-6.107-5.093
	c-5.236,3.4-10.724,6.382-16.41,8.93v78.421c33.734,0,61.082-27.347,61.082-61.082C188.05,246.627,187.917,244.344,187.666,242.097z
	"/>
<circle cx="95.009" cy="257.703" r="8.766"/>
<circle cx="158.92" cy="257.703" r="8.766"/>
<path style="fill:#F072AE;" d="M126.968,296.449c11.245,0,20.361-9.116,20.361-20.361h-40.722
	C106.607,287.333,115.723,296.449,126.968,296.449z"/>
<path style="fill:#ED539D;" d="M126.968,276.089v20.361c11.245,0,20.361-9.116,20.361-20.361H126.968L126.968,276.089z"/>
<g>
</g>
<g>
</g>
<g>
</g>
<g>
</g>
<g>
</g>
<g>
</g>
<g>
</g>
<g>
</g>
<g>
</g>
<g>
</g>
<g>
</g>
<g>
</g>
<g>
</g>
<g>
</g>
<g>
</g>
</svg>
