<?xml version="1.0" encoding="iso-8859-1"?>
<!-- Generator: Adobe Illustrator 19.0.0, SVG Export Plug-In . SVG Version: 6.00 Build 0)  -->
<svg version="1.1" id="Capa_1" xmlns="http://www.w3.org/2000/svg" xmlns:xlink="http://www.w3.org/1999/xlink" x="0px" y="0px"
	 viewBox="0 0 511.766 511.766" style="enable-background:new 0 0 511.766 511.766;" xml:space="preserve">
<g>
	<path style="fill:#FFCE54;" d="M256.352,255.879h235.891c0-130.288-105.607-235.889-235.892-235.889v235.889H256.352z"/>
	<path style="fill:#FFCE54;" d="M255.883,255.883H20.46c0,130.128,105.35,235.626,235.423,235.876V255.883z"/>
</g>
<path style="fill:#A0D468;" d="M468.254,255.883c0,117.024-94.878,211.902-211.902,211.902
	c-117.032,0-211.903-94.878-211.903-211.902c0-117.032,94.871-211.903,211.903-211.903
	C373.376,43.98,468.254,138.851,468.254,255.883z"/>
<g style="opacity:0.2;">
	<path d="M451.793,255.883c0,114.354-90.583,207.49-203.906,211.699c2.659,0.102,5.313,0.203,7.996,0.203
		c117.032,0,211.903-94.87,211.903-211.902c0-117.028-94.871-211.903-211.903-211.903c-2.683,0-5.337,0.102-7.996,0.203
		C361.21,48.392,451.793,141.537,451.793,255.883z"/>
</g>
<g>
	<polygon style="fill:#E6E9ED;" points="219.9,379.826 187.914,339.844 187.914,331.848 187.914,311.545 255.883,355.837 
		255.883,363.833 	"/>
	<polygon style="fill:#E6E9ED;" points="291.866,379.826 323.852,339.844 323.852,331.848 323.852,311.545 255.883,355.837 
		255.883,363.833 	"/>
</g>
<g style="opacity:0.4;">
	<path style="fill:#FFFFFF;" d="M60.442,255.883c0-114.35,90.587-207.491,203.906-211.7c-2.659-0.102-5.314-0.203-7.996-0.203
		c-117.032,0-211.904,94.871-211.904,211.903c0,117.024,94.871,211.902,211.903,211.902c2.682,0,5.337-0.102,7.996-0.203
		C151.029,463.373,60.442,370.229,60.442,255.883z"/>
</g>
<path style="fill:#5D9CEC;" d="M403.816,381.505c-4.561-2.882-10.151-5.356-16.79-7.755c-11.119-4.154-39.185-15.117-55.178-23.036
	l-10.151-8.152l-29.83,37.265l-31.985-15.993h-3.999h-3.998L219.9,379.827l-29.826-37.265l-10.155,8.152
	c-15.993,7.919-44.059,18.882-55.174,23.036c-6.638,2.398-12.237,4.873-16.793,7.755l-14.071,10.956
	c34.863,41.262,85.16,69.094,142.013,74.364l19.991,0.96l19.991-0.96c56.849-5.271,107.153-33.103,142.013-74.364L403.816,381.505z"
	/>
<g style="opacity:0.3;">
	<path style="fill:#FFFFFF;" d="M109.872,400.457l14.072-10.956c4.557-2.882,10.155-5.356,16.793-7.754
		c11.116-4.154,39.182-15.118,55.174-23.036l4.318-3.468l-10.155-12.682l-10.155,8.152c-15.993,7.919-44.059,18.882-55.174,23.036
		c-6.638,2.398-12.237,4.873-16.793,7.755L93.881,392.46c20.444,24.191,46.225,43.722,75.493,56.841
		C146.679,436.722,126.505,420.144,109.872,400.457z"/>
</g>
<g style="opacity:0.2;">
	<path d="M401.895,400.457l-14.072-10.956c-4.561-2.882-10.151-5.356-16.789-7.754c-11.12-4.154-39.186-15.118-55.178-23.036
		l-4.318-3.468l10.159-12.682l10.151,8.152c15.993,7.919,44.059,18.882,55.178,23.036c6.639,2.398,12.229,4.873,16.79,7.755
		l14.071,10.956c-20.443,24.191-46.229,43.722-75.496,56.841C365.083,436.722,385.262,420.144,401.895,400.457z"/>
</g>
<path style="fill:#656D78;" d="M307.86,147.932c0,0,57.738-8.317,43.979,79.963l-27.987-39.981c0,0-33.109,15.992-68.207,15.992
	c-35.027,0-67.73-15.992-67.73-15.992l-27.987,39.981C146.011,79.483,323.852,107.95,323.852,107.95
	C297.707,118.664,307.86,147.932,307.86,147.932z"/>
<g style="opacity:0.2;">
	<path d="M307.86,147.932c0,0,32.5-6.934,29.971,59.949l14.009,20.015C365.598,139.615,307.86,147.932,307.86,147.932z"/>
</g>
<g style="opacity:0.3;">
	<path style="fill:#FFFFFF;" d="M298.59,105.897c-48.536-1.468-149.268,8.879-138.663,121.999l15.45-22.072
		C178.793,123.463,250.967,107.411,298.59,105.897z"/>
</g>
<path style="fill:#EAC6BB;" d="M351.839,227.896v7.836c0,62.53-59.41,120.105-95.956,120.105
	c-36.542,0-95.956-57.575-95.956-120.105v-7.836l27.987-39.981c0,0,32.704,15.992,67.73,15.992
	c35.098,0,68.207-15.992,68.207-15.992L351.839,227.896z"/>
<g style="opacity:0.2;">
	<path d="M323.852,187.914c0,0-4.701,2.268-12.424,5.095l24.418,34.887v7.836c0,58.157-51.366,111.961-87.959,119.215
		c2.752,0.547,5.438,0.891,7.996,0.891c36.546,0,95.956-57.575,95.956-120.105v-7.836L323.852,187.914z"/>
</g>
<g style="opacity:0.4;">
	<path style="fill:#FFFFFF;" d="M175.92,235.732v-7.836l24.395-34.848c-7.711-2.846-12.4-5.134-12.4-5.134l-27.987,39.981v7.836
		c0,62.53,59.414,120.105,95.956,120.105c2.558,0,5.244-0.344,7.996-0.891C227.291,347.693,175.92,293.889,175.92,235.732z"/>
</g>
<g>
	<path style="fill:#3A3847;" d="M256.121,399.817c-2.206,0-4.037-1.788-4.037-3.998s1.749-3.998,3.959-3.998h0.078
		c2.21,0,3.998,1.788,3.998,3.998S258.331,399.817,256.121,399.817z"/>
	<path style="fill:#3A3847;" d="M107.954,385.503c-1.327,0-2.624-0.664-3.385-1.866c-1.179-1.858-0.621-4.334,1.245-5.514
		c4.463-2.818,10.016-5.403,17.473-8.129c9.648-3.584,38.35-14.688,54.858-22.856c1.983-0.983,4.369-0.172,5.357,1.812
		c0.98,1.968,0.168,4.373-1.812,5.357c-16.812,8.324-45.862,19.561-55.639,23.192c-6.927,2.53-11.995,4.88-15.966,7.387
		C109.423,385.308,108.685,385.503,107.954,385.503z"/>
	<path style="fill:#3A3847;" d="M403.816,385.503c-0.734,0-1.468-0.195-2.14-0.617c-4.006-2.53-9.098-4.872-16.009-7.371
		c-12.354-4.623-39.81-15.399-55.592-23.208c-1.976-0.984-2.788-3.39-1.812-5.357c0.977-1.983,3.365-2.795,5.357-1.812
		c15.5,7.669,42.621,18.312,54.803,22.864c7.426,2.687,13.018,5.271,17.531,8.121c1.858,1.18,2.42,3.655,1.241,5.514
		C406.44,384.839,405.143,385.503,403.816,385.503z"/>
	<path style="fill:#3A3847;" d="M255.883,359.835c-37.654,0-99.954-58.005-99.954-124.104c0-2.21,1.788-3.998,3.998-3.998
		s3.998,1.788,3.998,3.998c0,59.867,57.368,116.107,91.958,116.107c34.594,0,91.958-56.24,91.958-116.107
		c0-2.21,1.788-3.998,3.998-3.998s3.998,1.788,3.998,3.998C355.837,301.83,293.537,359.835,255.883,359.835z"/>
	<path style="fill:#3A3847;" d="M159.927,231.894c-0.34,0-0.684-0.043-1.023-0.133c-1.621-0.43-2.799-1.823-2.959-3.49
		c-3.487-37.202,4.592-66.872,24.008-88.194c28.834-31.665,76.149-38.314,110.758-38.314c19.553,0,33.203,2.147,33.773,2.241
		c1.772,0.281,3.131,1.71,3.334,3.486c0.211,1.781-0.796,3.483-2.451,4.163c-18.039,7.391-16.103,25.075-14.518,32.083
		c7.341-0.289,22.623,1.41,33.945,14.63c12.307,14.376,16.009,37.975,10.995,70.147c-0.25,1.613-1.452,2.909-3.045,3.276
		c-1.593,0.371-3.249-0.258-4.187-1.601l-26.081-37.261c-9.168,3.999-37.077,14.978-66.833,14.978
		c-29.654,0-57.247-10.952-66.368-14.966l-26.074,37.249C162.442,231.273,161.212,231.894,159.927,231.894z M323.852,183.916
		c1.266,0,2.507,0.605,3.28,1.707l22.067,31.532c2.499-24.54-1.015-42.535-10.479-53.589c-8.824-10.304-20.717-11.846-27.019-11.846
		c-1.937,0-3.155,0.152-3.279,0.172c-1.844,0.238-3.71-0.843-4.342-2.647c-3.233-9.328-4.662-27.187,7.902-38.6
		c-5.561-0.465-12.885-0.887-21.271-0.887c-32.997,0-77.98,6.196-104.847,35.703c-15.868,17.421-23.466,41.192-22.65,70.768
		l21.424-30.606c1.125-1.613,3.256-2.171,5.029-1.301c0.32,0.156,32.333,15.587,65.978,15.587c33.73,0,66.146-15.438,66.474-15.595
		C322.673,184.045,323.258,183.916,323.852,183.916z"/>
	<path style="fill:#3A3847;" d="M187.914,343.842c-2.21,0-3.998-1.787-3.998-3.998v-7.996c0-2.21,1.788-3.998,3.998-3.998
		s3.998,1.788,3.998,3.998v7.996C191.912,342.055,190.124,343.842,187.914,343.842z"/>
	<path style="fill:#3A3847;" d="M219.904,383.824c-1.175,0-2.335-0.516-3.124-1.5l-31.997-39.997
		c-1.374-1.726-1.085-4.24,0.645-5.614c1.718-1.375,4.244-1.086,5.619,0.648l31.974,39.966c1.382,1.726,1.101,4.24-0.621,5.622
		C221.66,383.543,220.778,383.824,219.904,383.824z"/>
	<path style="fill:#3A3847;" d="M219.904,383.824c-1.468,0-2.878-0.812-3.581-2.21c-0.988-1.976-0.187-4.381,1.789-5.365
		l31.985-15.992c1.972-0.984,4.377-0.188,5.364,1.788c0.988,1.976,0.188,4.381-1.788,5.365l-31.985,15.992
		C221.113,383.684,220.505,383.824,219.904,383.824z"/>
	<path style="fill:#3A3847;" d="M323.852,343.842c-2.21,0-3.998-1.787-3.998-3.998v-7.996c0-2.21,1.788-3.998,3.998-3.998
		s3.998,1.788,3.998,3.998v7.996C327.85,342.055,326.062,343.842,323.852,343.842z"/>
	<path style="fill:#3A3847;" d="M291.866,383.824c-0.874,0-1.765-0.281-2.499-0.875c-1.718-1.382-1.999-3.896-0.624-5.622
		l31.978-39.966c1.366-1.734,3.889-2.016,5.614-0.648c1.733,1.374,2.022,3.889,0.648,5.614l-31.993,39.997
		C294.194,383.309,293.037,383.824,291.866,383.824z"/>
	<path style="fill:#3A3847;" d="M291.866,383.824c-0.608,0-1.218-0.141-1.788-0.422l-31.985-15.992
		c-1.976-0.984-2.776-3.39-1.788-5.365c0.991-1.976,3.385-2.772,5.364-1.788l31.985,15.992c1.977,0.984,2.772,3.39,1.789,5.365
		C294.74,383.012,293.334,383.824,291.866,383.824z"/>
	<path style="fill:#3A3847;" d="M275.874,470.823c-2.046,0-3.788-1.554-3.983-3.631c-0.203-2.202,1.414-4.139,3.608-4.35
		c54.357-5.037,103.843-30.955,139.335-72.959c27.417-32.438,44.026-71.998,48.017-114.386c0.203-2.193,2.124-3.779,4.35-3.607
		c2.194,0.203,3.811,2.155,3.607,4.357c-4.146,44.027-21.389,85.102-49.867,118.789c-36.851,43.621-88.241,70.531-144.692,75.771
		C276.115,470.816,275.99,470.823,275.874,470.823z"/>
	<path style="fill:#3A3847;" d="M466.818,239.41c-2.03,0-3.771-1.546-3.967-3.616C453.34,136.773,374.555,58.18,275.499,48.923
		c-2.194-0.207-3.812-2.155-3.608-4.354s2.18-3.815,4.357-3.612c102.867,9.617,184.689,91.236,194.552,194.071
		c0.219,2.198-1.39,4.15-3.592,4.361C467.083,239.406,466.943,239.41,466.818,239.41z"/>
	<path style="fill:#3A3847;" d="M44.945,239.89c-0.125,0-0.25-0.004-0.375-0.016c-2.198-0.207-3.814-2.155-3.611-4.354
		c9.624-103.112,91.45-184.938,194.563-194.563c2.194-0.195,4.147,1.414,4.354,3.612c0.203,2.198-1.414,4.146-3.612,4.354
		c-99.286,9.265-178.074,88.053-187.34,187.34C48.728,238.336,46.987,239.89,44.945,239.89z"/>
	<path style="fill:#3A3847;" d="M235.896,470.823c-0.125,0-0.25-0.008-0.375-0.016c-59.11-5.521-113.959-35.71-150.482-82.86
		c-25.031-32.313-40.274-70.937-44.081-111.699c-0.203-2.202,1.413-4.154,3.611-4.357c2.179-0.211,4.146,1.414,4.354,3.607
		c3.662,39.256,18.339,76.45,42.438,107.561c35.176,45.394,87.991,74.481,144.902,79.784c2.198,0.211,3.815,2.155,3.612,4.35
		C239.68,469.27,237.938,470.823,235.896,470.823z"/>
	<path style="fill:#3A3847;" d="M490.971,239.89c-2.054,0-3.803-1.577-3.975-3.662c-9.488-113.042-98.416-201.97-211.458-211.454
		c-2.194-0.184-3.835-2.116-3.647-4.318c0.18-2.198,2.125-3.803,4.318-3.646c116.939,9.808,208.943,101.809,218.752,218.747
		c0.188,2.202-1.452,4.135-3.654,4.318C491.197,239.886,491.088,239.89,490.971,239.89z"/>
	<path style="fill:#3A3847;" d="M235.896,494.899c-0.109,0-0.223-0.008-0.336-0.016C118.621,485.153,26.621,393.18,16.809,276.209
		c-0.188-2.202,1.449-4.131,3.647-4.318c2.182-0.203,4.143,1.453,4.318,3.646c9.488,113.074,98.416,201.963,211.45,211.381
		c2.202,0.172,3.834,2.107,3.651,4.311C239.703,493.321,237.954,494.899,235.896,494.899z"/>
	<path style="fill:#3A3847;" d="M507.768,259.881h-79.963c-2.211,0-3.999-1.788-3.999-3.998s1.788-3.998,3.999-3.998h79.963
		c2.21,0,3.998,1.788,3.998,3.998S509.978,259.881,507.768,259.881z"/>
	<path style="fill:#3A3847;" d="M83.962,259.881H3.998c-2.21,0-3.998-1.788-3.998-3.998s1.788-3.998,3.998-3.998h79.963
		c2.21,0,3.999,1.788,3.999,3.998S86.172,259.881,83.962,259.881z"/>
	<path style="fill:#3A3847;" d="M255.883,511.766c-2.21,0-3.998-1.788-3.998-3.998v-79.964c0-2.21,1.788-3.998,3.998-3.998
		c2.21,0,3.998,1.788,3.998,3.998v79.964C259.881,509.978,258.093,511.766,255.883,511.766z"/>
	<path style="fill:#3A3847;" d="M255.883,87.96c-2.21,0-3.998-1.789-3.998-3.999V3.998c0-2.21,1.788-3.998,3.998-3.998
		c2.21,0,3.998,1.788,3.998,3.998v79.963C259.881,86.171,258.093,87.96,255.883,87.96z"/>
</g>
<g>
</g>
<g>
</g>
<g>
</g>
<g>
</g>
<g>
</g>
<g>
</g>
<g>
</g>
<g>
</g>
<g>
</g>
<g>
</g>
<g>
</g>
<g>
</g>
<g>
</g>
<g>
</g>
<g>
</g>
</svg>
