<?xml version="1.0" encoding="iso-8859-1"?>
<!-- Generator: Adobe Illustrator 19.0.0, SVG Export Plug-In . SVG Version: 6.00 Build 0)  -->
<svg version="1.1" id="Capa_1" xmlns="http://www.w3.org/2000/svg" xmlns:xlink="http://www.w3.org/1999/xlink" x="0px" y="0px"
	 viewBox="0 0 512.004 512.004" style="enable-background:new 0 0 512.004 512.004;" xml:space="preserve">
<g>
	<path style="fill:#F3D1BB;" d="M326.187,512.001v-44.194c0-14.756-7.24-28.877-19.207-37.509
		c-6.046-4.361-13.129-7.218-20.514-8.258c-9.574-1.348-9.702-1.058-9.702-11.083c0-0.027,0-17.733,0-17.733h-41.65
		c0,0,0,17.707,0,17.733c0,10.027-0.128,9.736-9.703,11.083c-7.384,1.04-14.466,3.896-20.514,8.258
		c-11.967,8.631-19.207,22.753-19.207,37.509v44.194H326.187z"/>
	<path style="fill:#F3D1BB;" d="M102.202,116.843v118.803h-2.563c-16.656,0-30.159,13.503-30.159,30.159l0,0
		c0,16.656,13.503,30.159,30.159,30.159h2.596c1.4,60.074,50.535,108.343,110.945,108.343h85.516
		c61.292,0,110.979-49.687,110.979-110.979V116.843H102.202z"/>
</g>
<path style="fill:#E8C0A8;" d="M412.615,233.701h-2.936V116.843h-43.874v176.483c0,61.299-49.678,110.977-110.977,110.977h43.874
	c61.22,0,110.869-49.573,110.975-110.782h2.938c8.68,0,16.495-3.697,21.959-9.602c4.935-5.333,7.951-12.468,7.951-20.307l0,0
	C442.525,247.092,429.133,233.701,412.615,233.701z"/>
<path style="fill:#8C6239;" d="M80.269,203.284v-76.569c0-24.153,19.58-43.733,43.733-43.733h2.176l0,0
	c0-24.153,19.58-43.733,43.733-43.733H281.77c10.846,0,21.635-1.982,31.648-6.153c12.322-5.133,25.916-14.386,31.096-30.877
	c0.689-2.195,3.399-2.953,5.084-1.387c8.282,7.695,26.922,28.453,26.731,59.242v18.743h11.546c24.153,0,43.733,19.58,43.733,43.733
	v80.734c0,11.307-9.166,20.474-20.474,20.474l0,0c-11.307,0-20.474-9.166-20.474-20.474v-33.665c0-11.24-11.136-19.144-21.71-15.332
	c-15.274,5.506-38.344,7.882-68.368-5.907c-16.491-7.574-34.508-11.249-52.656-11.249h-75.933
	c-27.604,0-49.981,22.378-49.981,49.981v16.175c0,11.307-9.166,20.474-20.474,20.474h-0.797
	C89.436,223.758,80.269,214.591,80.269,203.284z"/>
<path style="fill:#7F522D;" d="M431.602,122.533v80.203c0,11.187-9.142,20.954-20.33,21.026c-5.719,0.037-10.88-2.261-14.617-5.997
	c-3.707-3.707-5.998-8.83-5.998-14.481v-33.669c0-10.969-10.621-18.772-20.952-15.578v-31.49c0-24.155-19.581-43.736-43.736-43.736
	h-4.61c-3.834,0-6.942-3.108-6.942-6.942V60.068c0.056-9.552-1.694-18.132-4.401-25.644c1.042-0.375,2.069-0.777,3.083-1.195
	c12.396-5.104,26.181-14.372,31.408-31.004c0.69-2.198,3.394-2.967,5.082-1.399c8.281,7.692,26.933,28.454,26.739,59.24V78.81
	h11.552C412.027,78.811,431.602,98.387,431.602,122.533z"/>
<g>
	<path style="fill:#8C6239;" d="M258.048,306.404c2.051-10.998-8.752-19.704-19.137-15.543c-6.137,2.459-12.224,6.813-15.709,14.475
		c0,0-4.563,12.814-17.009,20.534c-2.566,1.592-1.716,5.538,1.268,6.004C223.162,334.332,252.723,334.958,258.048,306.404z"/>
	<path style="fill:#8C6239;" d="M253.828,306.404c-2.051-10.998,8.752-19.704,19.137-15.543c6.137,2.459,12.224,6.813,15.709,14.475
		c0,0,4.563,12.814,17.009,20.534c2.566,1.592,1.716,5.538-1.268,6.004C288.712,334.332,259.152,334.958,253.828,306.404z"/>
</g>
<g>
	<circle style="fill:#E8979F;" cx="165.055" cy="282.531" r="16.737"/>
	<circle style="fill:#E8979F;" cx="346.818" cy="282.531" r="16.737"/>
</g>
<path style="fill:#423E3C;" d="M326.183,467.81c0-14.76-7.234-28.88-19.199-37.507c-3.864-2.787-8.15-4.958-12.67-6.433
	c-2.551-0.835-5.185-1.45-7.85-1.831c-3.905-0.551-6.238-0.818-7.631-1.636l-1.79,0.397l-4.788,2.665
	c-10.24,5.711-22.707,5.67-32.907-0.113l-4.513-2.551l-1.79-0.397c-1.394,0.818-3.726,1.086-7.631,1.636
	c-2.666,0.38-5.298,0.997-7.849,1.831c-4.521,1.475-8.806,3.645-12.67,6.433c-11.965,8.628-19.199,24.465-19.199,39.225h34.122
	v42.475h72.243v-44.192h34.122V467.81z"/>
<path style="fill:#E8979F;" d="M247.185,344.035c-4.29,0-7.769,3.478-7.769,7.769c0,4.291,3.478,7.769,7.769,7.769h17.508
	c4.29,0,7.769-3.478,7.769-7.769c0-4.291-3.478-7.769-7.769-7.769H247.185z"/>
<g>
	<path style="fill:#7F522D;" d="M224.374,193.564H192.73c-4.29,0-7.769,3.478-7.769,7.769s3.478,7.769,7.769,7.769h31.644
		c4.29,0,7.769-3.478,7.769-7.769S228.664,193.564,224.374,193.564z"/>
	<path style="fill:#7F522D;" d="M326.916,201.333c0-4.291-3.478-7.769-7.769-7.769h-31.644c-4.29,0-7.769,3.478-7.769,7.769
		s3.478,7.769,7.769,7.769h31.644C323.438,209.102,326.916,205.624,326.916,201.333z"/>
</g>
<g>
	<path style="fill:#8C6239;" d="M210.591,257.066c4.29,0,7.769-3.478,7.769-7.769v-24.182c0-4.291-3.478-7.769-7.769-7.769
		c-4.291,0-7.769,3.478-7.769,7.769v24.182C202.822,253.588,206.301,257.066,210.591,257.066z"/>
	<path style="fill:#8C6239;" d="M293.517,225.116v24.182c0,4.291,3.478,7.769,7.769,7.769c4.29,0,7.769-3.478,7.769-7.769v-24.182
		c0-4.291-3.478-7.769-7.769-7.769C296.996,217.347,293.517,220.825,293.517,225.116z"/>
</g>
<path style="fill:#DDA68C;" d="M256.089,299.625c-9.57,0-18.163-5.695-21.891-14.51c-1.614-3.817,0.171-8.221,3.988-9.835
	c3.819-1.615,8.22,0.17,9.836,3.987c1.375,3.249,4.542,5.349,8.069,5.349c3.355,0,6.459-1.958,7.906-4.987
	c1.786-3.74,6.264-5.325,10.007-3.535c3.739,1.786,5.322,6.267,3.535,10.006C273.611,294.316,265.192,299.625,256.089,299.625z"/>
<g>
</g>
<g>
</g>
<g>
</g>
<g>
</g>
<g>
</g>
<g>
</g>
<g>
</g>
<g>
</g>
<g>
</g>
<g>
</g>
<g>
</g>
<g>
</g>
<g>
</g>
<g>
</g>
<g>
</g>
</svg>
