<?xml version="1.0" encoding="iso-8859-1"?>
<!-- Generator: Adobe Illustrator 21.0.0, SVG Export Plug-In . SVG Version: 6.00 Build 0)  -->
<svg version="1.1" id="Capa_1" xmlns="http://www.w3.org/2000/svg" xmlns:xlink="http://www.w3.org/1999/xlink" x="0px" y="0px"
	 viewBox="0 0 512 512" style="enable-background:new 0 0 512 512;" xml:space="preserve">
<g>
	<circle style="fill:#CC9883;" cx="426.235" cy="204.22" r="35.416"/>
	<circle style="fill:#CC9883;" cx="85.765" cy="204.22" r="35.416"/>
</g>
<path style="fill:#FBC4AC;" d="M89.693,512c0-91.846,74.456-166.302,166.302-166.302S422.297,420.154,422.297,512H89.693z"/>
<path style="fill:#E3B098;" d="M271.611,346.433c-5.142-0.479-10.349-0.735-15.616-0.735c-91.846,0-166.302,74.456-166.302,166.302
	h31.232C120.925,425.421,187.089,354.306,271.611,346.433z"/>
<path style="fill:#DC5A64;" d="M150.334,383.574V512h211.323V383.574c-28.73-23.664-65.536-37.876-105.662-37.876
	S179.063,359.91,150.334,383.574z"/>
<path style="fill:#BF4E57;" d="M271.639,346.43c-5.151-0.481-10.368-0.733-15.644-0.733c-40.126,0-76.932,14.213-105.661,37.877
	v33.992C177.561,378.171,221.348,351.106,271.639,346.43z"/>
<path style="fill:#EFEDEE;" d="M321.33,442.087H190.66c-2.247,0-4.068,1.821-4.068,4.068V512h138.806v-65.845
	C325.398,443.908,323.576,442.087,321.33,442.087z"/>
<path style="fill:#D4D2D3;" d="M221.893,442.087h-31.232c-2.247,0-4.068,1.821-4.068,4.068V512h31.232v-65.845
	C217.824,443.908,219.646,442.087,221.893,442.087z"/>
<path style="fill:#EFEDEE;" d="M255.995,424.686c-32.34,0-58.651-26.311-58.651-58.651s26.31-58.651,58.651-58.651
	s58.651,26.31,58.651,58.651S288.335,424.686,255.995,424.686z"/>
<path style="fill:#BF4E57;" d="M255.995,345.698c-31.025,0-60.06,8.502-84.917,23.294c25.668,12.526,54.484,19.567,84.917,19.567
	s59.248-7.041,84.917-19.567C316.055,354.2,287.02,345.698,255.995,345.698z"/>
<path style="fill:#D4D2D3;" d="M312.948,380.018c1.101-4.484,1.697-9.164,1.697-13.983c0-3.408-0.309-6.744-0.869-9.994
	c-18-6.674-37.459-10.343-57.781-10.343s-39.781,3.669-57.781,10.343c-0.561,3.25-0.869,6.586-0.869,9.994
	c0,4.819,0.596,9.499,1.697,13.983c18.02,5.539,37.141,8.541,56.953,8.541S294.928,385.557,312.948,380.018z"/>
<circle style="fill:#E3B098;" cx="255.995" cy="366.04" r="43.03"/>
<path style="fill:#CC9883;" d="M255.995,323c-23.767,0-43.035,19.267-43.035,43.035c0,6.673,1.519,12.991,4.23,18.627
	c12.543,2.553,25.519,3.896,38.805,3.896c13.285,0,26.262-1.344,38.805-3.896c2.711-5.637,4.23-11.954,4.23-18.627
	C299.03,342.268,279.762,323,255.995,323z"/>
<g>
	<path style="fill:#EFEDEE;" d="M346.04,512h15.616V383.574c-4.97-4.094-10.187-7.897-15.616-11.401V512z"/>
	<path style="fill:#EFEDEE;" d="M165.95,512h-15.616V383.574c4.97-4.094,10.187-7.897,15.616-11.401V512z"/>
</g>
<path style="fill:#D4D2D3;" d="M165.95,372.174c-2.688,1.734-5.323,3.544-7.903,5.424c-0.09,0.066-0.179,0.133-0.269,0.199
	c-1.084,0.793-2.155,1.602-3.218,2.421c-0.264,0.204-0.529,0.406-0.792,0.612c-1.156,0.901-2.304,1.814-3.435,2.745v33.992
	c4.721-6.831,9.951-13.281,15.616-19.319v-26.074H165.95z"/>
<circle style="fill:#FBC4AC;" cx="255.995" cy="194.28" r="178.66"/>
<path style="fill:#E3B098;" d="M108.564,194.279c0-93.41,71.689-170.064,163.047-177.976c-5.147-0.446-10.353-0.687-15.616-0.687
	c-98.673,0-178.663,79.99-178.663,178.663s79.99,178.664,178.663,178.664c5.263,0,10.469-0.241,15.616-0.687
	C180.253,364.343,108.564,287.689,108.564,194.279z"/>
<path style="fill:#3A484A;" d="M377.8,137.73l14.656,48.616c-76.6-2.289-128.653-48.096-128.653-48.096l26.027,53.615
	c-114.518,5.915-150.955-51.533-150.955-51.533c-36.958,35.863-76.448,37.254-76.448,37.254C70.919,78.245,154.491,0,255.995,0
	s185.077,78.245,193.569,177.587C449.564,177.587,401.745,166.88,377.8,137.73z"/>
<path style="fill:#313D40;" d="M437.201,124.198c-6.173-15.907-14.387-30.802-24.313-44.369H130.35
	c32.482-44.402,83.323-74.565,141.261-79.195C266.458,0.222,261.252,0,255.995,0C191.627,0,134.48,31.472,99.108,79.829h-0.005
	c-0.044,0.06-0.085,0.122-0.129,0.182c-2.368,3.246-4.638,6.567-6.806,9.96c-0.632,0.989-1.233,1.996-2.019,2.897
	c-0.613,0.703-0.996,1.547-1.297,2.43c-0.048,0.14-0.125,0.252-0.195,0.372c-1.019,1.723-2.01,3.464-2.977,5.22
	c-0.117,0.212-0.23,0.425-0.346,0.638c-0.836,1.542-1.658,3.091-2.457,4.653c-0.152,0.297-0.307,0.593-0.457,0.892
	c-0.878,1.741-1.735,3.495-2.562,5.265c-0.057,0.122-0.111,0.244-0.167,0.366c-0.688,1.522-1.387,3.04-2.049,4.574
	c-0.229,0.532-0.458,1.062-0.684,1.595c-0.745,1.763-1.474,3.534-2.168,5.322l-0.001,0.002l0,0
	c-6.519,16.799-10.767,34.721-12.363,53.389c0,0,13.504-0.488,32.1-8.047c1.825-14.293,5.213-28.104,9.98-41.259
	c0.885-2.442,3.186-4.083,5.784-4.083L437.201,124.198L437.201,124.198z"/>
<path style="fill:#EFEDEE;" d="M82.867,108.582h346.256c2.943,0,4.847-3.141,3.458-5.736c-10.119-18.891-23.27-35.924-38.8-50.446
	c-0.915-0.856-2.128-1.325-3.381-1.325H121.59c-1.253,0-2.466,0.469-3.381,1.325c-15.53,14.521-28.681,31.554-38.8,50.446
	C78.02,105.441,79.924,108.582,82.867,108.582z"/>
<path style="fill:#D4D2D3;" d="M110.642,102.847c10.119-18.892,23.27-35.925,38.8-50.446c0.915-0.856,2.128-1.325,3.381-1.325
	h-31.232c-1.253,0-2.465,0.469-3.381,1.325c-15.53,14.521-28.681,31.554-38.8,50.446c-1.39,2.594,0.515,5.736,3.458,5.736H114.1
	C111.156,108.582,109.252,105.441,110.642,102.847z"/>
<g>
	<path style="fill:#3A484A;" d="M255.995,259.264c-9.781,0-18.888-5.272-23.767-13.758c-2.064-3.591-0.827-8.176,2.764-10.24
		c3.591-2.063,8.176-0.827,10.24,2.764c2.211,3.845,6.334,6.234,10.763,6.234c4.428,0,8.551-2.389,10.762-6.233
		c2.064-3.591,6.649-4.828,10.24-2.764c3.591,2.064,4.828,6.649,2.764,10.24C274.883,253.992,265.776,259.264,255.995,259.264z"/>
	<path style="fill:#3A484A;" d="M321.607,229.103c-4.142,0-7.5-3.358-7.5-7.5v-11.698c0-4.142,3.358-7.5,7.5-7.5s7.5,3.358,7.5,7.5
		v11.698C329.107,225.745,325.749,229.103,321.607,229.103z"/>
	<path style="fill:#3A484A;" d="M190.383,229.103c-4.142,0-7.5-3.358-7.5-7.5v-11.698c0-4.142,3.358-7.5,7.5-7.5s7.5,3.358,7.5,7.5
		v11.698C197.883,225.745,194.525,229.103,190.383,229.103z"/>
</g>
<g>
	<path style="fill:#DC5A64;" d="M327.456,251.217h-11.698c-4.142,0-7.5-3.358-7.5-7.5s3.358-7.5,7.5-7.5h11.698
		c4.142,0,7.5,3.358,7.5,7.5S331.598,251.217,327.456,251.217z"/>
	<path style="fill:#DC5A64;" d="M196.232,251.217h-11.698c-4.142,0-7.5-3.358-7.5-7.5s3.358-7.5,7.5-7.5h11.698
		c4.142,0,7.5,3.358,7.5,7.5S200.374,251.217,196.232,251.217z"/>
</g>
<g>
</g>
<g>
</g>
<g>
</g>
<g>
</g>
<g>
</g>
<g>
</g>
<g>
</g>
<g>
</g>
<g>
</g>
<g>
</g>
<g>
</g>
<g>
</g>
<g>
</g>
<g>
</g>
<g>
</g>
</svg>
