<svg height="512pt" viewBox="-76 0 512 512.00036" width="512pt" xmlns="http://www.w3.org/2000/svg"><path d="m341.316406 512v-107.785156c.003906-56.46875-43.578125-103.363282-99.898437-107.496094h-123.574219c-56.308594 4.140625-99.882812 51.035156-99.878906 107.496094v107.785156zm0 0" fill="#e6e6e6"/><path d="m287.425781 512v-17.964844c23.953125-25.148437 23.953125-64.667968 0-89.820312v-93.277344c-13.738281-7.972656-29.078125-12.785156-44.910156-14.09375v17.550781c0 34.726563-28.148437 62.875-62.875 62.875-34.722656 0-62.875-28.148437-62.875-62.875v-17.550781c-15.832031 1.308594-31.171875 6.125-44.910156 14.101562v93.269532c-23.949219 25.152344-23.949219 64.671875 0 89.820312v17.964844zm0 0" fill="#754c24"/><path d="m125.75 440.144531h107.785156v71.855469h-107.785156zm0 0" fill="#a67c52"/><path d="m125.75 440.144531h107.785156v35.925781h-107.785156zm0 0" fill="#c69c6d"/><path d="m53.890625 449.125c.015625-3.007812.257813-6.007812.71875-8.980469h-54.609375v35.925781h60.027344c-3.984375-8.425781-6.078125-17.621093-6.136719-26.945312zm0 0" fill="#ccc"/><path d="m71.855469 512v-17.964844c-4.855469-5.332031-8.847657-11.394531-11.828125-17.964844h-42.0625v35.929688zm0 0" fill="#f2c09a"/><path d="m305.390625 449.125c-.015625-3.007812-.257813-6.007812-.71875-8.980469h54.609375v35.925781h-60.027344c3.984375-8.425781 6.078125-17.621093 6.136719-26.945312zm0 0" fill="#ccc"/><path d="m287.425781 512v-17.964844c4.855469-5.332031 8.847657-11.394531 11.828125-17.964844h42.0625v35.929688zm0 0" fill="#f2c09a"/><path d="m242.515625 278.46875v35.925781c0 34.726563-28.148437 62.875-62.875 62.875-34.722656 0-62.875-28.148437-62.875-62.875v-35.925781zm0 0" fill="#f2c09a"/><path d="m179.640625 314.394531c-22.296875.007813-44.125-6.40625-62.875-18.476562v18.476562c.023437 2.976563.257813 5.949219.703125 8.894531 37.953125 24.070313 86.390625 24.070313 124.347656 0 .441406-2.945312.675782-5.917968.699219-8.894531v-18.476562c-18.75 12.070312-40.578125 18.484375-62.875 18.476562zm0 0" fill="#cc9c72"/><path d="m98.804688 386.25h17.960937v17.964844h-17.960937zm0 0" fill="#c69c6d"/><path d="m242.515625 386.25h17.964844v17.964844h-17.964844zm0 0" fill="#c69c6d"/><path d="m179.640625 26.96875c64.488281 0 116.765625 52.28125 116.765625 116.769531v53.890625c0 64.488282-52.277344 116.765625-116.765625 116.765625s-116.765625-52.277343-116.765625-116.765625v-53.890625c0-64.488281 52.277344-116.769531 116.765625-116.769531zm0 0" fill="#f2c09a"/><g fill="#a67c52"><path d="m179.640625 242.539062h-8.980469c-4.960937 0-8.984375-4.019531-8.984375-8.980468 0-4.960938 4.023438-8.984375 8.984375-8.984375h8.980469v-17.964844c0-4.960937 4.023437-8.980469 8.984375-8.980469 4.957031 0 8.980469 4.019532 8.980469 8.980469v17.964844c0 9.921875-8.042969 17.964843-17.964844 17.964843zm0 0"/><path d="m152.695312 188.648438h-35.929687c-4.960937 0-8.980469-4.023438-8.980469-8.984376 0-4.960937 4.019532-8.980468 8.980469-8.980468h35.929687c4.960938 0 8.980469 4.019531 8.980469 8.980468 0 4.960938-4.019531 8.984376-8.980469 8.984376zm0 0"/><path d="m242.515625 188.648438h-35.929687c-4.960938 0-8.980469-4.023438-8.980469-8.984376 0-4.960937 4.019531-8.980468 8.980469-8.980468h35.929687c4.960937 0 8.980469 4.019531 8.980469 8.980468 0 4.960938-4.019532 8.984376-8.980469 8.984376zm0 0"/><path d="m143.710938 206.609375c0 4.960937-4.019532 8.984375-8.980469 8.984375-4.960938 0-8.980469-4.023438-8.980469-8.984375s4.019531-8.980469 8.980469-8.980469c4.960937 0 8.980469 4.019532 8.980469 8.980469zm0 0"/><path d="m233.535156 206.609375c0 4.960937-4.023437 8.984375-8.984375 8.984375-4.960937 0-8.980469-4.023438-8.980469-8.984375s4.019532-8.980469 8.980469-8.980469c4.960938 0 8.984375 4.019532 8.984375 8.980469zm0 0"/><path d="m188.621094 287.449219h-17.960938c-4.960937 0-8.984375-4.019531-8.984375-8.980469s4.023438-8.984375 8.984375-8.984375h17.960938c4.960937 0 8.984375 4.023437 8.984375 8.984375s-4.023438 8.980469-8.984375 8.980469zm0 0"/></g><path d="m89.820312 197.628906v-53.890625c.027344-59.257812 44.433594-109.097656 103.292969-115.933593-63.777343-7.6875-121.714843 37.78125-129.402343 101.558593-.574219 4.769531-.855469 9.570313-.835938 14.375v53.890625c-.25 64.238282 51.625 116.519532 115.867188 116.765625 4.804687.019531 9.601562-.257812 14.371093-.835937-58.859375-6.835938-103.265625-56.675782-103.292969-115.929688zm0 0" fill="#e8b894"/><path d="m80.839844 278.46875c-30.757813-.023438-55.671875-24.972656-55.652344-55.726562.003906-4.671876.59375-9.324219 1.757812-13.851563l29.210938-113.171875c14.523438-56.324219 65.316406-95.6875 123.484375-95.6953125 58.164063 0 108.957031 39.3515625 123.496094 95.6679685l26.945312 104.507813c8.640625 33.488281-11.503906 67.640625-44.992187 76.28125-5.105469 1.316406-10.355469 1.984375-15.628906 1.988281v-125.75h-17.964844c-29.761719 0-53.890625-24.128906-53.890625-53.890625v53.890625h-8.984375c-29.761719 0-53.890625-24.128906-53.890625-53.890625 0 29.761719-24.128907 53.890625-53.890625 53.890625zm0 0" fill="#534741"/><path d="m46.707031 217.875 29.210938-113.175781c17.550781-68.175781 87.046875-109.21875 155.226562-91.667969 3.625.933594 7.210938 2.027344 10.742188 3.277344-61.382813-34.425782-139.050781-12.574219-173.476563 48.808594-5.390625 9.617187-9.515625 19.894531-12.261718 30.574218l-29.203126 113.203125c-7.667968 29.78125 10.257813 60.144531 40.042969 67.8125.425781.109375.851563.214844 1.277344.3125-18.742187-13.347656-27.316406-36.867187-21.558594-59.144531zm0 0" fill="#3d3430"/></svg>