<?xml version="1.0" encoding="iso-8859-1"?>
<!-- Generator: Adobe Illustrator 19.0.0, SVG Export Plug-In . SVG Version: 6.00 Build 0)  -->
<svg version="1.1" id="Capa_1" xmlns="http://www.w3.org/2000/svg" xmlns:xlink="http://www.w3.org/1999/xlink" x="0px" y="0px"
	 viewBox="0 0 512 512" style="enable-background:new 0 0 512 512;" xml:space="preserve">
<path style="fill:#4E7693;" d="M364.401,177.504c14.089-16.558,22.325-52.496,22.325-74.022C386.726,46.331,328.691,0,257.103,0
	c-33.107,0-63.309,9.914-86.219,26.219c-25.93,4.665-45.61,27.326-45.61,54.599v53.525c0,23.838,19.324,43.162,43.162,43.162
	h195.965V177.504z"/>
<path style="fill:#618BAA;" d="M386.73,103.482c0,2.988-0.154,6.243-0.474,9.684c-5.604-53.023-61.296-94.653-129.154-94.653
	c-33.11,0-63.305,9.91-86.216,26.218c-25.93,4.667-45.616,27.331-45.616,54.6V80.818c0-27.269,19.687-49.933,45.616-54.6
	C193.798,9.91,223.992,0,257.102,0C328.69,0,386.73,46.327,386.73,103.482z"/>
<path style="fill:#AFC3C3;" d="M437.353,505.551c0.175,3.513-2.658,6.449-6.181,6.449H80.828c-3.523,0-6.356-2.936-6.181-6.459
	c3.297-67.292,43.226-124.971,100.288-153.487c4.378-2.194,8.87-4.213,13.444-6.047c0.072-0.031,0.155-0.062,0.227-0.093
	c3.235-1.288,6.511-2.493,9.838-3.606c18.09-6.047,37.447-9.313,57.556-9.313c20.119,0,39.477,3.266,57.566,9.313
	c3.317,1.113,6.593,2.308,9.828,3.606c0.072,0.031,0.155,0.062,0.227,0.093c4.584,1.834,9.065,3.853,13.454,6.047
	c17.596,8.787,33.563,20.356,47.327,34.13C415.276,417.048,435.066,458.997,437.353,505.551z"/>
<g>
	<path style="fill:#92A8A7;" d="M323.394,345.914c-0.309,0.948-0.7,1.875-1.164,2.771l-17.894,34.46
		c-1.689,3.256-4.203,5.893-7.211,7.716s-6.511,2.833-10.178,2.833c-5.13,0-9.993-1.978-13.671-5.573L256,371.236l-17.276,16.885
		c-3.678,3.595-8.53,5.573-13.671,5.573c-7.335,0-14-4.038-17.379-10.549l-17.905-34.46c-0.464-0.896-0.855-1.823-1.164-2.771
		c3.235-1.288,6.511-2.493,9.838-3.606c18.09-6.047,37.447-9.313,57.556-9.313c20.119,0,39.477,3.266,57.566,9.313
		C316.884,343.421,320.16,344.616,323.394,345.914z"/>
	<path style="fill:#92A8A7;" d="M203.111,512l24.601-109.354c-7.119-7.201-11.528-17.091-11.528-27.99
		c0-21.953,17.863-39.816,39.816-39.816c21.963,0,39.816,17.863,39.816,39.816c0,10.899-4.399,20.789-11.517,27.99L308.9,512
		H203.111z"/>
</g>
<polygon style="fill:#FC4747;" points="295.168,512 216.843,512 239.579,410.939 244.761,387.874 267.25,387.874 272.431,410.929 
	"/>
<path style="fill:#E20F0A;" d="M272.431,410.929c-5.079,2.308-10.662,3.544-16.431,3.544s-11.342-1.226-16.421-3.534l5.182-23.066
	h22.489L272.431,410.929z"/>
<path style="fill:#FC4747;" d="M282.424,374.656c0,6.305-2.204,12.094-5.893,16.638c-4.842,5.975-12.238,9.787-20.531,9.787
	c-8.283,0-15.679-3.812-20.521-9.787c-3.698-4.543-5.903-10.333-5.903-16.638c0-14.587,11.837-26.424,26.424-26.424
	C270.598,348.232,282.424,360.069,282.424,374.656z"/>
<path style="fill:#E20F0A;" d="M282.424,374.656c0,6.305-2.204,12.094-5.893,16.638L256,371.236l-20.521,20.058
	c-3.698-4.543-5.903-10.333-5.903-16.638c0-14.587,11.837-26.424,26.424-26.424C270.598,348.232,282.424,360.069,282.424,374.656z"
	/>
<polygon style="fill:#FEDFC5;" points="285.598,257.393 285.598,325.813 256.005,352.505 226.411,325.813 226.411,257.393 "/>
<path style="fill:#EDB48A;" d="M285.598,257.393v45.926c-9.482,3.35-19.423,5.085-29.594,5.085s-20.111-1.735-29.594-5.085v-45.926
	H285.598z"/>
<path style="fill:#FEDFC5;" d="M394.999,177.506c0,13.441-10.898,24.339-24.339,24.339c-3.54,0-6.89-0.758-9.921-2.114
	c-8.495-3.799-14.408-12.324-14.408-22.225c0-10.489,6.641-19.433,15.943-22.853c2.612-0.957,5.434-1.486,8.385-1.486
	C384.101,153.167,394.999,164.065,394.999,177.506z"/>
<path style="fill:#EDB48A;" d="M362.274,154.653v22.674c0,7.588-0.518,15.076-1.536,22.405
	c-8.495-3.799-14.408-12.324-14.408-22.225C346.331,167.017,352.972,158.073,362.274,154.653z"/>
<path style="fill:#FEDFC5;" d="M165.678,177.506c0,9.901-5.913,18.426-14.408,22.225c-3.031,1.356-6.381,2.114-9.921,2.114
	c-13.441,0-24.339-10.898-24.339-24.339c0-13.441,10.898-24.339,24.339-24.339c2.951,0,5.773,0.528,8.386,1.486
	C159.038,158.073,165.678,167.017,165.678,177.506z"/>
<path style="fill:#EDB48A;" d="M165.678,177.506c0,9.901-5.913,18.426-14.408,22.225c-1.017-7.329-1.535-14.817-1.535-22.405
	v-22.674C159.038,158.073,165.678,167.017,165.678,177.506z"/>
<path style="fill:#FEDFC5;" d="M349.314,94.148v83.177c0,65.231-41.784,118.121-93.314,118.121s-93.304-52.89-93.304-118.121V94.148
	H349.314z"/>
<path style="fill:#EDB48A;" d="M349.314,94.148v24.034c-1.051,0.927-2.133,1.834-3.225,2.709
	c-16.977,13.629-38.333,21.139-60.142,21.139H181.425c-5.821,2.915-12.105,5.017-18.729,6.14V94.148H349.314z"/>
<path style="fill:#4E7693;" d="M366.497,64.84c-8.571,36.561-41.372,63.799-80.55,63.799H178.108
	c-3.925,2.256-8.159,4.028-12.62,5.233s-9.148,1.854-14,1.854V64.84H366.497z"/>
<g>
	<path style="fill:#864A2D;" d="M256.005,257.318c-13.635,0-25.429-11.565-28.041-27.5c-0.69-4.211,2.164-8.184,6.374-8.875
		c4.216-0.687,8.184,2.164,8.875,6.374c1.382,8.43,6.762,14.547,12.792,14.547c6.029,0,11.408-6.118,12.791-14.547
		c0.691-4.211,4.662-7.066,8.875-6.374c4.21,0.691,7.064,4.664,6.374,8.875C281.433,245.754,269.64,257.318,256.005,257.318z"/>
	<path style="fill:#864A2D;" d="M213.559,195.556c-4.268,0-7.726-3.459-7.726-7.726v-12.934c0-4.267,3.459-7.726,7.726-7.726
		s7.726,3.459,7.726,7.726v12.934C221.286,192.097,217.827,195.556,213.559,195.556z"/>
	<path style="fill:#864A2D;" d="M298.451,195.556c-4.268,0-7.726-3.459-7.726-7.726v-12.934c0-4.267,3.459-7.726,7.726-7.726
		s7.726,3.459,7.726,7.726v12.934C306.177,192.097,302.718,195.556,298.451,195.556z"/>
</g>
<g>
	<path style="fill:#DDEDE5;" d="M256.005,352.505l-26.64,26.04c-2.967,2.901-7.893,2.111-9.806-1.571l-17.9-34.464
		c-1.708-3.289-0.158-7.331,3.311-8.635l21.443-8.059L256.005,352.505z"/>
	<path style="fill:#DDEDE5;" d="M256,352.505l26.64,26.04c2.967,2.901,7.893,2.111,9.806-1.571l17.9-34.464
		c1.708-3.289,0.158-7.331-3.311-8.635l-21.443-8.059L256,352.505z"/>
</g>
<g>
	<path style="fill:#385F82;" d="M212.825,79.602v11.785c0,14-4.718,26.919-12.651,37.251h-21.933
		c11.579-8.334,19.131-21.922,19.131-37.251V79.602c0-4.275,3.461-7.726,7.726-7.726C209.364,71.876,212.825,75.327,212.825,79.602z
		"/>
	<path style="fill:#385F82;" d="M301.963,88.71c-1.977,0-3.955-0.755-5.464-2.263c-3.017-3.017-3.017-7.909,0-10.927l14.818-14.818
		c3.018-3.017,7.909-3.017,10.928,0c3.017,3.017,3.017,7.909,0,10.927l-14.818,14.818C305.918,87.956,303.94,88.71,301.963,88.71z"
		/>
	<path style="fill:#385F82;" d="M274.11,88.71c-1.977,0-3.955-0.755-5.464-2.263c-3.017-3.017-3.017-7.909,0-10.927l14.818-14.818
		c3.018-3.017,7.909-3.017,10.928,0c3.017,3.017,3.017,7.909,0,10.927l-14.818,14.818C278.064,87.956,276.087,88.71,274.11,88.71z"
		/>
	<path style="fill:#385F82;" d="M338.12,145.821h-54.826c-10.403,0-18.867,8.464-18.867,18.867v2.482h-16.853v-2.482
		c0-10.403-8.464-18.867-18.867-18.867H173.88c-10.403,0-18.867,8.464-18.867,18.867v32.415c0,10.403,8.464,18.867,18.867,18.867
		h54.826c10.403,0,18.867-8.464,18.867-18.867v-14.48h16.853v14.48c0,10.403,8.464,18.867,18.867,18.867h54.826
		c10.403,0,18.867-8.464,18.867-18.867v-32.415C356.987,154.285,348.523,145.821,338.12,145.821z M232.121,197.103
		c0,1.882-1.532,3.414-3.414,3.414H173.88c-1.882,0-3.414-1.532-3.414-3.414v-32.415c0-1.882,1.532-3.414,3.414-3.414h54.826
		c1.882,0,3.414,1.532,3.414,3.414L232.121,197.103L232.121,197.103z M341.534,197.103c0,1.882-1.532,3.414-3.414,3.414h-54.826
		c-1.882,0-3.414-1.532-3.414-3.414v-32.415c0-1.882,1.532-3.414,3.414-3.414h54.826c1.882,0,3.414,1.532,3.414,3.414V197.103z"/>
</g>
<g>
</g>
<g>
</g>
<g>
</g>
<g>
</g>
<g>
</g>
<g>
</g>
<g>
</g>
<g>
</g>
<g>
</g>
<g>
</g>
<g>
</g>
<g>
</g>
<g>
</g>
<g>
</g>
<g>
</g>
</svg>
