<?xml version="1.0" encoding="iso-8859-1"?>
<!-- Generator: Adobe Illustrator 19.0.0, SVG Export Plug-In . SVG Version: 6.00 Build 0)  -->
<svg version="1.1" id="Capa_1" xmlns="http://www.w3.org/2000/svg" xmlns:xlink="http://www.w3.org/1999/xlink" x="0px" y="0px"
	 viewBox="0 0 456.68 456.68" style="enable-background:new 0 0 456.68 456.68;" xml:space="preserve">
<g>
	<path style="fill:#EBF6FF;" d="M340.34,352.68h-16c0,29.121-17.354,55.44-44.12,66.912l-11.88,5.088l-40-48l-40,48l-11.88-5.088
		c-26.766-11.472-44.12-37.791-44.12-66.912h-16c-26.51,0-48,21.49-48,48v56h320v-56C388.34,374.17,366.85,352.68,340.34,352.68z"/>
	<path style="fill:#EBF6FF;" d="M290.94,7.128c-41.192-9.504-84.008-9.504-125.2,0l-41.4,9.552l24,88
		c52.184-15.656,107.816-15.656,160,0l9.6-35.288l14.4-52.712L290.94,7.128z"/>
</g>
<path style="fill:#F4E2D0;" d="M140.34,120.68v104c0.007,33.053,18.551,63.31,48,78.32l0,0v49.68h-16c0,13.255,10.745,24,24,24h64
	c13.255,0,24-10.745,24-24h-16V303l0,0c29.449-15.01,47.993-45.267,48-78.32v-104H140.34z"/>
<path style="fill:#DBC6AE;" d="M268.34,303c-2.836,1.446-5.75,2.733-8.728,3.856c-0.432,0.168-0.864,0.32-1.304,0.48
	c-2.549,0.928-5.152,1.728-7.808,2.4c-0.72,0.192-1.432,0.384-2.152,0.56c-2.472,0.576-4.992,1.024-7.536,1.384
	c-0.8,0.12-1.6,0.28-2.4,0.376c-6.658,0.811-13.39,0.811-20.048,0c-0.8-0.096-1.6-0.256-2.4-0.376
	c-2.544-0.36-5.064-0.8-7.536-1.384c-0.72-0.176-1.432-0.368-2.152-0.56c-2.667-0.688-5.269-1.488-7.808-2.4
	c-0.44-0.16-0.872-0.312-1.304-0.48c-3.011-1.119-5.957-2.407-8.824-3.856l0,0v8l0,0c2.839,1.439,5.752,2.726,8.728,3.856
	c0.432,0.168,0.864,0.32,1.304,0.48c2.544,0.928,5.152,1.72,7.808,2.4c0.72,0.192,1.432,0.392,2.152,0.56
	c2.472,0.576,4.992,1.016,7.536,1.384c0.8,0.12,1.6,0.28,2.4,0.376c6.658,0.811,13.39,0.811,20.048,0c0.8-0.096,1.6-0.256,2.4-0.376
	c2.544-0.368,5.064-0.8,7.536-1.384c0.72-0.168,1.432-0.368,2.152-0.56c2.656-0.696,5.264-1.488,7.808-2.4
	c0.44-0.16,0.872-0.312,1.304-0.48c3.008-1.126,5.954-2.414,8.824-3.856l0,0V303z"/>
<polygon style="opacity:0.25;enable-background:new    ;" points="252.34,40.68 236.34,40.68 236.34,24.68 220.34,24.68 
	220.34,40.68 204.34,40.68 204.34,56.68 220.34,56.68 220.34,72.68 236.34,72.68 236.34,56.68 252.34,56.68 "/>
<g>
	<path style="fill:#30271F;" d="M188.34,230.68c-7.732,0-14-6.268-14-14s6.268-14,14-14s14,6.268,14,14
		C202.331,224.408,196.068,230.671,188.34,230.68z M188.34,214.68c-1.105,0-2,0.895-2,2c0,2.2,4,2.2,4,0
		C190.34,215.575,189.445,214.68,188.34,214.68z"/>
	<path style="fill:#30271F;" d="M268.34,230.68c-7.732,0-14-6.268-14-14s6.268-14,14-14s14,6.268,14,14
		C282.331,224.408,276.068,230.671,268.34,230.68z M268.34,214.68c-1.105,0-2,0.895-2,2c0,2.2,4,2.2,4,0
		C270.34,215.575,269.445,214.68,268.34,214.68z"/>
</g>
<path style="fill:#F0CAA8;" d="M228.34,286.68c-16.559-0.022-29.978-13.441-30-30h12c0,9.941,8.059,18,18,18s18-8.059,18-18h12
	C258.318,273.239,244.899,286.658,228.34,286.68z"/>
<path style="opacity:0.25;enable-background:new    ;" d="M140.34,360.68h-8c1.16,32.36,12.928,53.304,42.856,66.128l13.696,5.872
	l39.448-47.336l39.448,47.336l13.696-5.872c29.928-12.824,41.696-33.768,42.856-66.128h-8c0,29.12-9.352,47.44-36.12,58.912
	l-11.88,5.088l-39.448-47.336h-1.104L188.34,424.68l-11.88-5.088C149.692,408.12,140.34,389.8,140.34,360.68z"/>
<path style="fill:#4C3D24;" d="M317.94,69.392l-9.6,35.288c-52.184-15.656-107.816-15.656-160,0l-9.352-34.288
	c-24.73,25.001-38.616,58.738-38.648,93.904c0,24.023,4.755,47.808,13.992,69.984l26.008,62.4h37.536
	c-23.529-16.422-37.545-43.307-37.536-72v-48h104l24-48l24,48h24v48c0.009,28.693-14.007,55.578-37.536,72h37.536l26.008-62.4
	c9.237-22.176,13.992-45.961,13.992-69.984v-3.616C356.361,126.32,342.515,93.406,317.94,69.392z"/>
<g>
	<path style="fill:#EBF6FF;" d="M260.34,376.68h-32l40,48l11.88-5.088c26.766-11.472,44.12-37.791,44.12-66.912h-40
		C284.34,365.935,273.595,376.68,260.34,376.68z"/>
	<path style="fill:#EBF6FF;" d="M176.46,419.592l11.88,5.088l40-48h-32c-13.255,0-24-10.745-24-24h-40
		C132.34,381.801,149.694,408.12,176.46,419.592z"/>
</g>
<g>
</g>
<g>
</g>
<g>
</g>
<g>
</g>
<g>
</g>
<g>
</g>
<g>
</g>
<g>
</g>
<g>
</g>
<g>
</g>
<g>
</g>
<g>
</g>
<g>
</g>
<g>
</g>
<g>
</g>
</svg>
