<?xml version="1.0" encoding="iso-8859-1"?>
<!-- Generator: Adobe Illustrator 19.0.0, SVG Export Plug-In . SVG Version: 6.00 Build 0)  -->
<svg version="1.1" id="Capa_1" xmlns="http://www.w3.org/2000/svg" xmlns:xlink="http://www.w3.org/1999/xlink" x="0px" y="0px"
	 viewBox="0 0 512.001 512.001" style="enable-background:new 0 0 512.001 512.001;" xml:space="preserve">
<circle style="fill:#DEAF73;" cx="159.741" cy="95.05" r="92.43"/>
<path style="fill:#FF80BD;" d="M385.112,382.205l-13.705-3.207H153.109l-13.706,3.207c-34.897,8.165-59.577,39.286-59.577,75.126
	v49.667c0,2.762,2.239,5.002,5.002,5.002h354.859c2.762,0,5.002-2.239,5.002-5.002v-49.667
	C444.689,421.491,420.009,390.371,385.112,382.205z"/>
<path style="fill:#FAD7A5;" d="M262.258,445.945c47.643,0,88.901-27.224,109.149-66.947l-28.869-6.755
	c-19.119-4.473-32.64-21.523-32.64-41.159v-48.261h-95.281v48.261c0,19.635-13.521,36.685-32.64,41.159l-28.869,6.755
	C173.356,418.722,214.614,445.945,262.258,445.945z"/>
<rect x="134.561" y="127.49" style="fill:#CD905A;" width="22.569" height="39.899"/>
<path style="fill:#53515E;" d="M135.288,143.322h21.843v93.536h-21.843c-10.388,0-18.81-8.422-18.81-18.81v-55.916
	C116.477,151.743,124.899,143.322,135.288,143.322z"/>
<rect x="141.021" y="143.32" style="fill:#474756;" width="19.733" height="93.54"/>
<path style="fill:#53515E;" d="M385.289,236.858h-21.843v-93.536h21.843c10.388,0,18.81,8.422,18.81,18.81v55.916
	C404.099,228.437,395.677,236.858,385.289,236.858z"/>
<rect x="359.751" y="143.32" style="fill:#474756;" width="21.06" height="93.54"/>
<path style="fill:#F0C891;" d="M309.898,331.085v-48.261h-95.281v48.261c0,1.465-0.084,2.914-0.232,4.346
	c13.828,6.884,29.407,10.777,45.903,10.777l0,0c18.015,0,34.945-4.629,49.684-12.746
	C309.928,332.674,309.898,331.882,309.898,331.085z"/>
<path style="fill:#FFE1B3;" d="M260.288,322.969L260.288,322.969c-56.972,0-103.158-46.185-103.158-103.157v-84.336
	c0-56.972,46.185-103.157,103.157-103.157l0,0c56.972,0,103.157,46.185,103.157,103.157v84.336
	C363.447,276.784,317.26,322.969,260.288,322.969z"/>
<path style="fill:#B28362;" d="M259.414,264.729c-13.859,0-26.889-5.397-36.688-15.197c-2.929-2.929-2.929-7.678,0-10.606
	c2.93-2.93,7.678-2.929,10.607,0c6.966,6.967,16.229,10.803,26.081,10.803s19.115-3.836,26.081-10.803
	c2.931-2.93,7.679-2.929,10.607,0s2.929,7.677,0,10.606C286.303,259.332,273.273,264.729,259.414,264.729z"/>
<path style="fill:#FAD7A5;" d="M277.436,33.765c27.224,18.571,45.102,49.829,45.102,85.27v84.336
	c0,56.972-46.185,103.157-103.157,103.157l0,0c-5.846,0-11.568-0.511-17.148-1.445c16.539,11.283,36.524,17.887,58.056,17.887l0,0
	c56.972,0,103.157-46.185,103.157-103.157v-84.336C363.447,84.349,326.243,41.935,277.436,33.765z"/>
<path style="fill:#AAE1FF;" d="M375.969,234.256v10.445c0,15.062-12.21,27.273-27.273,27.273h-77.473
	c-4.153,0-7.78,3.134-8.048,7.279c-0.294,4.542,3.302,8.317,7.781,8.317h77.74c23.676,0,42.869-19.193,42.869-42.869v-10.445
	c0-2.082-1.688-3.771-3.771-3.771h-8.055C377.658,230.485,375.969,232.173,375.969,234.256z"/>
<path style="fill:#CD905A;" d="M153.008,65.742c-5.214,8.353-12.215,21.81-15.92,39.666c-3.213,15.486-2.804,28.765-1.801,37.914
	c12.551-3.098,22.345-7.532,29.131-11.179c2.678-1.439,15.915-8.683,29.723-22.059l0.001-0.001L153.008,65.742z"/>
<path style="fill:#D59F63;" d="M391.734,124.118c-8.785-32.542-23.371-63.528-47.098-86.479
	c-7.691-7.439-36.591-35.395-79.365-37.604c0,0-44.634-2.306-83.174,30.49c-5.814,4.947-11.114,10.42-15.947,16.322
	s-9.198,12.232-13.143,18.896c35.872,51.324,89.689,83.963,149.863,83.963c14.818,0,45.78-4.52,60.575-14.229L391.734,124.118z"/>
<path style="fill:#CD905A;" d="M344.637,37.639c-7.691-7.439-36.591-35.394-79.365-37.604c0,0-10.821-0.55-26.395,2.792
	c32.178,7.736,53.698,28.547,60.174,34.812c23.726,22.951,38.313,53.937,47.098,86.479l-28.289,11.358
	c-9.393,6.164-25.3,10.234-39.458,12.386c8.017,1.202,16.18,1.843,24.469,1.843c14.819,0,45.78-4.52,60.575-14.229l28.288-11.358
	C382.949,91.576,368.363,60.59,344.637,37.639z"/>
<g>
	<circle style="fill:#53515E;" cx="219.381" cy="175.73" r="11.434"/>
	<circle style="fill:#53515E;" cx="297.132" cy="175.73" r="11.434"/>
</g>
<g>
	<path style="fill:#FF5CA6;" d="M103.508,419.702H89.652c-6.283,11.153-9.826,23.971-9.826,37.47v49.827
		c0,2.762,2.239,5.002,5.002,5.002h63.573v-47.406C148.4,439.801,128.301,419.702,103.508,419.702z"/>
	<path style="fill:#FF5CA6;" d="M421.008,419.702h13.856c6.283,11.153,9.826,23.971,9.826,37.47v49.827
		c0,2.762-2.239,5.002-5.002,5.002h-63.573v-47.406C376.115,439.801,396.214,419.702,421.008,419.702z"/>
</g>
<g>
</g>
<g>
</g>
<g>
</g>
<g>
</g>
<g>
</g>
<g>
</g>
<g>
</g>
<g>
</g>
<g>
</g>
<g>
</g>
<g>
</g>
<g>
</g>
<g>
</g>
<g>
</g>
<g>
</g>
</svg>
