<?xml version="1.0" encoding="iso-8859-1"?>
<!-- Generator: Adobe Illustrator 19.0.0, SVG Export Plug-In . SVG Version: 6.00 Build 0)  -->
<svg version="1.1" id="Layer_1" xmlns="http://www.w3.org/2000/svg" xmlns:xlink="http://www.w3.org/1999/xlink" x="0px" y="0px"
	 viewBox="0 0 431.94 431.94" style="enable-background:new 0 0 431.94 431.94;" xml:space="preserve">
<g>
	<path style="fill:#333333;" d="M327.067,212.829c-3.728,6.975-9.119,12.07-16.828,10.578c-20.667-4-19.333-42-19.333-42l-75,40.909
		l-75-40.909c0,0,1.333,38-19.333,42c-7.71,1.492-13.1-3.603-16.828-10.578c0,0-3.152,44.938,53.505,52.091
		c29.319,3.702,47.213-5.938,57.657-16.103c10.444,10.165,28.338,19.804,57.657,16.103
		C330.218,257.767,327.067,212.829,327.067,212.829z"/>
	<g>
		<g>
			<circle style="fill:#E5B591;" cx="148.591" cy="159.945" r="27.89"/>
			<circle style="fill:#E5B591;" cx="283.227" cy="159.945" r="27.89"/>
		</g>
	</g>
	<path style="fill:#FFD3AE;" d="M298.305,108.51c0,1.96-0.07,3.94-0.21,5.93l-0.52,7.41l-0.71,10l-0.53,7.49l-2.07,29.24l-1.32,18.6
		c-2.87,40.43-36.5,71.77-77.04,71.77c-40.53,0-74.16-31.34-77.03-71.77l-2.19-30.84l-2.39-33.78l-0.58-8.12
		c-3.38-47.68,34.39-88.23,82.19-88.23C261.715,26.21,298.305,63.45,298.305,108.51z"/>
	<g>
		<path style="fill:#E5B591;" d="M164.833,147.279h35.044c6.522,0,11.81,5.287,11.81,11.81v25.558c0,2.643,2.142,4.785,4.785,4.785
			h11.183l-9.485,3.366c-3.672,1.303-7.767,0.37-10.513-2.395L164.833,147.279z"/>
	</g>
	<polygon style="fill:#E5B591;" points="296.865,131.85 296.335,139.34 136.685,156.34 134.295,122.56 288.635,120.74 	"/>
	<g>
		<path style="fill:#FFFFFF;" d="M236.92,206.214c0,2.475-0.432,4.842-1.229,7.052c-0.374,1.063-0.839,2.085-1.371,3.057
			c-3.572,6.462-10.449,10.839-18.356,10.839c-7.916,0-14.793-4.377-18.365-10.839c-0.54-0.972-1.005-1.993-1.379-3.057
			c-0.797-2.209-1.221-4.577-1.221-7.052H236.92z"/>
		<path style="fill:#333333;" d="M235.698,213.266c-0.374,1.063-0.839,2.085-1.371,3.057c-3.572,6.462-10.449,10.839-18.356,10.839
			c-7.916,0-14.793-4.377-18.365-10.839c-0.54-0.972-1.005-1.993-1.379-3.057H235.698z"/>
	</g>
	<path style="fill:#935827;" d="M192.591,151.715c-0.322,0-0.65-0.052-0.972-0.163c-6.947-2.379-14.601-2.379-21.548,0
		c-1.567,0.537-3.273-0.299-3.81-1.867c-0.537-1.567,0.299-3.273,1.867-3.81c8.201-2.808,17.233-2.808,25.435,0
		c1.567,0.537,2.403,2.243,1.867,3.81C195.003,150.931,193.838,151.715,192.591,151.715z"/>
	<path style="fill:#935827;" d="M262.718,151.715c-0.322,0-0.65-0.052-0.972-0.163c-6.947-2.378-14.6-2.379-21.547,0
		c-1.568,0.537-3.273-0.299-3.81-1.867c-0.537-1.567,0.299-3.273,1.867-3.81c8.2-2.808,17.233-2.808,25.434,0
		c1.567,0.537,2.403,2.243,1.867,3.81C265.13,150.931,263.965,151.715,262.718,151.715z"/>
	<g>
		<circle style="fill:#FCC9A2;" cx="260.214" cy="196.214" r="16"/>
		<circle style="fill:#FCC9A2;" cx="171.714" cy="196.214" r="16"/>
	</g>
	<path style="fill:#333333;" d="M297.575,121.85l-0.71,10l-0.53,7.49l-2.07,29.24c-10.85-19.66-11.63-41.17-11.63-41.17
		L297.575,121.85z"/>
	<path style="fill:#333333;" d="M133.505,121.85l0.71,10l0.53,7.49l2.07,29.24c10.85-19.66,11.63-41.17,11.63-41.17L133.505,121.85z
		"/>
	<path style="fill:#333333;" d="M198.838,101.85l0.71,10l0.53,7.49l2.07,29.24c10.85-19.66,11.63-41.17,11.63-41.17L198.838,101.85z
		"/>
	<path style="fill:#F7774B;" d="M299.285,97.35h-12.21c-10.66,18.97-38.5,16.89-71.17,16.89c-32.66,0-60.5,2.08-71.16-16.89h-12.21
		l7.32-77.16c0.43-4.49,3.74-7.88,7.8-8.74c1.56-0.33,3.24-0.29,4.9,0.21l0.8,0.25c0.97,0.29,1.94,0.54,2.92,0.74
		c4.2,0.88,8.51,0.97,12.7,0.27c2.96-0.49,5.85-1.38,8.61-2.65c0.7-0.32,1.4-0.67,2.08-1.04c3.39-1.85,6.94-3.45,10.62-4.78
		c2.8-1.01,5.68-1.85,8.62-2.52c4.11-0.95,8.36-1.57,12.7-1.8c1.42-0.09,2.86-0.13,4.3-0.13c1.45,0,2.88,0.04,4.31,0.13
		c4.34,0.24,8.59,0.85,12.7,1.8c2.94,0.67,5.81,1.51,8.61,2.52c3.68,1.32,7.23,2.93,10.63,4.78c0.68,0.37,1.38,0.72,2.08,1.04
		c2.76,1.27,5.65,2.16,8.61,2.65c4.19,0.7,8.5,0.61,12.7-0.27c0.98-0.2,1.95-0.45,2.91-0.74l0.81-0.25c1.66-0.5,3.33-0.54,4.89-0.21
		c4.06,0.86,7.37,4.25,7.8,8.74L299.285,97.35z"/>
	<g>
		<path style="fill:#DD6140;" d="M156.275,12.65v84.59h-8.62V11.45c1.56-0.33,3.24-0.29,4.9,0.21l0.8,0.25
			C154.325,12.2,155.295,12.45,156.275,12.65z"/>
		<path style="fill:#DD6140;" d="M177.585,10.27v86.97h-8.61V12.92C171.935,12.43,174.825,11.54,177.585,10.27z"/>
		<path style="fill:#DD6140;" d="M198.905,1.93v95.31h-8.62V4.45C193.085,3.44,195.965,2.6,198.905,1.93z"/>
		<path style="fill:#DD6140;" d="M220.215,0.13v97.11h-8.61V0.13c1.42-0.09,2.86-0.13,4.3-0.13C217.355,0,218.785,0.04,220.215,0.13
			z"/>
		<path style="fill:#DD6140;" d="M241.525,4.45v92.79h-8.61V1.93C235.855,2.6,238.725,3.44,241.525,4.45z"/>
		<path style="fill:#DD6140;" d="M262.845,12.92v84.32h-8.61V10.27C256.995,11.54,259.885,12.43,262.845,12.92z"/>
		<path style="fill:#DD6140;" d="M284.155,11.45v85.79h-8.61V12.65c0.98-0.2,1.95-0.45,2.91-0.74l0.81-0.25
			C280.925,11.16,282.595,11.12,284.155,11.45z"/>
	</g>
	<path style="fill:#F7774B;" d="M304.405,82.89v49.7c0,2.84-2.3,5.15-5.15,5.15h-166.69c-2.85,0-5.16-2.31-5.16-5.15v-49.7
		c0-2.84,2.31-5.15,5.16-5.15h166.69C302.105,77.74,304.405,80.05,304.405,82.89z"/>
	<g>
		<rect x="136.659" y="77.74" style="fill:#DD6140;" width="10" height="60"/>
		<rect x="161.409" y="77.74" style="fill:#DD6140;" width="10" height="60"/>
		<rect x="186.159" y="77.74" style="fill:#DD6140;" width="10" height="60"/>
		<rect x="210.909" y="77.74" style="fill:#DD6140;" width="10" height="60"/>
		<rect x="235.659" y="77.74" style="fill:#DD6140;" width="10" height="60"/>
		<rect x="260.409" y="77.74" style="fill:#DD6140;" width="10" height="60"/>
		<rect x="285.159" y="77.74" style="fill:#DD6140;" width="10" height="60"/>
	</g>
	<path style="fill:#F7774B;" d="M275.975,264.93v-15.3c0-5.65-4.58-10.22-10.22-10.22h-99.57c-5.64,0-10.21,4.57-10.21,10.22v15.29
		c-33.29,10.1-57.52,41.03-57.52,77.63v89.39h235.03v-89.39C333.485,305.96,309.265,275.03,275.975,264.93z"/>
	<rect x="210.065" y="239.41" style="fill:#DD5D3A;" width="11.81" height="192.53"/>
	<g>
		<rect x="130.211" y="338.094" style="fill:#DD5D3A;" width="5" height="93.846"/>
		<rect x="296.729" y="338.094" style="fill:#DD5D3A;" width="5" height="93.846"/>
	</g>
	<rect x="239.965" y="336.074" style="fill:#DD5D3A;" width="38.667" height="18.667"/>
	<g>
		<circle style="fill:#333333;" cx="180.841" cy="163.039" r="6"/>
		<circle style="fill:#333333;" cx="250.969" cy="163.039" r="6"/>
	</g>
	<path style="fill:#DD5D3A;" d="M288.559,378.884v10.59c0,15.87-12.86,28.74-28.73,28.74h-87.71c-15.87,0-28.74-12.87-28.74-28.74
		v-10.59h0.4c2.25,13.62,14.09,24,28.34,24h87.71c14.25,0,26.08-10.38,28.33-24H288.559z"/>
</g>
<g>
</g>
<g>
</g>
<g>
</g>
<g>
</g>
<g>
</g>
<g>
</g>
<g>
</g>
<g>
</g>
<g>
</g>
<g>
</g>
<g>
</g>
<g>
</g>
<g>
</g>
<g>
</g>
<g>
</g>
</svg>
